M48
;GenerationSoftware,Autodesk,EAGLE,9.6.2*%
;CreationDate,2023-02-08T10:10:37Z*%
FMAT,2
ICI,OFF
METRIC,TZ,000.000
T6C0.350
T5C1.000
T4C1.016
T3C1.500
T2C1.800
T1C3.200
%
G90
M71
T1
X67310Y8890
X16510Y52070
X67310Y36830
T2
X3940Y35745
X3940Y30295
T3
X6970Y35445
X6970Y30595
T4
X57785Y29527
X57785Y26987
X57785Y24447
X57785Y21907
X57467Y39053
X57467Y36513
X57467Y41593
X49530Y52070
X25146Y52070
X27686Y52070
X30226Y52070
X32766Y52070
X35306Y52070
X37846Y52070
X40386Y52070
X42926Y52070
X46990Y52070
X10871Y47587
X52070Y52070
X54610Y52070
X57150Y52070
X59690Y52070
X62230Y52070
X64770Y52070
X34290Y3810
X36830Y3810
X39370Y3810
X41910Y3810
X44450Y3810
X46990Y3810
X52070Y3810
X54610Y3810
X57150Y3810
X59690Y3810
X62230Y3810
X64770Y3810
X57785Y32067
X4369Y52108
X4369Y47587
X10871Y52108
T5
X8890Y24130
X11430Y24130
X16510Y24130
X13970Y24130
X24130Y24130
X26670Y24130
X29210Y24130
X31750Y24130
X34290Y24130
X36830Y24130
X39370Y24130
X41910Y24130
X44450Y24130
X46990Y24130
X49530Y24130
X52070Y24130
X52070Y41910
X49530Y41910
X46990Y41910
X44450Y41910
X41910Y41910
X39370Y41910
X36830Y41910
X34290Y41910
X31750Y41910
X29210Y41910
X26670Y41910
X24130Y41910
X19050Y41910
X16510Y41910
X13970Y41910
X11430Y41910
X8890Y41910
X6350Y41910
X3810Y41910
X51840Y30480
X51840Y33020
X51840Y35560
X20003Y52070
X21590Y41910
X3810Y24130
X6350Y24130
X19050Y24130
X21590Y24130
X22542Y52070
T6
X46990Y17463
X37148Y36513
X46355Y16510
X39370Y34608
X21907Y17145
X31432Y47625
X36195Y47625
X36195Y38100
M30