G04 EAGLE Gerber RS-274X export*
G75*
%MOMM*%
%FSLAX34Y34*%
%LPD*%
%INTop Copper*%
%IPPOS*%
%AMOC8*
5,1,8,0,0,1.08239X$1,22.5*%
G01*
%ADD10C,1.524000*%
%ADD11C,1.508000*%
%ADD12R,1.700000X3.500000*%
%ADD13R,3.500000X1.700000*%
%ADD14C,1.508000*%
%ADD15C,0.203200*%
%ADD16C,0.406400*%
%ADD17C,0.756400*%

G36*
X335165Y22865D02*
X335165Y22865D01*
X335194Y22862D01*
X335305Y22885D01*
X335417Y22901D01*
X335444Y22913D01*
X335473Y22918D01*
X335573Y22971D01*
X335677Y23017D01*
X335699Y23036D01*
X335725Y23049D01*
X335807Y23127D01*
X335894Y23200D01*
X335910Y23225D01*
X335931Y23245D01*
X335988Y23343D01*
X336051Y23437D01*
X336060Y23465D01*
X336075Y23490D01*
X336103Y23600D01*
X336137Y23708D01*
X336138Y23738D01*
X336145Y23766D01*
X336141Y23879D01*
X336144Y23992D01*
X336137Y24021D01*
X336136Y24050D01*
X336101Y24158D01*
X336072Y24267D01*
X336057Y24293D01*
X336048Y24321D01*
X336003Y24385D01*
X335927Y24512D01*
X335882Y24555D01*
X335854Y24594D01*
X335147Y25300D01*
X333755Y28661D01*
X333755Y47539D01*
X335147Y50900D01*
X337720Y53473D01*
X341081Y54865D01*
X344719Y54865D01*
X348080Y53473D01*
X350653Y50900D01*
X352045Y47539D01*
X352045Y28661D01*
X350653Y25300D01*
X349946Y24594D01*
X349929Y24570D01*
X349906Y24551D01*
X349844Y24457D01*
X349776Y24367D01*
X349765Y24339D01*
X349749Y24315D01*
X349715Y24207D01*
X349674Y24101D01*
X349672Y24072D01*
X349663Y24044D01*
X349660Y23930D01*
X349651Y23818D01*
X349657Y23789D01*
X349656Y23760D01*
X349684Y23650D01*
X349707Y23539D01*
X349720Y23513D01*
X349728Y23485D01*
X349785Y23387D01*
X349838Y23287D01*
X349858Y23265D01*
X349873Y23240D01*
X349955Y23163D01*
X350033Y23081D01*
X350059Y23066D01*
X350080Y23046D01*
X350181Y22994D01*
X350279Y22937D01*
X350307Y22930D01*
X350333Y22916D01*
X350411Y22903D01*
X350554Y22867D01*
X350617Y22869D01*
X350664Y22861D01*
X360536Y22861D01*
X360565Y22865D01*
X360594Y22862D01*
X360705Y22885D01*
X360817Y22901D01*
X360844Y22913D01*
X360873Y22918D01*
X360973Y22971D01*
X361077Y23017D01*
X361099Y23036D01*
X361125Y23049D01*
X361207Y23127D01*
X361294Y23200D01*
X361310Y23225D01*
X361331Y23245D01*
X361388Y23343D01*
X361451Y23437D01*
X361460Y23465D01*
X361475Y23490D01*
X361503Y23600D01*
X361537Y23708D01*
X361538Y23738D01*
X361545Y23766D01*
X361541Y23879D01*
X361544Y23992D01*
X361537Y24021D01*
X361536Y24050D01*
X361501Y24158D01*
X361472Y24267D01*
X361457Y24293D01*
X361448Y24321D01*
X361403Y24385D01*
X361327Y24512D01*
X361282Y24555D01*
X361254Y24594D01*
X360547Y25300D01*
X359155Y28661D01*
X359155Y47539D01*
X360547Y50900D01*
X363120Y53473D01*
X366481Y54865D01*
X369454Y54865D01*
X369483Y54869D01*
X369513Y54866D01*
X369624Y54889D01*
X369736Y54905D01*
X369762Y54917D01*
X369791Y54922D01*
X369892Y54974D01*
X369995Y55021D01*
X370018Y55040D01*
X370044Y55053D01*
X370126Y55131D01*
X370212Y55204D01*
X370228Y55229D01*
X370250Y55249D01*
X370307Y55347D01*
X370370Y55441D01*
X370379Y55469D01*
X370393Y55494D01*
X370421Y55604D01*
X370456Y55712D01*
X370456Y55742D01*
X370464Y55770D01*
X370460Y55883D01*
X370463Y55996D01*
X370455Y56025D01*
X370454Y56054D01*
X370420Y56162D01*
X370391Y56271D01*
X370376Y56297D01*
X370367Y56325D01*
X370322Y56388D01*
X370246Y56516D01*
X370200Y56559D01*
X370172Y56598D01*
X320543Y106227D01*
X320543Y109173D01*
X322627Y111257D01*
X325573Y111257D01*
X385221Y51609D01*
X385267Y51574D01*
X385308Y51532D01*
X385381Y51489D01*
X385448Y51438D01*
X385503Y51418D01*
X385553Y51388D01*
X385635Y51367D01*
X385714Y51337D01*
X385772Y51332D01*
X385829Y51318D01*
X385913Y51321D01*
X385997Y51314D01*
X386054Y51325D01*
X386113Y51327D01*
X386193Y51353D01*
X386276Y51369D01*
X386328Y51396D01*
X386383Y51414D01*
X386439Y51454D01*
X386528Y51500D01*
X386600Y51569D01*
X386657Y51609D01*
X388520Y53473D01*
X391881Y54865D01*
X395519Y54865D01*
X398880Y53473D01*
X401453Y50900D01*
X402845Y47539D01*
X402845Y28661D01*
X401453Y25300D01*
X400746Y24594D01*
X400729Y24570D01*
X400706Y24551D01*
X400644Y24457D01*
X400576Y24367D01*
X400565Y24339D01*
X400549Y24315D01*
X400515Y24207D01*
X400474Y24101D01*
X400472Y24072D01*
X400463Y24044D01*
X400460Y23930D01*
X400451Y23818D01*
X400457Y23789D01*
X400456Y23760D01*
X400484Y23650D01*
X400507Y23539D01*
X400520Y23513D01*
X400528Y23485D01*
X400585Y23387D01*
X400638Y23287D01*
X400658Y23265D01*
X400673Y23240D01*
X400755Y23163D01*
X400833Y23081D01*
X400859Y23066D01*
X400880Y23046D01*
X400981Y22994D01*
X401079Y22937D01*
X401107Y22930D01*
X401133Y22916D01*
X401211Y22903D01*
X401354Y22867D01*
X401417Y22869D01*
X401464Y22861D01*
X410084Y22861D01*
X410175Y22874D01*
X410267Y22877D01*
X410315Y22893D01*
X410365Y22901D01*
X410449Y22938D01*
X410537Y22967D01*
X410578Y22996D01*
X410625Y23017D01*
X410695Y23076D01*
X410771Y23128D01*
X410803Y23168D01*
X410842Y23200D01*
X410893Y23277D01*
X410951Y23348D01*
X410971Y23395D01*
X410999Y23437D01*
X411027Y23525D01*
X411063Y23609D01*
X411070Y23660D01*
X411085Y23708D01*
X411087Y23800D01*
X411099Y23891D01*
X411091Y23942D01*
X411092Y23992D01*
X411069Y24081D01*
X411055Y24172D01*
X411035Y24212D01*
X411021Y24267D01*
X410940Y24404D01*
X410905Y24473D01*
X410410Y25155D01*
X409684Y26580D01*
X409189Y28101D01*
X408939Y29680D01*
X408939Y36069D01*
X418084Y36069D01*
X418142Y36077D01*
X418200Y36075D01*
X418282Y36097D01*
X418365Y36109D01*
X418419Y36133D01*
X418475Y36147D01*
X418548Y36190D01*
X418625Y36225D01*
X418669Y36263D01*
X418720Y36293D01*
X418777Y36354D01*
X418842Y36409D01*
X418874Y36457D01*
X418914Y36500D01*
X418953Y36575D01*
X418999Y36645D01*
X419017Y36701D01*
X419044Y36753D01*
X419055Y36821D01*
X419085Y36916D01*
X419088Y37016D01*
X419099Y37084D01*
X419099Y38101D01*
X419101Y38101D01*
X419101Y37084D01*
X419109Y37026D01*
X419108Y36968D01*
X419129Y36886D01*
X419141Y36803D01*
X419165Y36749D01*
X419179Y36693D01*
X419222Y36620D01*
X419257Y36543D01*
X419295Y36498D01*
X419325Y36448D01*
X419386Y36390D01*
X419441Y36326D01*
X419489Y36294D01*
X419532Y36254D01*
X419607Y36215D01*
X419677Y36169D01*
X419733Y36151D01*
X419785Y36124D01*
X419853Y36113D01*
X419948Y36083D01*
X420048Y36080D01*
X420116Y36069D01*
X429261Y36069D01*
X429261Y29680D01*
X429011Y28101D01*
X428516Y26580D01*
X427790Y25155D01*
X427295Y24473D01*
X427252Y24392D01*
X427201Y24315D01*
X427185Y24266D01*
X427162Y24222D01*
X427143Y24132D01*
X427115Y24044D01*
X427114Y23993D01*
X427103Y23943D01*
X427110Y23852D01*
X427108Y23760D01*
X427120Y23711D01*
X427124Y23660D01*
X427156Y23573D01*
X427179Y23485D01*
X427205Y23441D01*
X427223Y23393D01*
X427278Y23319D01*
X427325Y23240D01*
X427362Y23205D01*
X427392Y23165D01*
X427465Y23109D01*
X427532Y23046D01*
X427577Y23023D01*
X427617Y22992D01*
X427703Y22958D01*
X427785Y22916D01*
X427829Y22909D01*
X427882Y22888D01*
X428040Y22873D01*
X428116Y22861D01*
X435484Y22861D01*
X435575Y22874D01*
X435667Y22877D01*
X435715Y22893D01*
X435765Y22901D01*
X435849Y22938D01*
X435937Y22967D01*
X435978Y22996D01*
X436025Y23017D01*
X436095Y23076D01*
X436171Y23128D01*
X436203Y23168D01*
X436242Y23200D01*
X436293Y23277D01*
X436351Y23348D01*
X436371Y23395D01*
X436399Y23437D01*
X436427Y23525D01*
X436463Y23609D01*
X436470Y23660D01*
X436485Y23708D01*
X436487Y23800D01*
X436499Y23891D01*
X436491Y23942D01*
X436492Y23992D01*
X436469Y24081D01*
X436455Y24172D01*
X436435Y24212D01*
X436421Y24267D01*
X436340Y24404D01*
X436305Y24473D01*
X435810Y25155D01*
X435084Y26580D01*
X434589Y28101D01*
X434339Y29680D01*
X434339Y36069D01*
X443484Y36069D01*
X443542Y36077D01*
X443600Y36075D01*
X443682Y36097D01*
X443765Y36109D01*
X443819Y36133D01*
X443875Y36147D01*
X443948Y36190D01*
X444025Y36225D01*
X444069Y36263D01*
X444120Y36293D01*
X444177Y36354D01*
X444242Y36409D01*
X444274Y36457D01*
X444314Y36500D01*
X444353Y36575D01*
X444399Y36645D01*
X444417Y36701D01*
X444444Y36753D01*
X444455Y36821D01*
X444485Y36916D01*
X444488Y37016D01*
X444499Y37084D01*
X444499Y38101D01*
X444501Y38101D01*
X444501Y37084D01*
X444509Y37026D01*
X444508Y36968D01*
X444529Y36886D01*
X444541Y36803D01*
X444565Y36749D01*
X444579Y36693D01*
X444622Y36620D01*
X444657Y36543D01*
X444695Y36498D01*
X444725Y36448D01*
X444786Y36390D01*
X444841Y36326D01*
X444889Y36294D01*
X444932Y36254D01*
X445007Y36215D01*
X445077Y36169D01*
X445133Y36151D01*
X445185Y36124D01*
X445253Y36113D01*
X445348Y36083D01*
X445448Y36080D01*
X445516Y36069D01*
X454661Y36069D01*
X454661Y29680D01*
X454411Y28101D01*
X453916Y26580D01*
X453190Y25155D01*
X452695Y24473D01*
X452652Y24392D01*
X452601Y24315D01*
X452585Y24266D01*
X452562Y24222D01*
X452543Y24132D01*
X452515Y24044D01*
X452514Y23993D01*
X452503Y23943D01*
X452510Y23852D01*
X452508Y23760D01*
X452520Y23711D01*
X452524Y23660D01*
X452556Y23573D01*
X452579Y23485D01*
X452605Y23441D01*
X452623Y23393D01*
X452678Y23319D01*
X452725Y23240D01*
X452762Y23205D01*
X452792Y23165D01*
X452865Y23109D01*
X452932Y23046D01*
X452977Y23023D01*
X453017Y22992D01*
X453103Y22958D01*
X453185Y22916D01*
X453229Y22909D01*
X453282Y22888D01*
X453440Y22873D01*
X453516Y22861D01*
X462136Y22861D01*
X462165Y22865D01*
X462194Y22862D01*
X462305Y22885D01*
X462417Y22901D01*
X462444Y22913D01*
X462473Y22918D01*
X462573Y22971D01*
X462677Y23017D01*
X462699Y23036D01*
X462725Y23049D01*
X462807Y23127D01*
X462894Y23200D01*
X462910Y23225D01*
X462931Y23245D01*
X462988Y23343D01*
X463051Y23437D01*
X463060Y23465D01*
X463075Y23490D01*
X463103Y23600D01*
X463137Y23708D01*
X463138Y23738D01*
X463145Y23766D01*
X463141Y23879D01*
X463144Y23992D01*
X463137Y24021D01*
X463136Y24050D01*
X463101Y24158D01*
X463072Y24267D01*
X463057Y24293D01*
X463048Y24321D01*
X463003Y24385D01*
X462927Y24512D01*
X462882Y24555D01*
X462854Y24594D01*
X462147Y25300D01*
X460755Y28661D01*
X460755Y47539D01*
X462147Y50900D01*
X464720Y53473D01*
X468081Y54865D01*
X471719Y54865D01*
X475080Y53473D01*
X477653Y50900D01*
X479045Y47539D01*
X479045Y28661D01*
X477653Y25300D01*
X476946Y24594D01*
X476929Y24570D01*
X476906Y24551D01*
X476844Y24457D01*
X476776Y24367D01*
X476765Y24339D01*
X476749Y24315D01*
X476715Y24207D01*
X476674Y24101D01*
X476672Y24072D01*
X476663Y24044D01*
X476660Y23930D01*
X476651Y23818D01*
X476657Y23789D01*
X476656Y23760D01*
X476684Y23650D01*
X476707Y23539D01*
X476720Y23513D01*
X476728Y23485D01*
X476785Y23387D01*
X476838Y23287D01*
X476858Y23265D01*
X476873Y23240D01*
X476955Y23163D01*
X477033Y23081D01*
X477059Y23066D01*
X477080Y23046D01*
X477181Y22994D01*
X477279Y22937D01*
X477307Y22930D01*
X477333Y22916D01*
X477411Y22903D01*
X477554Y22867D01*
X477617Y22869D01*
X477664Y22861D01*
X512936Y22861D01*
X512965Y22865D01*
X512994Y22862D01*
X513105Y22885D01*
X513217Y22901D01*
X513244Y22913D01*
X513273Y22918D01*
X513373Y22971D01*
X513477Y23017D01*
X513499Y23036D01*
X513525Y23049D01*
X513607Y23127D01*
X513694Y23200D01*
X513710Y23225D01*
X513731Y23245D01*
X513788Y23343D01*
X513851Y23437D01*
X513860Y23465D01*
X513875Y23490D01*
X513903Y23600D01*
X513937Y23708D01*
X513938Y23738D01*
X513945Y23766D01*
X513941Y23879D01*
X513944Y23992D01*
X513937Y24021D01*
X513936Y24050D01*
X513901Y24158D01*
X513872Y24267D01*
X513857Y24293D01*
X513848Y24321D01*
X513803Y24385D01*
X513727Y24512D01*
X513682Y24555D01*
X513654Y24594D01*
X512947Y25300D01*
X511555Y28661D01*
X511555Y43231D01*
X511548Y43279D01*
X511549Y43282D01*
X511547Y43286D01*
X511543Y43318D01*
X511540Y43405D01*
X511523Y43458D01*
X511515Y43513D01*
X511480Y43592D01*
X511453Y43676D01*
X511425Y43715D01*
X511399Y43772D01*
X511303Y43885D01*
X511258Y43949D01*
X353185Y202022D01*
X351399Y203808D01*
X351399Y209144D01*
X351391Y209202D01*
X351393Y209260D01*
X351371Y209342D01*
X351359Y209426D01*
X351336Y209479D01*
X351321Y209535D01*
X351278Y209608D01*
X351243Y209685D01*
X351205Y209730D01*
X351176Y209780D01*
X351114Y209838D01*
X351060Y209902D01*
X351011Y209934D01*
X350968Y209974D01*
X350893Y210013D01*
X350823Y210060D01*
X350767Y210077D01*
X350715Y210104D01*
X350647Y210115D01*
X350552Y210145D01*
X350452Y210148D01*
X350384Y210159D01*
X344931Y210159D01*
X344931Y229184D01*
X344923Y229242D01*
X344924Y229300D01*
X344903Y229382D01*
X344891Y229465D01*
X344867Y229519D01*
X344853Y229575D01*
X344810Y229648D01*
X344775Y229725D01*
X344737Y229769D01*
X344707Y229820D01*
X344646Y229877D01*
X344591Y229942D01*
X344543Y229974D01*
X344500Y230014D01*
X344425Y230053D01*
X344355Y230099D01*
X344299Y230117D01*
X344247Y230144D01*
X344179Y230155D01*
X344084Y230185D01*
X343984Y230188D01*
X343916Y230199D01*
X342899Y230199D01*
X342899Y230201D01*
X343916Y230201D01*
X343974Y230209D01*
X344032Y230208D01*
X344114Y230229D01*
X344197Y230241D01*
X344251Y230265D01*
X344307Y230279D01*
X344380Y230322D01*
X344457Y230357D01*
X344501Y230395D01*
X344552Y230425D01*
X344609Y230486D01*
X344674Y230541D01*
X344706Y230589D01*
X344746Y230632D01*
X344785Y230707D01*
X344831Y230777D01*
X344849Y230833D01*
X344876Y230885D01*
X344887Y230953D01*
X344917Y231048D01*
X344920Y231148D01*
X344931Y231216D01*
X344931Y240284D01*
X344923Y240342D01*
X344924Y240400D01*
X344903Y240482D01*
X344891Y240565D01*
X344867Y240619D01*
X344853Y240675D01*
X344810Y240748D01*
X344775Y240825D01*
X344737Y240869D01*
X344707Y240920D01*
X344646Y240977D01*
X344591Y241042D01*
X344543Y241074D01*
X344500Y241114D01*
X344425Y241153D01*
X344355Y241199D01*
X344299Y241217D01*
X344247Y241244D01*
X344179Y241255D01*
X344084Y241285D01*
X343984Y241288D01*
X343916Y241299D01*
X341884Y241299D01*
X341826Y241291D01*
X341768Y241292D01*
X341686Y241271D01*
X341603Y241259D01*
X341549Y241235D01*
X341493Y241221D01*
X341420Y241178D01*
X341343Y241143D01*
X341298Y241105D01*
X341248Y241075D01*
X341190Y241014D01*
X341126Y240959D01*
X341094Y240911D01*
X341054Y240868D01*
X341015Y240793D01*
X340969Y240723D01*
X340951Y240667D01*
X340924Y240615D01*
X340913Y240547D01*
X340883Y240452D01*
X340880Y240352D01*
X340869Y240284D01*
X340869Y231415D01*
X340539Y231467D01*
X339030Y231958D01*
X338711Y232121D01*
X338644Y232143D01*
X338581Y232176D01*
X338521Y232186D01*
X338442Y232213D01*
X338324Y232219D01*
X338250Y232231D01*
X331859Y232231D01*
X331859Y248034D01*
X332032Y248681D01*
X332367Y249260D01*
X332840Y249733D01*
X333419Y250068D01*
X334066Y250241D01*
X337999Y250241D01*
X338069Y250251D01*
X338139Y250251D01*
X338198Y250269D01*
X338280Y250281D01*
X338388Y250329D01*
X338460Y250351D01*
X339030Y250642D01*
X340539Y251133D01*
X340869Y251185D01*
X340869Y242316D01*
X340877Y242258D01*
X340875Y242200D01*
X340897Y242118D01*
X340909Y242035D01*
X340933Y241981D01*
X340947Y241925D01*
X340990Y241852D01*
X341025Y241775D01*
X341063Y241731D01*
X341093Y241680D01*
X341154Y241623D01*
X341209Y241558D01*
X341257Y241526D01*
X341300Y241486D01*
X341375Y241447D01*
X341445Y241401D01*
X341501Y241383D01*
X341553Y241356D01*
X341621Y241345D01*
X341716Y241315D01*
X341816Y241312D01*
X341884Y241301D01*
X343916Y241301D01*
X343974Y241309D01*
X344032Y241308D01*
X344114Y241329D01*
X344197Y241341D01*
X344251Y241365D01*
X344307Y241379D01*
X344380Y241422D01*
X344457Y241457D01*
X344501Y241495D01*
X344552Y241525D01*
X344609Y241586D01*
X344674Y241641D01*
X344706Y241689D01*
X344746Y241732D01*
X344785Y241807D01*
X344831Y241877D01*
X344849Y241933D01*
X344876Y241985D01*
X344887Y242053D01*
X344917Y242148D01*
X344920Y242248D01*
X344931Y242316D01*
X344931Y251185D01*
X345261Y251133D01*
X346770Y250642D01*
X347340Y250351D01*
X347407Y250328D01*
X347470Y250296D01*
X347530Y250286D01*
X347609Y250259D01*
X347727Y250253D01*
X347801Y250241D01*
X348819Y250241D01*
X348848Y250245D01*
X348877Y250242D01*
X348988Y250265D01*
X349101Y250281D01*
X349127Y250292D01*
X349156Y250298D01*
X349257Y250350D01*
X349360Y250397D01*
X349382Y250416D01*
X349408Y250429D01*
X349491Y250507D01*
X349577Y250580D01*
X349593Y250605D01*
X349615Y250625D01*
X349672Y250723D01*
X349735Y250817D01*
X349744Y250845D01*
X349758Y250870D01*
X349786Y250980D01*
X349820Y251088D01*
X349821Y251117D01*
X349828Y251146D01*
X349825Y251259D01*
X349828Y251372D01*
X349820Y251401D01*
X349819Y251430D01*
X349784Y251538D01*
X349756Y251647D01*
X349741Y251673D01*
X349732Y251700D01*
X349686Y251764D01*
X349611Y251892D01*
X349578Y251923D01*
X349575Y251928D01*
X349560Y251941D01*
X349537Y251974D01*
X302385Y299126D01*
X300599Y300912D01*
X300599Y410160D01*
X300591Y410218D01*
X300593Y410276D01*
X300571Y410358D01*
X300559Y410442D01*
X300536Y410495D01*
X300521Y410551D01*
X300478Y410624D01*
X300443Y410701D01*
X300405Y410746D01*
X300376Y410796D01*
X300314Y410854D01*
X300260Y410918D01*
X300211Y410950D01*
X300168Y410990D01*
X300093Y411029D01*
X300023Y411076D01*
X299967Y411093D01*
X299915Y411120D01*
X299847Y411131D01*
X299752Y411161D01*
X299652Y411164D01*
X299584Y411175D01*
X296857Y411175D01*
X296827Y411171D01*
X296796Y411173D01*
X296719Y411156D01*
X296576Y411135D01*
X296517Y411109D01*
X296469Y411098D01*
X293903Y410035D01*
X290297Y410035D01*
X288330Y410850D01*
X288328Y410851D01*
X288327Y410851D01*
X288192Y410885D01*
X288054Y410921D01*
X288053Y410921D01*
X288051Y410921D01*
X287911Y410917D01*
X287770Y410913D01*
X287769Y410912D01*
X287767Y410912D01*
X287634Y410869D01*
X287499Y410826D01*
X287498Y410825D01*
X287497Y410825D01*
X287485Y410816D01*
X287263Y410668D01*
X287244Y410645D01*
X287223Y410630D01*
X229778Y353185D01*
X229726Y353115D01*
X229666Y353051D01*
X229640Y353002D01*
X229607Y352958D01*
X229576Y352876D01*
X229536Y352798D01*
X229528Y352751D01*
X229506Y352692D01*
X229494Y352544D01*
X229481Y352467D01*
X229481Y248988D01*
X229485Y248959D01*
X229482Y248930D01*
X229505Y248819D01*
X229521Y248707D01*
X229533Y248680D01*
X229538Y248651D01*
X229591Y248550D01*
X229637Y248447D01*
X229656Y248425D01*
X229669Y248399D01*
X229747Y248317D01*
X229820Y248230D01*
X229845Y248214D01*
X229865Y248193D01*
X229963Y248135D01*
X230057Y248073D01*
X230085Y248064D01*
X230110Y248049D01*
X230220Y248021D01*
X230328Y247987D01*
X230358Y247986D01*
X230386Y247979D01*
X230499Y247982D01*
X230612Y247979D01*
X230641Y247987D01*
X230670Y247988D01*
X230778Y248023D01*
X230887Y248051D01*
X230913Y248066D01*
X230941Y248075D01*
X231005Y248121D01*
X231132Y248197D01*
X231175Y248242D01*
X231214Y248270D01*
X232168Y249225D01*
X236543Y249225D01*
X236573Y249229D01*
X236604Y249227D01*
X236681Y249244D01*
X236824Y249265D01*
X236883Y249291D01*
X236931Y249302D01*
X239497Y250365D01*
X243103Y250365D01*
X245669Y249302D01*
X245699Y249294D01*
X245726Y249280D01*
X245804Y249267D01*
X245944Y249231D01*
X246008Y249233D01*
X246057Y249225D01*
X250432Y249225D01*
X251325Y248332D01*
X251325Y212068D01*
X250432Y211175D01*
X232168Y211175D01*
X231214Y212130D01*
X231190Y212147D01*
X231171Y212170D01*
X231077Y212233D01*
X230987Y212301D01*
X230959Y212311D01*
X230935Y212327D01*
X230827Y212362D01*
X230721Y212402D01*
X230692Y212404D01*
X230664Y212413D01*
X230550Y212416D01*
X230438Y212426D01*
X230409Y212420D01*
X230380Y212421D01*
X230270Y212392D01*
X230159Y212370D01*
X230133Y212356D01*
X230105Y212349D01*
X230007Y212291D01*
X229907Y212239D01*
X229885Y212218D01*
X229860Y212203D01*
X229783Y212121D01*
X229701Y212043D01*
X229686Y212018D01*
X229666Y211996D01*
X229614Y211895D01*
X229557Y211798D01*
X229550Y211769D01*
X229536Y211743D01*
X229523Y211666D01*
X229487Y211522D01*
X229489Y211460D01*
X229481Y211412D01*
X229481Y210595D01*
X221913Y203028D01*
X221861Y202958D01*
X221801Y202894D01*
X221775Y202845D01*
X221742Y202801D01*
X221711Y202719D01*
X221671Y202641D01*
X221663Y202593D01*
X221641Y202535D01*
X221629Y202387D01*
X221616Y202310D01*
X221616Y176820D01*
X221616Y176818D01*
X221616Y176817D01*
X221636Y176674D01*
X221656Y176538D01*
X221656Y176537D01*
X221656Y176535D01*
X221715Y176406D01*
X221772Y176279D01*
X221773Y176278D01*
X221774Y176276D01*
X221864Y176170D01*
X221955Y176062D01*
X221957Y176061D01*
X221958Y176060D01*
X221970Y176052D01*
X221993Y176037D01*
X223574Y174456D01*
X224382Y172506D01*
X224382Y170394D01*
X223574Y168444D01*
X222081Y166951D01*
X220131Y166143D01*
X218019Y166143D01*
X216069Y166951D01*
X214576Y168444D01*
X213768Y170394D01*
X213768Y172506D01*
X214576Y174456D01*
X216138Y176018D01*
X216152Y176026D01*
X216153Y176028D01*
X216155Y176028D01*
X216253Y176133D01*
X216348Y176233D01*
X216348Y176235D01*
X216349Y176236D01*
X216414Y176361D01*
X216478Y176486D01*
X216478Y176487D01*
X216479Y176489D01*
X216481Y176503D01*
X216533Y176765D01*
X216530Y176795D01*
X216534Y176820D01*
X216534Y204835D01*
X220125Y208426D01*
X220143Y208450D01*
X220165Y208469D01*
X220228Y208563D01*
X220296Y208653D01*
X220306Y208681D01*
X220323Y208705D01*
X220357Y208813D01*
X220397Y208919D01*
X220400Y208948D01*
X220409Y208976D01*
X220411Y209090D01*
X220421Y209202D01*
X220415Y209231D01*
X220416Y209260D01*
X220387Y209370D01*
X220365Y209481D01*
X220351Y209507D01*
X220344Y209535D01*
X220286Y209633D01*
X220234Y209733D01*
X220214Y209755D01*
X220199Y209780D01*
X220116Y209857D01*
X220038Y209939D01*
X220013Y209954D01*
X219991Y209974D01*
X219891Y210026D01*
X219793Y210083D01*
X219764Y210090D01*
X219738Y210104D01*
X219661Y210117D01*
X219517Y210153D01*
X219455Y210151D01*
X219407Y210159D01*
X217931Y210159D01*
X217931Y229184D01*
X217923Y229242D01*
X217924Y229300D01*
X217903Y229382D01*
X217891Y229465D01*
X217867Y229519D01*
X217853Y229575D01*
X217810Y229648D01*
X217775Y229725D01*
X217737Y229769D01*
X217707Y229820D01*
X217646Y229877D01*
X217591Y229942D01*
X217543Y229974D01*
X217500Y230014D01*
X217425Y230053D01*
X217355Y230099D01*
X217299Y230117D01*
X217247Y230144D01*
X217179Y230155D01*
X217084Y230185D01*
X216984Y230188D01*
X216916Y230199D01*
X215899Y230199D01*
X215899Y230201D01*
X216916Y230201D01*
X216974Y230209D01*
X217032Y230208D01*
X217114Y230229D01*
X217197Y230241D01*
X217251Y230265D01*
X217307Y230279D01*
X217380Y230322D01*
X217457Y230357D01*
X217501Y230395D01*
X217552Y230425D01*
X217609Y230486D01*
X217674Y230541D01*
X217706Y230589D01*
X217746Y230632D01*
X217785Y230707D01*
X217831Y230777D01*
X217849Y230833D01*
X217876Y230885D01*
X217887Y230953D01*
X217917Y231048D01*
X217920Y231148D01*
X217931Y231216D01*
X217931Y240284D01*
X217923Y240342D01*
X217924Y240400D01*
X217903Y240482D01*
X217891Y240565D01*
X217867Y240619D01*
X217853Y240675D01*
X217810Y240748D01*
X217775Y240825D01*
X217737Y240869D01*
X217707Y240920D01*
X217646Y240977D01*
X217591Y241042D01*
X217543Y241074D01*
X217500Y241114D01*
X217425Y241153D01*
X217355Y241199D01*
X217299Y241217D01*
X217247Y241244D01*
X217179Y241255D01*
X217084Y241285D01*
X216984Y241288D01*
X216916Y241299D01*
X214884Y241299D01*
X214826Y241291D01*
X214768Y241292D01*
X214686Y241271D01*
X214603Y241259D01*
X214549Y241235D01*
X214493Y241221D01*
X214420Y241178D01*
X214343Y241143D01*
X214298Y241105D01*
X214248Y241075D01*
X214190Y241014D01*
X214126Y240959D01*
X214094Y240911D01*
X214054Y240868D01*
X214015Y240793D01*
X213969Y240723D01*
X213951Y240667D01*
X213924Y240615D01*
X213913Y240547D01*
X213883Y240452D01*
X213880Y240352D01*
X213869Y240284D01*
X213869Y231415D01*
X213539Y231467D01*
X212030Y231958D01*
X211711Y232121D01*
X211644Y232143D01*
X211581Y232176D01*
X211521Y232186D01*
X211442Y232213D01*
X211324Y232219D01*
X211250Y232231D01*
X204859Y232231D01*
X204859Y248034D01*
X205032Y248681D01*
X205367Y249260D01*
X205840Y249733D01*
X206419Y250068D01*
X207066Y250241D01*
X210999Y250241D01*
X211069Y250251D01*
X211139Y250251D01*
X211198Y250269D01*
X211280Y250281D01*
X211388Y250329D01*
X211460Y250351D01*
X212030Y250642D01*
X213539Y251133D01*
X213869Y251185D01*
X213869Y242316D01*
X213877Y242258D01*
X213875Y242200D01*
X213897Y242118D01*
X213909Y242035D01*
X213933Y241981D01*
X213947Y241925D01*
X213990Y241852D01*
X214025Y241775D01*
X214063Y241731D01*
X214093Y241680D01*
X214154Y241623D01*
X214209Y241558D01*
X214257Y241526D01*
X214300Y241486D01*
X214375Y241447D01*
X214445Y241401D01*
X214501Y241383D01*
X214553Y241356D01*
X214621Y241345D01*
X214716Y241315D01*
X214816Y241312D01*
X214884Y241301D01*
X216916Y241301D01*
X216974Y241309D01*
X217032Y241308D01*
X217114Y241329D01*
X217197Y241341D01*
X217251Y241365D01*
X217307Y241379D01*
X217380Y241422D01*
X217457Y241457D01*
X217501Y241495D01*
X217552Y241525D01*
X217609Y241586D01*
X217674Y241641D01*
X217706Y241689D01*
X217746Y241732D01*
X217785Y241807D01*
X217831Y241877D01*
X217849Y241933D01*
X217876Y241985D01*
X217887Y242053D01*
X217917Y242148D01*
X217920Y242248D01*
X217931Y242316D01*
X217931Y251185D01*
X218261Y251133D01*
X219770Y250642D01*
X220340Y250351D01*
X220407Y250328D01*
X220470Y250296D01*
X220530Y250286D01*
X220609Y250259D01*
X220727Y250253D01*
X220801Y250241D01*
X223384Y250241D01*
X223442Y250249D01*
X223500Y250247D01*
X223582Y250269D01*
X223666Y250281D01*
X223719Y250304D01*
X223775Y250319D01*
X223848Y250362D01*
X223925Y250397D01*
X223970Y250435D01*
X224020Y250464D01*
X224078Y250526D01*
X224142Y250580D01*
X224174Y250629D01*
X224214Y250672D01*
X224253Y250747D01*
X224300Y250817D01*
X224317Y250873D01*
X224344Y250925D01*
X224355Y250993D01*
X224385Y251088D01*
X224388Y251188D01*
X224399Y251256D01*
X224399Y362695D01*
X224387Y362782D01*
X224384Y362869D01*
X224367Y362922D01*
X224359Y362976D01*
X224324Y363056D01*
X224297Y363139D01*
X224269Y363179D01*
X224243Y363236D01*
X224147Y363349D01*
X224102Y363413D01*
X178705Y408810D01*
X176919Y410595D01*
X176919Y411412D01*
X176915Y411441D01*
X176918Y411470D01*
X176895Y411581D01*
X176879Y411693D01*
X176867Y411720D01*
X176862Y411749D01*
X176809Y411850D01*
X176763Y411953D01*
X176744Y411975D01*
X176731Y412001D01*
X176653Y412083D01*
X176580Y412170D01*
X176555Y412186D01*
X176535Y412207D01*
X176437Y412265D01*
X176343Y412327D01*
X176315Y412336D01*
X176290Y412351D01*
X176180Y412379D01*
X176072Y412413D01*
X176042Y412414D01*
X176014Y412421D01*
X175901Y412418D01*
X175788Y412421D01*
X175759Y412413D01*
X175730Y412412D01*
X175622Y412377D01*
X175513Y412349D01*
X175487Y412334D01*
X175459Y412325D01*
X175395Y412279D01*
X175268Y412203D01*
X175225Y412158D01*
X175186Y412130D01*
X174232Y411175D01*
X169857Y411175D01*
X169827Y411171D01*
X169796Y411173D01*
X169719Y411156D01*
X169576Y411135D01*
X169517Y411109D01*
X169469Y411098D01*
X166903Y410035D01*
X163297Y410035D01*
X160731Y411098D01*
X160701Y411106D01*
X160674Y411120D01*
X160596Y411133D01*
X160456Y411169D01*
X160392Y411167D01*
X160343Y411175D01*
X155968Y411175D01*
X155075Y412068D01*
X155075Y448332D01*
X155968Y449225D01*
X174524Y449225D01*
X174553Y449229D01*
X174582Y449226D01*
X174693Y449249D01*
X174806Y449265D01*
X174832Y449277D01*
X174861Y449282D01*
X174962Y449334D01*
X175065Y449381D01*
X175087Y449400D01*
X175113Y449413D01*
X175196Y449491D01*
X175282Y449564D01*
X175298Y449589D01*
X175320Y449609D01*
X175377Y449707D01*
X175440Y449801D01*
X175448Y449829D01*
X175463Y449854D01*
X175491Y449964D01*
X175525Y450072D01*
X175526Y450102D01*
X175533Y450130D01*
X175530Y450243D01*
X175533Y450356D01*
X175525Y450385D01*
X175524Y450414D01*
X175489Y450522D01*
X175461Y450631D01*
X175446Y450657D01*
X175437Y450685D01*
X175391Y450748D01*
X175316Y450876D01*
X175278Y450911D01*
X175275Y450917D01*
X175265Y450926D01*
X175242Y450958D01*
X114561Y511639D01*
X114491Y511691D01*
X114427Y511751D01*
X114378Y511777D01*
X114334Y511810D01*
X114252Y511841D01*
X114174Y511881D01*
X114127Y511889D01*
X114068Y511911D01*
X113920Y511923D01*
X113843Y511936D01*
X99273Y511936D01*
X95912Y513328D01*
X93339Y515901D01*
X92506Y517914D01*
X92505Y517915D01*
X92505Y517916D01*
X92433Y518037D01*
X92361Y518158D01*
X92360Y518159D01*
X92359Y518161D01*
X92255Y518258D01*
X92155Y518354D01*
X92153Y518354D01*
X92152Y518355D01*
X92026Y518420D01*
X91902Y518484D01*
X91900Y518484D01*
X91899Y518485D01*
X91884Y518487D01*
X91623Y518539D01*
X91593Y518536D01*
X91568Y518540D01*
X60832Y518540D01*
X60831Y518540D01*
X60829Y518540D01*
X60689Y518520D01*
X60551Y518500D01*
X60549Y518500D01*
X60548Y518500D01*
X60422Y518443D01*
X60291Y518384D01*
X60290Y518383D01*
X60289Y518382D01*
X60181Y518291D01*
X60074Y518201D01*
X60073Y518199D01*
X60072Y518198D01*
X60064Y518185D01*
X59917Y517964D01*
X59907Y517935D01*
X59894Y517914D01*
X59061Y515901D01*
X56488Y513328D01*
X53127Y511936D01*
X34249Y511936D01*
X30888Y513328D01*
X28315Y515901D01*
X26923Y519262D01*
X26923Y522900D01*
X28315Y526261D01*
X30888Y528834D01*
X34249Y530226D01*
X53127Y530226D01*
X56488Y528834D01*
X59061Y526261D01*
X59894Y524248D01*
X59895Y524247D01*
X59895Y524246D01*
X59967Y524125D01*
X60039Y524004D01*
X60040Y524003D01*
X60041Y524001D01*
X60145Y523904D01*
X60245Y523808D01*
X60247Y523808D01*
X60248Y523807D01*
X60374Y523742D01*
X60498Y523678D01*
X60500Y523678D01*
X60501Y523677D01*
X60516Y523675D01*
X60777Y523623D01*
X60807Y523626D01*
X60832Y523622D01*
X91568Y523622D01*
X91569Y523622D01*
X91571Y523622D01*
X91711Y523642D01*
X91849Y523662D01*
X91851Y523662D01*
X91852Y523662D01*
X91978Y523719D01*
X92109Y523778D01*
X92110Y523779D01*
X92111Y523780D01*
X92219Y523871D01*
X92326Y523961D01*
X92327Y523963D01*
X92328Y523964D01*
X92336Y523977D01*
X92483Y524198D01*
X92493Y524227D01*
X92506Y524248D01*
X93339Y526261D01*
X95912Y528834D01*
X99273Y530226D01*
X118151Y530226D01*
X121512Y528834D01*
X124085Y526261D01*
X125477Y522900D01*
X125477Y519262D01*
X124085Y515901D01*
X121503Y513319D01*
X121468Y513272D01*
X121425Y513232D01*
X121383Y513159D01*
X121332Y513092D01*
X121311Y513037D01*
X121281Y512987D01*
X121261Y512905D01*
X121231Y512826D01*
X121226Y512768D01*
X121211Y512711D01*
X121214Y512627D01*
X121207Y512543D01*
X121219Y512486D01*
X121220Y512427D01*
X121246Y512347D01*
X121263Y512264D01*
X121290Y512212D01*
X121308Y512157D01*
X121348Y512101D01*
X121394Y512012D01*
X121463Y511940D01*
X121503Y511883D01*
X180215Y453171D01*
X182001Y451385D01*
X182001Y450240D01*
X182008Y450188D01*
X182007Y450165D01*
X182008Y450161D01*
X182007Y450124D01*
X182029Y450042D01*
X182041Y449958D01*
X182064Y449905D01*
X182079Y449849D01*
X182122Y449776D01*
X182157Y449699D01*
X182195Y449654D01*
X182224Y449604D01*
X182286Y449546D01*
X182340Y449482D01*
X182389Y449450D01*
X182432Y449410D01*
X182507Y449371D01*
X182577Y449324D01*
X182633Y449307D01*
X182685Y449280D01*
X182753Y449269D01*
X182848Y449239D01*
X182948Y449236D01*
X183016Y449225D01*
X199632Y449225D01*
X199676Y449180D01*
X199723Y449145D01*
X199763Y449103D01*
X199836Y449060D01*
X199903Y449009D01*
X199958Y448988D01*
X200008Y448959D01*
X200090Y448938D01*
X200169Y448908D01*
X200227Y448903D01*
X200284Y448889D01*
X200368Y448891D01*
X200452Y448884D01*
X200510Y448896D01*
X200568Y448898D01*
X200648Y448924D01*
X200731Y448940D01*
X200783Y448967D01*
X200839Y448985D01*
X200895Y449025D01*
X200983Y449071D01*
X201056Y449140D01*
X201112Y449180D01*
X211825Y459893D01*
X254788Y459893D01*
X254817Y459897D01*
X254846Y459894D01*
X254957Y459917D01*
X255070Y459933D01*
X255096Y459945D01*
X255125Y459950D01*
X255226Y460002D01*
X255329Y460049D01*
X255351Y460068D01*
X255377Y460081D01*
X255459Y460159D01*
X255546Y460232D01*
X255562Y460257D01*
X255584Y460277D01*
X255641Y460375D01*
X255704Y460469D01*
X255712Y460497D01*
X255727Y460522D01*
X255755Y460632D01*
X255789Y460740D01*
X255790Y460770D01*
X255797Y460798D01*
X255794Y460911D01*
X255797Y461024D01*
X255789Y461053D01*
X255788Y461082D01*
X255753Y461190D01*
X255725Y461299D01*
X255710Y461325D01*
X255701Y461353D01*
X255655Y461416D01*
X255580Y461544D01*
X255534Y461587D01*
X255506Y461626D01*
X209126Y508006D01*
X209079Y508041D01*
X209039Y508083D01*
X208966Y508126D01*
X208899Y508177D01*
X208844Y508198D01*
X208794Y508227D01*
X208712Y508248D01*
X208633Y508278D01*
X208575Y508283D01*
X208518Y508297D01*
X208434Y508294D01*
X208350Y508301D01*
X208293Y508290D01*
X208234Y508288D01*
X208154Y508262D01*
X208071Y508246D01*
X208019Y508219D01*
X207964Y508201D01*
X207907Y508161D01*
X207819Y508115D01*
X207747Y508046D01*
X207690Y508006D01*
X205160Y505475D01*
X201828Y504095D01*
X198222Y504095D01*
X194890Y505475D01*
X192340Y508025D01*
X191311Y510511D01*
X191257Y510601D01*
X191211Y510695D01*
X191185Y510723D01*
X191166Y510755D01*
X191090Y510828D01*
X191019Y510905D01*
X190987Y510925D01*
X190960Y510951D01*
X190866Y510999D01*
X190776Y511054D01*
X190740Y511064D01*
X190707Y511081D01*
X190604Y511101D01*
X190502Y511129D01*
X190465Y511129D01*
X190428Y511136D01*
X190323Y511127D01*
X190218Y511125D01*
X190182Y511115D01*
X190145Y511111D01*
X190047Y511074D01*
X189946Y511043D01*
X189914Y511023D01*
X189879Y511009D01*
X189796Y510946D01*
X189707Y510889D01*
X189686Y510863D01*
X189653Y510838D01*
X189533Y510677D01*
X189494Y510630D01*
X186034Y504637D01*
X181163Y499766D01*
X175198Y496322D01*
X168544Y494539D01*
X161656Y494539D01*
X155002Y496322D01*
X149037Y499766D01*
X144166Y504637D01*
X140722Y510602D01*
X138939Y517256D01*
X138939Y524144D01*
X140722Y530798D01*
X142765Y534336D01*
X142780Y534373D01*
X142802Y534405D01*
X142833Y534504D01*
X142871Y534600D01*
X142875Y534639D01*
X142887Y534676D01*
X142890Y534780D01*
X142900Y534883D01*
X142894Y534921D01*
X142895Y534961D01*
X142868Y535061D01*
X142850Y535163D01*
X142833Y535198D01*
X142823Y535236D01*
X142770Y535324D01*
X142724Y535417D01*
X142697Y535446D01*
X142677Y535480D01*
X142602Y535551D01*
X142532Y535627D01*
X142499Y535648D01*
X142470Y535674D01*
X142378Y535722D01*
X142290Y535776D01*
X142252Y535786D01*
X142217Y535804D01*
X142140Y535817D01*
X142015Y535851D01*
X141941Y535850D01*
X141886Y535859D01*
X23876Y535841D01*
X23818Y535833D01*
X23760Y535834D01*
X23678Y535813D01*
X23594Y535801D01*
X23541Y535777D01*
X23485Y535763D01*
X23412Y535719D01*
X23335Y535685D01*
X23290Y535647D01*
X23240Y535617D01*
X23182Y535556D01*
X23118Y535501D01*
X23086Y535453D01*
X23046Y535410D01*
X23007Y535335D01*
X22960Y535265D01*
X22943Y535209D01*
X22916Y535157D01*
X22905Y535089D01*
X22875Y534993D01*
X22872Y534894D01*
X22861Y534826D01*
X22861Y370459D01*
X22865Y370430D01*
X22862Y370401D01*
X22885Y370290D01*
X22901Y370178D01*
X22913Y370151D01*
X22918Y370122D01*
X22970Y370022D01*
X23017Y369918D01*
X23036Y369896D01*
X23049Y369870D01*
X23127Y369788D01*
X23200Y369701D01*
X23225Y369685D01*
X23245Y369664D01*
X23343Y369606D01*
X23437Y369544D01*
X23465Y369535D01*
X23490Y369520D01*
X23600Y369492D01*
X23708Y369458D01*
X23738Y369457D01*
X23766Y369450D01*
X23879Y369453D01*
X23992Y369451D01*
X24021Y369458D01*
X24050Y369459D01*
X24158Y369494D01*
X24267Y369522D01*
X24293Y369537D01*
X24321Y369546D01*
X24384Y369592D01*
X24512Y369668D01*
X24555Y369713D01*
X24594Y369741D01*
X28546Y373694D01*
X35589Y376611D01*
X43211Y376611D01*
X50254Y373694D01*
X55712Y368236D01*
X55722Y368218D01*
X55723Y368217D01*
X55724Y368215D01*
X55827Y368119D01*
X55929Y368023D01*
X55930Y368022D01*
X55932Y368021D01*
X56057Y367957D01*
X56181Y367892D01*
X56183Y367892D01*
X56185Y367891D01*
X56203Y367888D01*
X56460Y367837D01*
X56491Y367840D01*
X56516Y367836D01*
X57689Y367836D01*
X57776Y367848D01*
X57863Y367851D01*
X57916Y367868D01*
X57971Y367876D01*
X58050Y367911D01*
X58134Y367938D01*
X58173Y367966D01*
X58230Y367992D01*
X58343Y368088D01*
X58407Y368133D01*
X59696Y369422D01*
X66187Y372111D01*
X73213Y372111D01*
X79704Y369422D01*
X84672Y364454D01*
X87361Y357963D01*
X87361Y350937D01*
X84672Y344446D01*
X79704Y339478D01*
X78662Y339047D01*
X78661Y339046D01*
X78660Y339045D01*
X78539Y338974D01*
X78418Y338902D01*
X78417Y338901D01*
X78415Y338900D01*
X78316Y338794D01*
X78222Y338695D01*
X78222Y338694D01*
X78221Y338693D01*
X78155Y338564D01*
X78092Y338443D01*
X78092Y338441D01*
X78091Y338440D01*
X78089Y338425D01*
X78037Y338164D01*
X78040Y338133D01*
X78036Y338109D01*
X78036Y322291D01*
X78036Y322290D01*
X78036Y322288D01*
X78056Y322148D01*
X78076Y322010D01*
X78076Y322008D01*
X78076Y322007D01*
X78134Y321879D01*
X78192Y321751D01*
X78193Y321749D01*
X78194Y321748D01*
X78285Y321641D01*
X78375Y321534D01*
X78377Y321533D01*
X78378Y321531D01*
X78391Y321523D01*
X78612Y321376D01*
X78641Y321367D01*
X78662Y321353D01*
X79704Y320922D01*
X84672Y315954D01*
X87361Y309463D01*
X87361Y302437D01*
X84672Y295946D01*
X79704Y290978D01*
X73213Y288289D01*
X66187Y288289D01*
X59696Y290978D01*
X58407Y292267D01*
X58337Y292319D01*
X58273Y292379D01*
X58224Y292405D01*
X58180Y292438D01*
X58098Y292469D01*
X58020Y292509D01*
X57973Y292517D01*
X57914Y292539D01*
X57766Y292551D01*
X57689Y292564D01*
X56516Y292564D01*
X56514Y292564D01*
X56512Y292564D01*
X56369Y292544D01*
X56234Y292524D01*
X56233Y292524D01*
X56231Y292523D01*
X56096Y292463D01*
X55975Y292408D01*
X55974Y292407D01*
X55972Y292406D01*
X55864Y292314D01*
X55758Y292225D01*
X55757Y292223D01*
X55755Y292222D01*
X55746Y292207D01*
X55730Y292183D01*
X50254Y286706D01*
X43211Y283789D01*
X35589Y283789D01*
X28546Y286706D01*
X24594Y290659D01*
X24570Y290676D01*
X24551Y290699D01*
X24457Y290762D01*
X24367Y290830D01*
X24339Y290840D01*
X24315Y290856D01*
X24207Y290891D01*
X24101Y290931D01*
X24072Y290933D01*
X24044Y290942D01*
X23930Y290945D01*
X23818Y290954D01*
X23789Y290949D01*
X23760Y290949D01*
X23650Y290921D01*
X23539Y290899D01*
X23513Y290885D01*
X23485Y290878D01*
X23387Y290820D01*
X23287Y290768D01*
X23265Y290747D01*
X23240Y290732D01*
X23163Y290650D01*
X23081Y290572D01*
X23066Y290546D01*
X23046Y290525D01*
X22994Y290424D01*
X22937Y290326D01*
X22930Y290298D01*
X22916Y290272D01*
X22903Y290195D01*
X22867Y290051D01*
X22869Y289988D01*
X22861Y289941D01*
X22861Y23876D01*
X22869Y23818D01*
X22867Y23760D01*
X22889Y23678D01*
X22901Y23594D01*
X22924Y23541D01*
X22939Y23485D01*
X22982Y23412D01*
X23017Y23335D01*
X23055Y23290D01*
X23084Y23240D01*
X23146Y23182D01*
X23200Y23118D01*
X23249Y23086D01*
X23292Y23046D01*
X23367Y23007D01*
X23437Y22960D01*
X23493Y22943D01*
X23545Y22916D01*
X23613Y22905D01*
X23708Y22875D01*
X23808Y22872D01*
X23876Y22861D01*
X335136Y22861D01*
X335165Y22865D01*
G37*
G36*
X614565Y22865D02*
X614565Y22865D01*
X614594Y22862D01*
X614705Y22885D01*
X614817Y22901D01*
X614844Y22913D01*
X614873Y22918D01*
X614973Y22971D01*
X615077Y23017D01*
X615099Y23036D01*
X615125Y23049D01*
X615207Y23127D01*
X615294Y23200D01*
X615310Y23225D01*
X615331Y23245D01*
X615388Y23343D01*
X615451Y23437D01*
X615460Y23465D01*
X615475Y23490D01*
X615503Y23600D01*
X615537Y23708D01*
X615538Y23738D01*
X615545Y23766D01*
X615541Y23879D01*
X615544Y23992D01*
X615537Y24021D01*
X615536Y24050D01*
X615501Y24158D01*
X615472Y24267D01*
X615457Y24293D01*
X615448Y24321D01*
X615403Y24385D01*
X615327Y24512D01*
X615282Y24555D01*
X615254Y24594D01*
X614547Y25300D01*
X613155Y28661D01*
X613155Y47539D01*
X614547Y50900D01*
X617120Y53473D01*
X620481Y54865D01*
X624119Y54865D01*
X627480Y53473D01*
X630053Y50900D01*
X631445Y47539D01*
X631445Y28661D01*
X630053Y25300D01*
X629346Y24594D01*
X629329Y24570D01*
X629306Y24551D01*
X629244Y24457D01*
X629176Y24367D01*
X629165Y24339D01*
X629149Y24315D01*
X629115Y24207D01*
X629074Y24101D01*
X629072Y24072D01*
X629063Y24044D01*
X629060Y23930D01*
X629051Y23818D01*
X629057Y23789D01*
X629056Y23760D01*
X629084Y23650D01*
X629107Y23539D01*
X629120Y23513D01*
X629128Y23485D01*
X629185Y23387D01*
X629238Y23287D01*
X629258Y23265D01*
X629273Y23240D01*
X629355Y23163D01*
X629433Y23081D01*
X629459Y23066D01*
X629480Y23046D01*
X629581Y22994D01*
X629679Y22937D01*
X629707Y22930D01*
X629733Y22916D01*
X629811Y22903D01*
X629954Y22867D01*
X630017Y22869D01*
X630064Y22861D01*
X639936Y22861D01*
X639965Y22865D01*
X639994Y22862D01*
X640105Y22885D01*
X640217Y22901D01*
X640244Y22913D01*
X640273Y22918D01*
X640373Y22971D01*
X640477Y23017D01*
X640499Y23036D01*
X640525Y23049D01*
X640607Y23127D01*
X640694Y23200D01*
X640710Y23225D01*
X640731Y23245D01*
X640788Y23343D01*
X640851Y23437D01*
X640860Y23465D01*
X640875Y23490D01*
X640903Y23600D01*
X640937Y23708D01*
X640938Y23738D01*
X640945Y23766D01*
X640941Y23879D01*
X640944Y23992D01*
X640937Y24021D01*
X640936Y24050D01*
X640901Y24158D01*
X640872Y24267D01*
X640857Y24293D01*
X640848Y24321D01*
X640803Y24385D01*
X640727Y24512D01*
X640682Y24555D01*
X640654Y24594D01*
X639947Y25300D01*
X638555Y28661D01*
X638555Y47539D01*
X639947Y50900D01*
X642520Y53473D01*
X645881Y54865D01*
X649519Y54865D01*
X652880Y53473D01*
X655453Y50900D01*
X656845Y47539D01*
X656845Y28661D01*
X655453Y25300D01*
X654746Y24594D01*
X654729Y24570D01*
X654706Y24551D01*
X654644Y24457D01*
X654576Y24367D01*
X654565Y24339D01*
X654549Y24315D01*
X654515Y24207D01*
X654474Y24101D01*
X654472Y24072D01*
X654463Y24044D01*
X654460Y23930D01*
X654451Y23818D01*
X654457Y23789D01*
X654456Y23760D01*
X654484Y23650D01*
X654507Y23539D01*
X654520Y23513D01*
X654528Y23485D01*
X654585Y23387D01*
X654638Y23287D01*
X654658Y23265D01*
X654673Y23240D01*
X654755Y23163D01*
X654833Y23081D01*
X654859Y23066D01*
X654880Y23046D01*
X654981Y22994D01*
X655079Y22937D01*
X655107Y22930D01*
X655133Y22916D01*
X655211Y22903D01*
X655354Y22867D01*
X655417Y22869D01*
X655464Y22861D01*
X661924Y22861D01*
X661982Y22869D01*
X662040Y22867D01*
X662122Y22889D01*
X662206Y22901D01*
X662259Y22924D01*
X662315Y22939D01*
X662388Y22982D01*
X662465Y23017D01*
X662510Y23055D01*
X662560Y23084D01*
X662618Y23146D01*
X662682Y23200D01*
X662714Y23249D01*
X662754Y23292D01*
X662793Y23367D01*
X662840Y23437D01*
X662857Y23493D01*
X662884Y23545D01*
X662895Y23613D01*
X662925Y23708D01*
X662928Y23808D01*
X662939Y23876D01*
X662939Y38091D01*
X662939Y38093D01*
X662939Y38094D01*
X662934Y40109D01*
X663708Y41977D01*
X663708Y41978D01*
X663709Y41979D01*
X664477Y43846D01*
X665907Y45277D01*
X665908Y45278D01*
X665909Y45279D01*
X683075Y62529D01*
X683086Y62544D01*
X683100Y62555D01*
X683171Y62657D01*
X683245Y62757D01*
X683252Y62774D01*
X683262Y62789D01*
X683302Y62906D01*
X683346Y63023D01*
X683347Y63041D01*
X683353Y63058D01*
X683359Y63182D01*
X683369Y63306D01*
X683365Y63324D01*
X683366Y63342D01*
X683337Y63463D01*
X683312Y63585D01*
X683304Y63601D01*
X683299Y63619D01*
X683238Y63726D01*
X683180Y63837D01*
X683168Y63850D01*
X683159Y63866D01*
X683070Y63952D01*
X682984Y64042D01*
X682968Y64051D01*
X682955Y64064D01*
X682846Y64123D01*
X682738Y64185D01*
X682721Y64190D01*
X682705Y64199D01*
X682583Y64225D01*
X682463Y64255D01*
X682445Y64254D01*
X682427Y64258D01*
X682354Y64251D01*
X682179Y64245D01*
X682132Y64230D01*
X682092Y64226D01*
X676544Y62739D01*
X669656Y62739D01*
X663002Y64522D01*
X657037Y67966D01*
X652166Y72837D01*
X648722Y78802D01*
X646939Y85456D01*
X646939Y92344D01*
X648722Y98998D01*
X652166Y104963D01*
X657037Y109834D01*
X663002Y113278D01*
X669656Y115061D01*
X676544Y115061D01*
X683198Y113278D01*
X686710Y111250D01*
X686746Y111236D01*
X686778Y111214D01*
X686877Y111183D01*
X686974Y111144D01*
X687012Y111140D01*
X687049Y111128D01*
X687153Y111125D01*
X687256Y111115D01*
X687295Y111122D01*
X687334Y111121D01*
X687434Y111147D01*
X687536Y111165D01*
X687571Y111183D01*
X687609Y111192D01*
X687698Y111245D01*
X687791Y111291D01*
X687820Y111318D01*
X687853Y111338D01*
X687924Y111413D01*
X688001Y111483D01*
X688021Y111517D01*
X688048Y111545D01*
X688095Y111637D01*
X688149Y111726D01*
X688160Y111763D01*
X688177Y111798D01*
X688190Y111874D01*
X688225Y112000D01*
X688224Y112074D01*
X688233Y112129D01*
X688322Y345122D01*
X688316Y345161D01*
X688319Y345200D01*
X688297Y345301D01*
X688282Y345403D01*
X688266Y345439D01*
X688258Y345477D01*
X688208Y345568D01*
X688166Y345663D01*
X688141Y345693D01*
X688122Y345727D01*
X688049Y345801D01*
X687982Y345880D01*
X687950Y345901D01*
X687922Y345929D01*
X687832Y345980D01*
X687746Y346037D01*
X687709Y346049D01*
X687674Y346068D01*
X687573Y346092D01*
X687475Y346123D01*
X687436Y346124D01*
X687397Y346133D01*
X687294Y346128D01*
X687191Y346131D01*
X687153Y346121D01*
X687114Y346119D01*
X687041Y346092D01*
X686916Y346059D01*
X686851Y346021D01*
X686799Y346001D01*
X683198Y343922D01*
X676544Y342139D01*
X669656Y342139D01*
X663002Y343922D01*
X657037Y347366D01*
X652166Y352237D01*
X648722Y358202D01*
X646939Y364856D01*
X646939Y371744D01*
X648722Y378398D01*
X652166Y384363D01*
X657037Y389234D01*
X663002Y392678D01*
X669656Y394461D01*
X676544Y394461D01*
X677702Y394150D01*
X677724Y394148D01*
X677745Y394140D01*
X677865Y394131D01*
X677984Y394116D01*
X678006Y394120D01*
X678028Y394118D01*
X678146Y394142D01*
X678265Y394161D01*
X678285Y394171D01*
X678306Y394175D01*
X678413Y394231D01*
X678522Y394282D01*
X678539Y394297D01*
X678558Y394307D01*
X678645Y394391D01*
X678735Y394470D01*
X678747Y394489D01*
X678763Y394504D01*
X678824Y394609D01*
X678888Y394710D01*
X678895Y394731D01*
X678906Y394750D01*
X678935Y394867D01*
X678969Y394982D01*
X678969Y395005D01*
X678975Y395026D01*
X678970Y395146D01*
X678971Y395267D01*
X678965Y395288D01*
X678964Y395310D01*
X678926Y395425D01*
X678894Y395540D01*
X678882Y395559D01*
X678875Y395580D01*
X678831Y395642D01*
X678744Y395782D01*
X678704Y395818D01*
X678679Y395853D01*
X667385Y407036D01*
X667362Y407053D01*
X667343Y407075D01*
X667309Y407096D01*
X665807Y408599D01*
X665804Y408601D01*
X665803Y408602D01*
X664371Y410020D01*
X663598Y411887D01*
X663597Y411889D01*
X663596Y411892D01*
X662814Y413753D01*
X662814Y415770D01*
X662814Y415773D01*
X662814Y415775D01*
X662804Y417868D01*
X662808Y417886D01*
X662806Y417948D01*
X662814Y417994D01*
X662814Y525721D01*
X662802Y525807D01*
X662799Y525895D01*
X662782Y525947D01*
X662774Y526002D01*
X662739Y526082D01*
X662712Y526165D01*
X662684Y526205D01*
X662658Y526262D01*
X662562Y526375D01*
X662517Y526439D01*
X658578Y530378D01*
X658554Y530395D01*
X658535Y530418D01*
X658441Y530480D01*
X658351Y530549D01*
X658323Y530559D01*
X658299Y530575D01*
X658191Y530610D01*
X658085Y530650D01*
X658056Y530652D01*
X658028Y530661D01*
X657914Y530664D01*
X657802Y530673D01*
X657773Y530668D01*
X657744Y530668D01*
X657634Y530640D01*
X657523Y530617D01*
X657497Y530604D01*
X657469Y530597D01*
X657371Y530539D01*
X657271Y530486D01*
X657249Y530466D01*
X657224Y530451D01*
X657147Y530369D01*
X657065Y530291D01*
X657050Y530265D01*
X657030Y530244D01*
X656978Y530143D01*
X656921Y530045D01*
X656914Y530017D01*
X656900Y529991D01*
X656887Y529913D01*
X656851Y529770D01*
X656853Y529707D01*
X656845Y529660D01*
X656845Y511261D01*
X655453Y507900D01*
X652880Y505327D01*
X649519Y503935D01*
X645881Y503935D01*
X642520Y505327D01*
X639947Y507900D01*
X638555Y511261D01*
X638555Y530139D01*
X639947Y533500D01*
X640651Y534203D01*
X640668Y534227D01*
X640691Y534246D01*
X640754Y534340D01*
X640822Y534431D01*
X640832Y534458D01*
X640849Y534483D01*
X640883Y534591D01*
X640923Y534696D01*
X640925Y534726D01*
X640934Y534754D01*
X640937Y534867D01*
X640947Y534980D01*
X640941Y535008D01*
X640941Y535038D01*
X640913Y535147D01*
X640891Y535258D01*
X640877Y535285D01*
X640870Y535313D01*
X640812Y535410D01*
X640760Y535511D01*
X640739Y535532D01*
X640724Y535557D01*
X640642Y535635D01*
X640564Y535717D01*
X640538Y535732D01*
X640517Y535752D01*
X640416Y535803D01*
X640319Y535861D01*
X640290Y535868D01*
X640264Y535881D01*
X640186Y535894D01*
X640043Y535931D01*
X639981Y535929D01*
X639933Y535937D01*
X630068Y535935D01*
X630039Y535931D01*
X630010Y535933D01*
X629899Y535911D01*
X629787Y535895D01*
X629760Y535883D01*
X629732Y535878D01*
X629631Y535825D01*
X629528Y535779D01*
X629505Y535760D01*
X629479Y535747D01*
X629397Y535668D01*
X629311Y535595D01*
X629294Y535571D01*
X629273Y535551D01*
X629216Y535453D01*
X629153Y535359D01*
X629144Y535331D01*
X629129Y535305D01*
X629102Y535196D01*
X629067Y535088D01*
X629067Y535058D01*
X629059Y535030D01*
X629063Y534917D01*
X629060Y534803D01*
X629067Y534775D01*
X629068Y534746D01*
X629103Y534638D01*
X629132Y534528D01*
X629147Y534503D01*
X629156Y534475D01*
X629201Y534412D01*
X629277Y534284D01*
X629323Y534241D01*
X629351Y534202D01*
X630053Y533500D01*
X631445Y530139D01*
X631445Y511261D01*
X630053Y507900D01*
X627480Y505327D01*
X624119Y503935D01*
X620481Y503935D01*
X617120Y505327D01*
X614547Y507900D01*
X613155Y511261D01*
X613155Y530139D01*
X614547Y533500D01*
X615247Y534199D01*
X615265Y534223D01*
X615287Y534242D01*
X615350Y534336D01*
X615418Y534427D01*
X615428Y534454D01*
X615445Y534479D01*
X615479Y534587D01*
X615519Y534692D01*
X615521Y534722D01*
X615530Y534750D01*
X615533Y534863D01*
X615543Y534976D01*
X615537Y535004D01*
X615538Y535034D01*
X615509Y535143D01*
X615487Y535254D01*
X615473Y535281D01*
X615466Y535309D01*
X615408Y535406D01*
X615356Y535507D01*
X615335Y535528D01*
X615320Y535553D01*
X615238Y535631D01*
X615160Y535713D01*
X615135Y535728D01*
X615113Y535748D01*
X615012Y535799D01*
X614915Y535857D01*
X614886Y535864D01*
X614860Y535877D01*
X614782Y535890D01*
X614639Y535927D01*
X614577Y535925D01*
X614529Y535933D01*
X604672Y535931D01*
X604643Y535927D01*
X604614Y535929D01*
X604503Y535907D01*
X604391Y535891D01*
X604364Y535879D01*
X604335Y535874D01*
X604235Y535821D01*
X604131Y535775D01*
X604109Y535756D01*
X604083Y535743D01*
X604001Y535664D01*
X603915Y535591D01*
X603898Y535567D01*
X603877Y535547D01*
X603820Y535449D01*
X603757Y535355D01*
X603748Y535327D01*
X603733Y535301D01*
X603705Y535192D01*
X603671Y535084D01*
X603670Y535054D01*
X603663Y535026D01*
X603667Y534913D01*
X603664Y534799D01*
X603671Y534771D01*
X603672Y534742D01*
X603707Y534634D01*
X603736Y534524D01*
X603751Y534499D01*
X603760Y534471D01*
X603805Y534407D01*
X603881Y534280D01*
X603927Y534237D01*
X603955Y534198D01*
X604653Y533500D01*
X606045Y530139D01*
X606045Y511261D01*
X604653Y507900D01*
X602080Y505327D01*
X598719Y503935D01*
X595081Y503935D01*
X591720Y505327D01*
X589147Y507900D01*
X587755Y511261D01*
X587755Y530139D01*
X589147Y533500D01*
X589843Y534196D01*
X589861Y534219D01*
X589883Y534238D01*
X589946Y534332D01*
X590014Y534423D01*
X590024Y534450D01*
X590041Y534475D01*
X590075Y534583D01*
X590115Y534688D01*
X590118Y534718D01*
X590126Y534746D01*
X590129Y534859D01*
X590139Y534972D01*
X590133Y535001D01*
X590134Y535030D01*
X590105Y535139D01*
X590083Y535250D01*
X590069Y535277D01*
X590062Y535305D01*
X590004Y535402D01*
X589952Y535503D01*
X589932Y535524D01*
X589916Y535549D01*
X589834Y535627D01*
X589756Y535709D01*
X589731Y535724D01*
X589709Y535744D01*
X589608Y535795D01*
X589511Y535853D01*
X589482Y535860D01*
X589456Y535873D01*
X589379Y535886D01*
X589235Y535923D01*
X589173Y535921D01*
X589125Y535929D01*
X579276Y535927D01*
X579247Y535923D01*
X579218Y535925D01*
X579107Y535903D01*
X578995Y535887D01*
X578968Y535875D01*
X578939Y535870D01*
X578839Y535817D01*
X578735Y535771D01*
X578713Y535752D01*
X578687Y535739D01*
X578605Y535660D01*
X578518Y535587D01*
X578502Y535563D01*
X578481Y535543D01*
X578424Y535445D01*
X578361Y535351D01*
X578352Y535323D01*
X578337Y535298D01*
X578309Y535188D01*
X578275Y535080D01*
X578274Y535050D01*
X578267Y535022D01*
X578271Y534909D01*
X578268Y534795D01*
X578275Y534767D01*
X578276Y534738D01*
X578311Y534630D01*
X578340Y534520D01*
X578355Y534495D01*
X578364Y534467D01*
X578409Y534403D01*
X578485Y534276D01*
X578531Y534233D01*
X578559Y534194D01*
X579253Y533500D01*
X580645Y530139D01*
X580645Y511261D01*
X579253Y507900D01*
X576680Y505327D01*
X573319Y503935D01*
X569681Y503935D01*
X566320Y505327D01*
X563747Y507900D01*
X562355Y511261D01*
X562355Y530139D01*
X563747Y533500D01*
X564439Y534192D01*
X564457Y534215D01*
X564479Y534234D01*
X564542Y534328D01*
X564610Y534419D01*
X564620Y534446D01*
X564637Y534471D01*
X564671Y534579D01*
X564711Y534684D01*
X564714Y534714D01*
X564722Y534742D01*
X564725Y534855D01*
X564735Y534968D01*
X564729Y534997D01*
X564730Y535026D01*
X564701Y535135D01*
X564679Y535247D01*
X564665Y535273D01*
X564658Y535301D01*
X564600Y535398D01*
X564548Y535499D01*
X564528Y535520D01*
X564513Y535545D01*
X564430Y535623D01*
X564352Y535705D01*
X564327Y535720D01*
X564305Y535740D01*
X564204Y535791D01*
X564107Y535849D01*
X564078Y535856D01*
X564052Y535869D01*
X563975Y535882D01*
X563831Y535919D01*
X563769Y535917D01*
X563721Y535925D01*
X553880Y535923D01*
X553851Y535919D01*
X553822Y535922D01*
X553711Y535899D01*
X553599Y535883D01*
X553572Y535871D01*
X553543Y535866D01*
X553442Y535813D01*
X553339Y535767D01*
X553317Y535748D01*
X553291Y535735D01*
X553209Y535656D01*
X553122Y535583D01*
X553106Y535559D01*
X553085Y535539D01*
X553028Y535441D01*
X552965Y535347D01*
X552956Y535319D01*
X552941Y535294D01*
X552913Y535184D01*
X552879Y535076D01*
X552878Y535046D01*
X552871Y535018D01*
X552875Y534905D01*
X552872Y534791D01*
X552879Y534763D01*
X552880Y534734D01*
X552915Y534626D01*
X552944Y534516D01*
X552959Y534491D01*
X552968Y534463D01*
X553013Y534399D01*
X553089Y534272D01*
X553135Y534229D01*
X553163Y534190D01*
X553853Y533500D01*
X555245Y530139D01*
X555245Y511261D01*
X553853Y507900D01*
X551280Y505327D01*
X547919Y503935D01*
X544281Y503935D01*
X540920Y505327D01*
X538347Y507900D01*
X536955Y511261D01*
X536955Y530139D01*
X538347Y533500D01*
X539035Y534188D01*
X539053Y534211D01*
X539075Y534230D01*
X539138Y534324D01*
X539206Y534415D01*
X539216Y534442D01*
X539233Y534467D01*
X539267Y534575D01*
X539307Y534681D01*
X539310Y534710D01*
X539319Y534738D01*
X539321Y534851D01*
X539331Y534964D01*
X539325Y534993D01*
X539326Y535022D01*
X539297Y535131D01*
X539275Y535243D01*
X539261Y535269D01*
X539254Y535297D01*
X539196Y535394D01*
X539144Y535495D01*
X539124Y535516D01*
X539109Y535542D01*
X539026Y535619D01*
X538948Y535701D01*
X538923Y535716D01*
X538901Y535736D01*
X538800Y535788D01*
X538703Y535845D01*
X538674Y535852D01*
X538648Y535865D01*
X538571Y535878D01*
X538427Y535915D01*
X538365Y535913D01*
X538317Y535921D01*
X528484Y535919D01*
X528455Y535915D01*
X528426Y535918D01*
X528315Y535895D01*
X528203Y535879D01*
X528176Y535867D01*
X528147Y535862D01*
X528046Y535809D01*
X527943Y535763D01*
X527921Y535744D01*
X527895Y535731D01*
X527813Y535652D01*
X527726Y535579D01*
X527710Y535555D01*
X527689Y535535D01*
X527632Y535437D01*
X527569Y535343D01*
X527560Y535315D01*
X527545Y535290D01*
X527517Y535180D01*
X527483Y535072D01*
X527482Y535042D01*
X527475Y535014D01*
X527479Y534901D01*
X527476Y534788D01*
X527483Y534759D01*
X527484Y534730D01*
X527519Y534622D01*
X527548Y534512D01*
X527563Y534487D01*
X527572Y534459D01*
X527617Y534396D01*
X527693Y534268D01*
X527738Y534225D01*
X527766Y534186D01*
X528453Y533500D01*
X529845Y530139D01*
X529845Y511261D01*
X528453Y507900D01*
X525880Y505327D01*
X522519Y503935D01*
X518881Y503935D01*
X515520Y505327D01*
X512947Y507900D01*
X511555Y511261D01*
X511555Y530139D01*
X512947Y533500D01*
X513631Y534184D01*
X513649Y534207D01*
X513671Y534226D01*
X513734Y534320D01*
X513802Y534411D01*
X513813Y534438D01*
X513829Y534463D01*
X513863Y534571D01*
X513903Y534677D01*
X513906Y534706D01*
X513915Y534734D01*
X513917Y534847D01*
X513927Y534960D01*
X513921Y534989D01*
X513922Y535018D01*
X513893Y535128D01*
X513871Y535239D01*
X513857Y535265D01*
X513850Y535293D01*
X513792Y535390D01*
X513740Y535491D01*
X513720Y535512D01*
X513705Y535538D01*
X513622Y535615D01*
X513544Y535697D01*
X513519Y535712D01*
X513497Y535732D01*
X513396Y535784D01*
X513299Y535841D01*
X513270Y535848D01*
X513244Y535861D01*
X513167Y535874D01*
X513023Y535911D01*
X512961Y535909D01*
X512913Y535917D01*
X503088Y535915D01*
X503059Y535911D01*
X503030Y535914D01*
X502919Y535891D01*
X502807Y535876D01*
X502780Y535864D01*
X502751Y535858D01*
X502650Y535805D01*
X502547Y535759D01*
X502525Y535740D01*
X502499Y535727D01*
X502417Y535649D01*
X502330Y535575D01*
X502314Y535551D01*
X502293Y535531D01*
X502236Y535433D01*
X502173Y535339D01*
X502164Y535311D01*
X502149Y535286D01*
X502121Y535176D01*
X502087Y535068D01*
X502086Y535038D01*
X502079Y535010D01*
X502083Y534897D01*
X502080Y534784D01*
X502087Y534755D01*
X502088Y534726D01*
X502123Y534618D01*
X502152Y534509D01*
X502166Y534483D01*
X502176Y534456D01*
X502221Y534392D01*
X502297Y534264D01*
X502342Y534221D01*
X502370Y534182D01*
X503053Y533500D01*
X504445Y530139D01*
X504445Y511261D01*
X503053Y507900D01*
X500480Y505327D01*
X497119Y503935D01*
X493481Y503935D01*
X490120Y505327D01*
X487547Y507900D01*
X486155Y511261D01*
X486155Y530139D01*
X487547Y533500D01*
X488227Y534180D01*
X488245Y534203D01*
X488267Y534222D01*
X488330Y534317D01*
X488398Y534407D01*
X488409Y534434D01*
X488425Y534459D01*
X488459Y534567D01*
X488499Y534673D01*
X488502Y534702D01*
X488511Y534730D01*
X488513Y534843D01*
X488523Y534956D01*
X488517Y534985D01*
X488518Y535014D01*
X488489Y535124D01*
X488467Y535235D01*
X488453Y535261D01*
X488446Y535289D01*
X488388Y535387D01*
X488336Y535487D01*
X488316Y535508D01*
X488301Y535534D01*
X488218Y535611D01*
X488140Y535693D01*
X488115Y535708D01*
X488093Y535728D01*
X487993Y535780D01*
X487895Y535837D01*
X487866Y535844D01*
X487840Y535858D01*
X487763Y535871D01*
X487619Y535907D01*
X487557Y535905D01*
X487509Y535913D01*
X477692Y535911D01*
X477663Y535907D01*
X477634Y535910D01*
X477523Y535887D01*
X477411Y535872D01*
X477384Y535860D01*
X477355Y535854D01*
X477254Y535801D01*
X477151Y535755D01*
X477129Y535736D01*
X477103Y535723D01*
X477020Y535645D01*
X476934Y535572D01*
X476918Y535547D01*
X476897Y535527D01*
X476839Y535429D01*
X476777Y535335D01*
X476768Y535307D01*
X476753Y535282D01*
X476725Y535172D01*
X476691Y535064D01*
X476690Y535035D01*
X476683Y535006D01*
X476687Y534893D01*
X476684Y534780D01*
X476691Y534751D01*
X476692Y534722D01*
X476727Y534614D01*
X476756Y534505D01*
X476770Y534480D01*
X476779Y534452D01*
X476825Y534388D01*
X476901Y534260D01*
X476946Y534218D01*
X476974Y534178D01*
X477653Y533500D01*
X479045Y530139D01*
X479045Y511261D01*
X477653Y507900D01*
X475080Y505327D01*
X471719Y503935D01*
X468081Y503935D01*
X464720Y505327D01*
X462147Y507900D01*
X460755Y511261D01*
X460755Y530139D01*
X462147Y533500D01*
X462823Y534176D01*
X462841Y534199D01*
X462863Y534218D01*
X462926Y534313D01*
X462994Y534403D01*
X463005Y534430D01*
X463021Y534455D01*
X463055Y534563D01*
X463095Y534669D01*
X463098Y534698D01*
X463107Y534726D01*
X463110Y534839D01*
X463119Y534952D01*
X463113Y534981D01*
X463114Y535010D01*
X463085Y535120D01*
X463063Y535231D01*
X463049Y535257D01*
X463042Y535285D01*
X462984Y535383D01*
X462932Y535483D01*
X462912Y535504D01*
X462897Y535530D01*
X462814Y535607D01*
X462736Y535689D01*
X462711Y535704D01*
X462689Y535724D01*
X462589Y535776D01*
X462491Y535833D01*
X462463Y535840D01*
X462436Y535854D01*
X462359Y535867D01*
X462215Y535903D01*
X462153Y535901D01*
X462105Y535909D01*
X437058Y535905D01*
X437029Y535901D01*
X437000Y535903D01*
X436889Y535881D01*
X436777Y535865D01*
X436750Y535853D01*
X436721Y535848D01*
X436621Y535795D01*
X436517Y535749D01*
X436495Y535730D01*
X436469Y535717D01*
X436387Y535638D01*
X436301Y535565D01*
X436284Y535541D01*
X436263Y535521D01*
X436206Y535423D01*
X436143Y535329D01*
X436134Y535301D01*
X436119Y535275D01*
X436091Y535166D01*
X436057Y535058D01*
X436056Y535028D01*
X436049Y535000D01*
X436053Y534887D01*
X436050Y534773D01*
X436057Y534745D01*
X436058Y534716D01*
X436093Y534608D01*
X436122Y534498D01*
X436137Y534473D01*
X436146Y534445D01*
X436191Y534381D01*
X436267Y534254D01*
X436313Y534211D01*
X436341Y534172D01*
X437013Y533500D01*
X438405Y530139D01*
X438405Y511261D01*
X437013Y507900D01*
X434440Y505327D01*
X431079Y503935D01*
X427441Y503935D01*
X424080Y505327D01*
X421507Y507900D01*
X420115Y511261D01*
X420115Y530139D01*
X421507Y533500D01*
X422177Y534170D01*
X422195Y534193D01*
X422217Y534212D01*
X422280Y534306D01*
X422348Y534397D01*
X422358Y534424D01*
X422375Y534449D01*
X422409Y534557D01*
X422449Y534662D01*
X422452Y534692D01*
X422460Y534720D01*
X422463Y534833D01*
X422473Y534946D01*
X422467Y534975D01*
X422468Y535004D01*
X422439Y535113D01*
X422417Y535224D01*
X422403Y535251D01*
X422396Y535279D01*
X422338Y535376D01*
X422286Y535477D01*
X422266Y535498D01*
X422250Y535523D01*
X422168Y535601D01*
X422090Y535683D01*
X422065Y535698D01*
X422043Y535718D01*
X421942Y535769D01*
X421845Y535827D01*
X421816Y535834D01*
X421790Y535847D01*
X421713Y535860D01*
X421569Y535897D01*
X421507Y535895D01*
X421459Y535903D01*
X411662Y535901D01*
X411633Y535897D01*
X411604Y535899D01*
X411493Y535877D01*
X411381Y535861D01*
X411354Y535849D01*
X411325Y535844D01*
X411225Y535791D01*
X411121Y535745D01*
X411099Y535726D01*
X411073Y535713D01*
X410991Y535634D01*
X410904Y535561D01*
X410888Y535537D01*
X410867Y535517D01*
X410810Y535419D01*
X410747Y535325D01*
X410738Y535297D01*
X410723Y535272D01*
X410695Y535162D01*
X410661Y535054D01*
X410660Y535024D01*
X410653Y534996D01*
X410657Y534883D01*
X410654Y534769D01*
X410661Y534741D01*
X410662Y534712D01*
X410697Y534604D01*
X410726Y534494D01*
X410741Y534469D01*
X410750Y534441D01*
X410795Y534377D01*
X410871Y534250D01*
X410917Y534207D01*
X410945Y534168D01*
X411613Y533500D01*
X413005Y530139D01*
X413005Y511261D01*
X411613Y507900D01*
X409040Y505327D01*
X405679Y503935D01*
X402041Y503935D01*
X398680Y505327D01*
X396107Y507900D01*
X394715Y511261D01*
X394715Y530139D01*
X396107Y533500D01*
X396773Y534166D01*
X396791Y534189D01*
X396813Y534208D01*
X396876Y534303D01*
X396944Y534393D01*
X396954Y534420D01*
X396971Y534445D01*
X397005Y534553D01*
X397045Y534658D01*
X397048Y534688D01*
X397056Y534716D01*
X397059Y534829D01*
X397069Y534942D01*
X397063Y534971D01*
X397064Y535000D01*
X397035Y535109D01*
X397013Y535221D01*
X396999Y535247D01*
X396992Y535275D01*
X396934Y535372D01*
X396882Y535473D01*
X396862Y535494D01*
X396847Y535519D01*
X396764Y535597D01*
X396686Y535679D01*
X396661Y535694D01*
X396639Y535714D01*
X396538Y535765D01*
X396441Y535823D01*
X396412Y535830D01*
X396386Y535843D01*
X396308Y535856D01*
X396165Y535893D01*
X396103Y535891D01*
X396055Y535899D01*
X386266Y535897D01*
X386237Y535893D01*
X386208Y535896D01*
X386097Y535873D01*
X385985Y535857D01*
X385958Y535845D01*
X385929Y535840D01*
X385829Y535787D01*
X385725Y535741D01*
X385703Y535722D01*
X385677Y535709D01*
X385595Y535630D01*
X385508Y535557D01*
X385492Y535533D01*
X385471Y535513D01*
X385414Y535415D01*
X385351Y535321D01*
X385342Y535293D01*
X385327Y535268D01*
X385299Y535158D01*
X385265Y535050D01*
X385264Y535020D01*
X385257Y534992D01*
X385261Y534879D01*
X385258Y534765D01*
X385265Y534737D01*
X385266Y534708D01*
X385301Y534600D01*
X385330Y534490D01*
X385345Y534465D01*
X385354Y534437D01*
X385399Y534373D01*
X385475Y534246D01*
X385521Y534203D01*
X385549Y534164D01*
X386213Y533500D01*
X387605Y530139D01*
X387605Y511261D01*
X386213Y507900D01*
X383640Y505327D01*
X380279Y503935D01*
X376641Y503935D01*
X373280Y505327D01*
X370707Y507900D01*
X369315Y511261D01*
X369315Y530139D01*
X370707Y533500D01*
X371369Y534162D01*
X371387Y534185D01*
X371409Y534204D01*
X371472Y534299D01*
X371540Y534389D01*
X371550Y534416D01*
X371567Y534441D01*
X371601Y534549D01*
X371641Y534655D01*
X371644Y534684D01*
X371652Y534712D01*
X371655Y534825D01*
X371665Y534938D01*
X371659Y534967D01*
X371660Y534996D01*
X371631Y535105D01*
X371609Y535217D01*
X371595Y535243D01*
X371588Y535271D01*
X371530Y535368D01*
X371478Y535469D01*
X371458Y535490D01*
X371443Y535516D01*
X371360Y535593D01*
X371282Y535675D01*
X371257Y535690D01*
X371235Y535710D01*
X371135Y535761D01*
X371037Y535819D01*
X371008Y535826D01*
X370982Y535839D01*
X370905Y535852D01*
X370761Y535889D01*
X370699Y535887D01*
X370651Y535895D01*
X360870Y535893D01*
X360841Y535889D01*
X360812Y535892D01*
X360701Y535869D01*
X360589Y535853D01*
X360562Y535841D01*
X360533Y535836D01*
X360433Y535783D01*
X360329Y535737D01*
X360307Y535718D01*
X360281Y535705D01*
X360199Y535626D01*
X360112Y535553D01*
X360096Y535529D01*
X360075Y535509D01*
X360018Y535411D01*
X359955Y535317D01*
X359946Y535289D01*
X359931Y535264D01*
X359903Y535154D01*
X359869Y535046D01*
X359868Y535016D01*
X359861Y534988D01*
X359865Y534875D01*
X359862Y534762D01*
X359869Y534733D01*
X359870Y534704D01*
X359905Y534596D01*
X359934Y534486D01*
X359949Y534461D01*
X359958Y534433D01*
X360003Y534370D01*
X360079Y534242D01*
X360124Y534199D01*
X360152Y534160D01*
X360813Y533500D01*
X362205Y530139D01*
X362205Y511261D01*
X360813Y507900D01*
X358240Y505327D01*
X354879Y503935D01*
X351241Y503935D01*
X347880Y505327D01*
X345307Y507900D01*
X343915Y511261D01*
X343915Y530139D01*
X345307Y533500D01*
X345965Y534158D01*
X345983Y534181D01*
X346005Y534200D01*
X346068Y534294D01*
X346136Y534385D01*
X346146Y534412D01*
X346163Y534437D01*
X346197Y534545D01*
X346237Y534651D01*
X346240Y534680D01*
X346249Y534708D01*
X346251Y534821D01*
X346261Y534934D01*
X346255Y534963D01*
X346256Y534992D01*
X346227Y535102D01*
X346205Y535213D01*
X346191Y535239D01*
X346184Y535267D01*
X346126Y535364D01*
X346074Y535465D01*
X346054Y535486D01*
X346039Y535512D01*
X345956Y535589D01*
X345878Y535671D01*
X345853Y535686D01*
X345831Y535706D01*
X345730Y535758D01*
X345633Y535815D01*
X345604Y535822D01*
X345578Y535835D01*
X345501Y535848D01*
X345357Y535885D01*
X345295Y535883D01*
X345247Y535891D01*
X335474Y535889D01*
X335445Y535885D01*
X335416Y535888D01*
X335305Y535865D01*
X335193Y535850D01*
X335166Y535838D01*
X335137Y535832D01*
X335036Y535779D01*
X334933Y535733D01*
X334911Y535714D01*
X334885Y535701D01*
X334803Y535623D01*
X334716Y535549D01*
X334700Y535525D01*
X334679Y535505D01*
X334622Y535407D01*
X334559Y535313D01*
X334550Y535285D01*
X334535Y535260D01*
X334507Y535150D01*
X334473Y535042D01*
X334472Y535012D01*
X334465Y534984D01*
X334469Y534871D01*
X334466Y534758D01*
X334473Y534729D01*
X334474Y534700D01*
X334509Y534592D01*
X334538Y534483D01*
X334552Y534457D01*
X334562Y534430D01*
X334607Y534366D01*
X334683Y534238D01*
X334728Y534195D01*
X334756Y534156D01*
X335413Y533500D01*
X336805Y530139D01*
X336805Y511261D01*
X335413Y507900D01*
X332840Y505327D01*
X329479Y503935D01*
X325841Y503935D01*
X322480Y505327D01*
X319907Y507900D01*
X318515Y511261D01*
X318515Y530139D01*
X319907Y533500D01*
X320561Y534154D01*
X320579Y534177D01*
X320601Y534196D01*
X320664Y534290D01*
X320732Y534381D01*
X320743Y534408D01*
X320759Y534433D01*
X320793Y534541D01*
X320833Y534647D01*
X320836Y534676D01*
X320845Y534704D01*
X320847Y534817D01*
X320857Y534930D01*
X320851Y534959D01*
X320852Y534988D01*
X320823Y535098D01*
X320801Y535209D01*
X320787Y535235D01*
X320780Y535263D01*
X320722Y535360D01*
X320670Y535461D01*
X320650Y535482D01*
X320635Y535508D01*
X320552Y535585D01*
X320474Y535667D01*
X320449Y535682D01*
X320427Y535702D01*
X320327Y535754D01*
X320229Y535811D01*
X320200Y535818D01*
X320174Y535831D01*
X320097Y535844D01*
X319953Y535881D01*
X319891Y535879D01*
X319843Y535887D01*
X310078Y535885D01*
X310049Y535881D01*
X310020Y535884D01*
X309909Y535861D01*
X309797Y535846D01*
X309770Y535834D01*
X309741Y535828D01*
X309640Y535775D01*
X309537Y535729D01*
X309515Y535710D01*
X309489Y535697D01*
X309406Y535619D01*
X309320Y535546D01*
X309304Y535521D01*
X309283Y535501D01*
X309225Y535403D01*
X309163Y535309D01*
X309154Y535281D01*
X309139Y535256D01*
X309111Y535146D01*
X309077Y535038D01*
X309076Y535009D01*
X309069Y534980D01*
X309073Y534867D01*
X309070Y534754D01*
X309077Y534725D01*
X309078Y534696D01*
X309113Y534588D01*
X309142Y534479D01*
X309156Y534454D01*
X309165Y534426D01*
X309211Y534362D01*
X309287Y534234D01*
X309332Y534192D01*
X309360Y534152D01*
X310013Y533500D01*
X311405Y530139D01*
X311405Y511261D01*
X310013Y507900D01*
X307440Y505327D01*
X304079Y503935D01*
X300441Y503935D01*
X297080Y505327D01*
X294507Y507900D01*
X293115Y511261D01*
X293115Y530139D01*
X294507Y533500D01*
X295157Y534150D01*
X295175Y534173D01*
X295197Y534192D01*
X295260Y534286D01*
X295328Y534377D01*
X295339Y534404D01*
X295355Y534429D01*
X295389Y534537D01*
X295429Y534643D01*
X295432Y534672D01*
X295441Y534700D01*
X295444Y534813D01*
X295453Y534926D01*
X295447Y534955D01*
X295448Y534984D01*
X295419Y535094D01*
X295397Y535205D01*
X295383Y535231D01*
X295376Y535259D01*
X295318Y535356D01*
X295266Y535457D01*
X295246Y535478D01*
X295231Y535504D01*
X295148Y535581D01*
X295070Y535663D01*
X295045Y535678D01*
X295023Y535698D01*
X294923Y535750D01*
X294825Y535807D01*
X294797Y535814D01*
X294770Y535828D01*
X294693Y535841D01*
X294549Y535877D01*
X294487Y535875D01*
X294439Y535883D01*
X285918Y535882D01*
X285827Y535869D01*
X285735Y535865D01*
X285687Y535849D01*
X285636Y535842D01*
X285553Y535804D01*
X285465Y535775D01*
X285423Y535746D01*
X285377Y535725D01*
X285307Y535666D01*
X285231Y535614D01*
X285199Y535575D01*
X285160Y535542D01*
X285109Y535465D01*
X285051Y535394D01*
X285031Y535348D01*
X285002Y535305D01*
X284975Y535217D01*
X284938Y535133D01*
X284932Y535083D01*
X284917Y535034D01*
X284914Y534942D01*
X284903Y534851D01*
X284911Y534801D01*
X284909Y534750D01*
X284933Y534661D01*
X284947Y534570D01*
X284967Y534530D01*
X284981Y534475D01*
X285062Y534339D01*
X285097Y534270D01*
X285550Y533645D01*
X286276Y532220D01*
X286771Y530699D01*
X287021Y529120D01*
X287021Y522731D01*
X277876Y522731D01*
X277818Y522723D01*
X277760Y522725D01*
X277678Y522703D01*
X277595Y522691D01*
X277541Y522667D01*
X277485Y522653D01*
X277412Y522610D01*
X277335Y522575D01*
X277291Y522537D01*
X277240Y522507D01*
X277183Y522446D01*
X277118Y522391D01*
X277086Y522343D01*
X277046Y522300D01*
X277007Y522225D01*
X276961Y522155D01*
X276943Y522099D01*
X276916Y522047D01*
X276905Y521979D01*
X276875Y521884D01*
X276872Y521784D01*
X276861Y521716D01*
X276861Y520699D01*
X276859Y520699D01*
X276859Y521716D01*
X276851Y521774D01*
X276852Y521832D01*
X276831Y521914D01*
X276819Y521997D01*
X276795Y522051D01*
X276781Y522107D01*
X276738Y522180D01*
X276703Y522257D01*
X276665Y522302D01*
X276635Y522352D01*
X276574Y522410D01*
X276519Y522474D01*
X276471Y522506D01*
X276428Y522546D01*
X276353Y522585D01*
X276283Y522631D01*
X276227Y522649D01*
X276175Y522676D01*
X276107Y522687D01*
X276012Y522717D01*
X275912Y522720D01*
X275844Y522731D01*
X266699Y522731D01*
X266699Y529120D01*
X266949Y530699D01*
X267444Y532220D01*
X268170Y533645D01*
X268621Y534267D01*
X268664Y534348D01*
X268716Y534425D01*
X268731Y534473D01*
X268755Y534518D01*
X268773Y534608D01*
X268801Y534696D01*
X268803Y534747D01*
X268813Y534796D01*
X268806Y534888D01*
X268808Y534980D01*
X268796Y535029D01*
X268792Y535080D01*
X268760Y535166D01*
X268737Y535255D01*
X268711Y535299D01*
X268693Y535346D01*
X268638Y535421D01*
X268591Y535500D01*
X268554Y535534D01*
X268524Y535575D01*
X268451Y535631D01*
X268384Y535694D01*
X268339Y535717D01*
X268299Y535748D01*
X268213Y535782D01*
X268131Y535823D01*
X268087Y535831D01*
X268034Y535852D01*
X267876Y535866D01*
X267800Y535879D01*
X259286Y535878D01*
X259257Y535873D01*
X259228Y535876D01*
X259117Y535854D01*
X259004Y535838D01*
X258978Y535826D01*
X258949Y535820D01*
X258848Y535768D01*
X258745Y535721D01*
X258723Y535703D01*
X258697Y535689D01*
X258614Y535611D01*
X258528Y535538D01*
X258512Y535513D01*
X258491Y535493D01*
X258433Y535395D01*
X258371Y535301D01*
X258362Y535273D01*
X258347Y535248D01*
X258319Y535138D01*
X258285Y535030D01*
X258284Y535001D01*
X258277Y534972D01*
X258280Y534859D01*
X258278Y534746D01*
X258285Y534718D01*
X258286Y534688D01*
X258321Y534580D01*
X258349Y534471D01*
X258364Y534446D01*
X258373Y534418D01*
X258419Y534354D01*
X258495Y534226D01*
X258540Y534184D01*
X258568Y534144D01*
X259213Y533500D01*
X260605Y530139D01*
X260605Y511261D01*
X259213Y507900D01*
X256640Y505327D01*
X253279Y503935D01*
X249641Y503935D01*
X247770Y504710D01*
X247687Y504732D01*
X247607Y504762D01*
X247550Y504767D01*
X247495Y504781D01*
X247409Y504779D01*
X247323Y504786D01*
X247268Y504775D01*
X247211Y504773D01*
X247129Y504747D01*
X247045Y504730D01*
X246994Y504704D01*
X246940Y504686D01*
X246869Y504638D01*
X246792Y504599D01*
X246751Y504560D01*
X246704Y504528D01*
X246649Y504462D01*
X246586Y504403D01*
X246557Y504354D01*
X246521Y504310D01*
X246486Y504232D01*
X246443Y504158D01*
X246429Y504103D01*
X246405Y504051D01*
X246394Y503965D01*
X246372Y503882D01*
X246374Y503826D01*
X246366Y503769D01*
X246379Y503684D01*
X246382Y503598D01*
X246399Y503544D01*
X246407Y503488D01*
X246443Y503409D01*
X246469Y503328D01*
X246498Y503287D01*
X246524Y503229D01*
X246618Y503118D01*
X246664Y503054D01*
X282416Y467302D01*
X282486Y467250D01*
X282550Y467190D01*
X282599Y467164D01*
X282643Y467131D01*
X282725Y467100D01*
X282803Y467060D01*
X282850Y467052D01*
X282909Y467030D01*
X283057Y467018D01*
X283134Y467005D01*
X390081Y467005D01*
X391866Y465219D01*
X405276Y451809D01*
X407281Y449805D01*
X407281Y448988D01*
X407285Y448959D01*
X407282Y448930D01*
X407305Y448819D01*
X407321Y448707D01*
X407333Y448680D01*
X407338Y448651D01*
X407391Y448550D01*
X407437Y448447D01*
X407456Y448425D01*
X407469Y448399D01*
X407547Y448317D01*
X407620Y448230D01*
X407645Y448214D01*
X407665Y448193D01*
X407763Y448135D01*
X407857Y448073D01*
X407885Y448064D01*
X407910Y448049D01*
X408020Y448021D01*
X408128Y447987D01*
X408158Y447986D01*
X408186Y447979D01*
X408299Y447982D01*
X408412Y447979D01*
X408441Y447987D01*
X408470Y447988D01*
X408578Y448023D01*
X408687Y448051D01*
X408713Y448066D01*
X408741Y448075D01*
X408805Y448121D01*
X408932Y448197D01*
X408975Y448242D01*
X409014Y448270D01*
X409968Y449225D01*
X428232Y449225D01*
X429125Y448332D01*
X429125Y413089D01*
X429137Y413002D01*
X429140Y412915D01*
X429157Y412862D01*
X429165Y412807D01*
X429200Y412728D01*
X429227Y412644D01*
X429255Y412605D01*
X429281Y412548D01*
X429377Y412435D01*
X429422Y412371D01*
X507892Y333901D01*
X507916Y333883D01*
X507935Y333861D01*
X508029Y333798D01*
X508119Y333730D01*
X508147Y333720D01*
X508171Y333703D01*
X508279Y333669D01*
X508385Y333629D01*
X508414Y333626D01*
X508442Y333618D01*
X508556Y333615D01*
X508668Y333605D01*
X508697Y333611D01*
X508726Y333610D01*
X508836Y333639D01*
X508947Y333661D01*
X508973Y333675D01*
X509001Y333682D01*
X509099Y333740D01*
X509199Y333792D01*
X509221Y333812D01*
X509246Y333827D01*
X509323Y333910D01*
X509405Y333988D01*
X509420Y334013D01*
X509440Y334035D01*
X509492Y334136D01*
X509549Y334233D01*
X509556Y334262D01*
X509570Y334288D01*
X509583Y334365D01*
X509619Y334509D01*
X509617Y334571D01*
X509625Y334619D01*
X509625Y339332D01*
X510518Y340225D01*
X546782Y340225D01*
X547675Y339332D01*
X547675Y321068D01*
X546782Y320175D01*
X511876Y320175D01*
X511818Y320167D01*
X511760Y320169D01*
X511678Y320147D01*
X511594Y320135D01*
X511541Y320112D01*
X511485Y320097D01*
X511412Y320054D01*
X511335Y320019D01*
X511290Y319981D01*
X511240Y319952D01*
X511182Y319890D01*
X511118Y319836D01*
X511086Y319787D01*
X511046Y319744D01*
X511007Y319669D01*
X510960Y319599D01*
X510943Y319543D01*
X510916Y319491D01*
X510905Y319423D01*
X510875Y319328D01*
X510872Y319228D01*
X510861Y319160D01*
X510861Y315840D01*
X510869Y315782D01*
X510867Y315724D01*
X510889Y315642D01*
X510901Y315558D01*
X510924Y315505D01*
X510939Y315449D01*
X510982Y315376D01*
X511017Y315299D01*
X511055Y315254D01*
X511084Y315204D01*
X511146Y315146D01*
X511200Y315082D01*
X511249Y315050D01*
X511292Y315010D01*
X511367Y314971D01*
X511437Y314924D01*
X511493Y314907D01*
X511545Y314880D01*
X511613Y314869D01*
X511708Y314839D01*
X511808Y314836D01*
X511876Y314825D01*
X546782Y314825D01*
X547675Y313932D01*
X547675Y295668D01*
X546782Y294775D01*
X511876Y294775D01*
X511818Y294767D01*
X511760Y294769D01*
X511678Y294747D01*
X511594Y294735D01*
X511541Y294712D01*
X511485Y294697D01*
X511412Y294654D01*
X511335Y294619D01*
X511290Y294581D01*
X511240Y294552D01*
X511182Y294490D01*
X511118Y294436D01*
X511086Y294387D01*
X511046Y294344D01*
X511007Y294269D01*
X510960Y294199D01*
X510943Y294143D01*
X510916Y294091D01*
X510905Y294023D01*
X510875Y293928D01*
X510872Y293828D01*
X510861Y293760D01*
X510861Y293489D01*
X510873Y293403D01*
X510876Y293315D01*
X510893Y293263D01*
X510901Y293208D01*
X510936Y293128D01*
X510963Y293045D01*
X510991Y293006D01*
X511017Y292949D01*
X511113Y292835D01*
X511158Y292772D01*
X559352Y244578D01*
X559376Y244560D01*
X559395Y244538D01*
X559489Y244475D01*
X559579Y244407D01*
X559607Y244396D01*
X559631Y244380D01*
X559739Y244346D01*
X559845Y244305D01*
X559874Y244303D01*
X559902Y244294D01*
X560016Y244291D01*
X560128Y244282D01*
X560157Y244288D01*
X560186Y244287D01*
X560296Y244315D01*
X560407Y244338D01*
X560433Y244351D01*
X560461Y244359D01*
X560559Y244417D01*
X560659Y244469D01*
X560681Y244489D01*
X560706Y244504D01*
X560783Y244587D01*
X560865Y244665D01*
X560880Y244690D01*
X560900Y244711D01*
X560952Y244812D01*
X561009Y244910D01*
X561016Y244938D01*
X561030Y244964D01*
X561043Y245042D01*
X561079Y245185D01*
X561077Y245248D01*
X561085Y245295D01*
X561085Y246294D01*
X562477Y249655D01*
X565050Y252228D01*
X567087Y253071D01*
X567186Y253130D01*
X567288Y253183D01*
X567308Y253202D01*
X567332Y253216D01*
X567410Y253299D01*
X567494Y253378D01*
X567508Y253402D01*
X567527Y253422D01*
X567579Y253524D01*
X567638Y253624D01*
X567644Y253650D01*
X567657Y253675D01*
X567679Y253788D01*
X567708Y253899D01*
X567707Y253927D01*
X567712Y253954D01*
X567702Y254068D01*
X567699Y254183D01*
X567690Y254210D01*
X567688Y254237D01*
X567646Y254345D01*
X567611Y254454D01*
X567597Y254474D01*
X567586Y254503D01*
X567424Y254716D01*
X567416Y254727D01*
X567414Y254729D01*
X550417Y271726D01*
X550417Y353619D01*
X550405Y353706D01*
X550402Y353793D01*
X550385Y353846D01*
X550377Y353901D01*
X550342Y353980D01*
X550315Y354064D01*
X550287Y354103D01*
X550261Y354160D01*
X550165Y354273D01*
X550120Y354337D01*
X549408Y355049D01*
X549384Y355067D01*
X549365Y355089D01*
X549271Y355152D01*
X549181Y355220D01*
X549153Y355230D01*
X549129Y355247D01*
X549021Y355281D01*
X548915Y355321D01*
X548886Y355324D01*
X548858Y355332D01*
X548744Y355335D01*
X548632Y355345D01*
X548603Y355339D01*
X548574Y355340D01*
X548464Y355311D01*
X548353Y355289D01*
X548327Y355275D01*
X548299Y355268D01*
X548201Y355210D01*
X548101Y355158D01*
X548079Y355138D01*
X548054Y355123D01*
X547977Y355040D01*
X547895Y354962D01*
X547880Y354937D01*
X547860Y354915D01*
X547808Y354814D01*
X547751Y354717D01*
X547744Y354688D01*
X547730Y354662D01*
X547717Y354585D01*
X547681Y354441D01*
X547683Y354379D01*
X547675Y354331D01*
X547675Y346468D01*
X546782Y345575D01*
X510518Y345575D01*
X509625Y346468D01*
X509625Y352895D01*
X509621Y352926D01*
X509623Y352956D01*
X509606Y353033D01*
X509585Y353176D01*
X509559Y353235D01*
X509548Y353283D01*
X509335Y353797D01*
X509335Y357403D01*
X509548Y357917D01*
X509556Y357947D01*
X509570Y357974D01*
X509583Y358052D01*
X509619Y358192D01*
X509617Y358256D01*
X509625Y358305D01*
X509625Y364732D01*
X510518Y365625D01*
X542173Y365625D01*
X542202Y365629D01*
X542232Y365626D01*
X542343Y365649D01*
X542455Y365665D01*
X542481Y365677D01*
X542510Y365682D01*
X542611Y365734D01*
X542714Y365781D01*
X542737Y365800D01*
X542763Y365813D01*
X542845Y365891D01*
X542931Y365964D01*
X542947Y365989D01*
X542969Y366009D01*
X543026Y366107D01*
X543089Y366201D01*
X543098Y366229D01*
X543112Y366254D01*
X543140Y366364D01*
X543175Y366472D01*
X543175Y366502D01*
X543182Y366530D01*
X543179Y366643D01*
X543182Y366756D01*
X543174Y366785D01*
X543173Y366814D01*
X543139Y366922D01*
X543110Y367031D01*
X543095Y367057D01*
X543086Y367085D01*
X543040Y367148D01*
X542965Y367276D01*
X542919Y367319D01*
X542891Y367358D01*
X504067Y406182D01*
X503997Y406234D01*
X503933Y406294D01*
X503884Y406320D01*
X503840Y406353D01*
X503758Y406384D01*
X503680Y406424D01*
X503633Y406432D01*
X503574Y406454D01*
X503427Y406466D01*
X503349Y406479D01*
X460435Y406479D01*
X458650Y408265D01*
X455403Y411511D01*
X455357Y411547D01*
X455316Y411589D01*
X455244Y411632D01*
X455176Y411682D01*
X455122Y411703D01*
X455071Y411733D01*
X454989Y411753D01*
X454911Y411783D01*
X454852Y411788D01*
X454796Y411803D01*
X454711Y411800D01*
X454627Y411807D01*
X454570Y411796D01*
X454511Y411794D01*
X454431Y411768D01*
X454349Y411751D01*
X454297Y411724D01*
X454241Y411706D01*
X454185Y411666D01*
X454096Y411620D01*
X454024Y411551D01*
X453968Y411511D01*
X453632Y411175D01*
X449257Y411175D01*
X449227Y411171D01*
X449196Y411173D01*
X449119Y411156D01*
X448976Y411135D01*
X448917Y411109D01*
X448869Y411098D01*
X446303Y410035D01*
X442697Y410035D01*
X440131Y411098D01*
X440101Y411106D01*
X440074Y411120D01*
X439996Y411133D01*
X439856Y411169D01*
X439792Y411167D01*
X439743Y411175D01*
X435368Y411175D01*
X434475Y412068D01*
X434475Y448332D01*
X435368Y449225D01*
X453632Y449225D01*
X454525Y448332D01*
X454525Y419997D01*
X454537Y419910D01*
X454540Y419823D01*
X454557Y419770D01*
X454565Y419715D01*
X454600Y419636D01*
X454627Y419552D01*
X454655Y419513D01*
X454681Y419456D01*
X454777Y419343D01*
X454822Y419279D01*
X457126Y416975D01*
X457150Y416957D01*
X457169Y416935D01*
X457263Y416872D01*
X457353Y416804D01*
X457381Y416794D01*
X457405Y416777D01*
X457513Y416743D01*
X457619Y416703D01*
X457648Y416700D01*
X457676Y416691D01*
X457790Y416689D01*
X457902Y416679D01*
X457931Y416685D01*
X457960Y416684D01*
X458070Y416713D01*
X458181Y416735D01*
X458207Y416749D01*
X458235Y416756D01*
X458333Y416814D01*
X458433Y416866D01*
X458455Y416886D01*
X458480Y416901D01*
X458557Y416984D01*
X458639Y417062D01*
X458654Y417087D01*
X458674Y417109D01*
X458726Y417209D01*
X458783Y417307D01*
X458790Y417336D01*
X458804Y417362D01*
X458817Y417439D01*
X458853Y417583D01*
X458851Y417645D01*
X458859Y417693D01*
X458859Y428169D01*
X465250Y428169D01*
X465320Y428179D01*
X465391Y428179D01*
X465449Y428197D01*
X465532Y428209D01*
X465639Y428257D01*
X465711Y428279D01*
X466030Y428442D01*
X467539Y428933D01*
X467869Y428985D01*
X467869Y420116D01*
X467877Y420058D01*
X467875Y420000D01*
X467897Y419918D01*
X467909Y419835D01*
X467933Y419781D01*
X467947Y419725D01*
X467990Y419652D01*
X468025Y419575D01*
X468063Y419531D01*
X468093Y419480D01*
X468154Y419423D01*
X468209Y419358D01*
X468257Y419326D01*
X468300Y419286D01*
X468375Y419247D01*
X468445Y419201D01*
X468501Y419183D01*
X468553Y419156D01*
X468621Y419145D01*
X468716Y419115D01*
X468816Y419112D01*
X468884Y419101D01*
X470916Y419101D01*
X470974Y419109D01*
X471032Y419108D01*
X471114Y419129D01*
X471197Y419141D01*
X471251Y419165D01*
X471307Y419179D01*
X471380Y419222D01*
X471457Y419257D01*
X471501Y419295D01*
X471552Y419325D01*
X471609Y419386D01*
X471674Y419441D01*
X471706Y419489D01*
X471746Y419532D01*
X471785Y419607D01*
X471831Y419677D01*
X471849Y419733D01*
X471876Y419785D01*
X471887Y419853D01*
X471917Y419948D01*
X471920Y420048D01*
X471931Y420116D01*
X471931Y428985D01*
X472261Y428933D01*
X473770Y428442D01*
X474089Y428279D01*
X474156Y428256D01*
X474219Y428224D01*
X474279Y428214D01*
X474358Y428187D01*
X474476Y428181D01*
X474550Y428169D01*
X480941Y428169D01*
X480941Y412576D01*
X480949Y412518D01*
X480947Y412460D01*
X480969Y412378D01*
X480981Y412294D01*
X481004Y412241D01*
X481019Y412185D01*
X481062Y412112D01*
X481097Y412035D01*
X481135Y411990D01*
X481164Y411940D01*
X481226Y411882D01*
X481280Y411818D01*
X481329Y411786D01*
X481372Y411746D01*
X481447Y411707D01*
X481517Y411660D01*
X481573Y411643D01*
X481625Y411616D01*
X481693Y411605D01*
X481788Y411575D01*
X481888Y411572D01*
X481956Y411561D01*
X484260Y411561D01*
X484318Y411569D01*
X484376Y411567D01*
X484458Y411589D01*
X484542Y411601D01*
X484595Y411624D01*
X484651Y411639D01*
X484724Y411682D01*
X484801Y411717D01*
X484846Y411755D01*
X484896Y411784D01*
X484954Y411846D01*
X485018Y411900D01*
X485050Y411949D01*
X485090Y411992D01*
X485129Y412067D01*
X485176Y412137D01*
X485193Y412193D01*
X485220Y412245D01*
X485231Y412313D01*
X485261Y412408D01*
X485264Y412508D01*
X485275Y412576D01*
X485275Y448332D01*
X486168Y449225D01*
X504432Y449225D01*
X505325Y448332D01*
X505325Y419997D01*
X505337Y419910D01*
X505340Y419823D01*
X505357Y419770D01*
X505365Y419715D01*
X505400Y419636D01*
X505427Y419552D01*
X505455Y419513D01*
X505481Y419456D01*
X505577Y419343D01*
X505622Y419279D01*
X508942Y415959D01*
X508966Y415941D01*
X508985Y415919D01*
X509079Y415856D01*
X509169Y415788D01*
X509197Y415778D01*
X509221Y415761D01*
X509329Y415727D01*
X509435Y415687D01*
X509464Y415684D01*
X509492Y415675D01*
X509606Y415673D01*
X509718Y415663D01*
X509747Y415669D01*
X509776Y415668D01*
X509886Y415697D01*
X509997Y415719D01*
X510023Y415733D01*
X510051Y415740D01*
X510149Y415798D01*
X510249Y415850D01*
X510271Y415870D01*
X510296Y415885D01*
X510373Y415968D01*
X510455Y416046D01*
X510470Y416071D01*
X510490Y416093D01*
X510542Y416193D01*
X510599Y416291D01*
X510606Y416320D01*
X510620Y416346D01*
X510633Y416423D01*
X510669Y416567D01*
X510667Y416629D01*
X510675Y416677D01*
X510675Y448332D01*
X511568Y449225D01*
X529832Y449225D01*
X530725Y448332D01*
X530725Y413089D01*
X530737Y413002D01*
X530740Y412915D01*
X530757Y412862D01*
X530765Y412807D01*
X530800Y412728D01*
X530827Y412644D01*
X530855Y412605D01*
X530881Y412548D01*
X530977Y412435D01*
X531022Y412371D01*
X550030Y393363D01*
X550100Y393311D01*
X550164Y393251D01*
X550213Y393225D01*
X550257Y393192D01*
X550339Y393161D01*
X550417Y393121D01*
X550464Y393113D01*
X550523Y393091D01*
X550671Y393079D01*
X550748Y393066D01*
X557531Y393066D01*
X557532Y393066D01*
X557534Y393066D01*
X557674Y393086D01*
X557812Y393106D01*
X557814Y393106D01*
X557815Y393106D01*
X557941Y393163D01*
X558072Y393222D01*
X558073Y393223D01*
X558074Y393224D01*
X558182Y393315D01*
X558289Y393405D01*
X558290Y393407D01*
X558291Y393408D01*
X558299Y393421D01*
X558446Y393642D01*
X558456Y393671D01*
X558469Y393692D01*
X559302Y395705D01*
X561875Y398278D01*
X565236Y399670D01*
X584114Y399670D01*
X587475Y398278D01*
X590048Y395705D01*
X591440Y392344D01*
X591440Y388706D01*
X590048Y385345D01*
X587466Y382763D01*
X587431Y382716D01*
X587388Y382676D01*
X587346Y382603D01*
X587295Y382536D01*
X587274Y382481D01*
X587244Y382431D01*
X587224Y382349D01*
X587194Y382270D01*
X587189Y382212D01*
X587174Y382155D01*
X587177Y382071D01*
X587170Y381987D01*
X587182Y381930D01*
X587183Y381871D01*
X587209Y381791D01*
X587226Y381708D01*
X587253Y381656D01*
X587271Y381601D01*
X587311Y381544D01*
X587357Y381456D01*
X587426Y381384D01*
X587466Y381327D01*
X594996Y373797D01*
X594996Y359864D01*
X567525Y332393D01*
X567460Y332307D01*
X567389Y332224D01*
X567375Y332193D01*
X567354Y332166D01*
X567315Y332065D01*
X567270Y331966D01*
X567265Y331932D01*
X567253Y331901D01*
X567244Y331792D01*
X567228Y331685D01*
X567232Y331651D01*
X567229Y331617D01*
X567251Y331511D01*
X567265Y331403D01*
X567279Y331372D01*
X567285Y331339D01*
X567335Y331242D01*
X567379Y331142D01*
X567401Y331116D01*
X567416Y331086D01*
X567491Y331007D01*
X567561Y330924D01*
X567589Y330905D01*
X567612Y330880D01*
X567706Y330825D01*
X567796Y330764D01*
X567828Y330754D01*
X567857Y330736D01*
X567963Y330710D01*
X568066Y330676D01*
X568096Y330676D01*
X568133Y330666D01*
X568352Y330673D01*
X568402Y330673D01*
X569430Y330836D01*
X575819Y330836D01*
X575819Y321691D01*
X575827Y321633D01*
X575825Y321575D01*
X575847Y321493D01*
X575859Y321410D01*
X575883Y321356D01*
X575897Y321300D01*
X575940Y321227D01*
X575975Y321150D01*
X576013Y321106D01*
X576043Y321055D01*
X576104Y320998D01*
X576159Y320933D01*
X576207Y320901D01*
X576250Y320861D01*
X576325Y320822D01*
X576395Y320776D01*
X576451Y320758D01*
X576503Y320731D01*
X576571Y320720D01*
X576666Y320690D01*
X576766Y320687D01*
X576834Y320676D01*
X577851Y320676D01*
X577851Y320674D01*
X576834Y320674D01*
X576776Y320666D01*
X576718Y320667D01*
X576636Y320646D01*
X576553Y320634D01*
X576499Y320610D01*
X576443Y320596D01*
X576370Y320553D01*
X576293Y320518D01*
X576248Y320480D01*
X576198Y320450D01*
X576140Y320389D01*
X576076Y320334D01*
X576044Y320286D01*
X576004Y320243D01*
X575965Y320168D01*
X575919Y320098D01*
X575901Y320042D01*
X575874Y319990D01*
X575863Y319922D01*
X575833Y319827D01*
X575830Y319727D01*
X575819Y319659D01*
X575819Y310514D01*
X572066Y310514D01*
X572037Y310510D01*
X572008Y310513D01*
X571897Y310490D01*
X571785Y310474D01*
X571758Y310462D01*
X571729Y310457D01*
X571629Y310404D01*
X571526Y310358D01*
X571503Y310339D01*
X571477Y310326D01*
X571395Y310248D01*
X571309Y310175D01*
X571292Y310150D01*
X571271Y310130D01*
X571214Y310032D01*
X571151Y309938D01*
X571142Y309910D01*
X571127Y309885D01*
X571099Y309775D01*
X571065Y309667D01*
X571064Y309637D01*
X571057Y309609D01*
X571061Y309496D01*
X571058Y309383D01*
X571065Y309354D01*
X571066Y309325D01*
X571101Y309217D01*
X571130Y309108D01*
X571145Y309082D01*
X571154Y309054D01*
X571199Y308991D01*
X571275Y308863D01*
X571321Y308820D01*
X571349Y308781D01*
X575413Y304717D01*
X575482Y304665D01*
X575546Y304605D01*
X575596Y304579D01*
X575640Y304546D01*
X575722Y304515D01*
X575799Y304475D01*
X575847Y304467D01*
X575905Y304445D01*
X576053Y304433D01*
X576131Y304420D01*
X587289Y304420D01*
X590650Y303028D01*
X593223Y300455D01*
X594615Y297094D01*
X594615Y293456D01*
X593223Y290095D01*
X590650Y287522D01*
X587289Y286130D01*
X568411Y286130D01*
X567624Y286456D01*
X567541Y286478D01*
X567461Y286508D01*
X567404Y286513D01*
X567349Y286527D01*
X567263Y286525D01*
X567177Y286532D01*
X567122Y286521D01*
X567065Y286519D01*
X566983Y286493D01*
X566899Y286476D01*
X566848Y286450D01*
X566794Y286432D01*
X566723Y286384D01*
X566646Y286345D01*
X566605Y286306D01*
X566558Y286274D01*
X566503Y286208D01*
X566440Y286149D01*
X566412Y286100D01*
X566375Y286056D01*
X566340Y285978D01*
X566297Y285904D01*
X566283Y285849D01*
X566259Y285797D01*
X566248Y285711D01*
X566226Y285628D01*
X566228Y285572D01*
X566220Y285515D01*
X566233Y285430D01*
X566236Y285344D01*
X566253Y285290D01*
X566261Y285234D01*
X566297Y285155D01*
X566323Y285074D01*
X566352Y285033D01*
X566378Y284975D01*
X566472Y284864D01*
X566518Y284800D01*
X572001Y279317D01*
X572071Y279265D01*
X572135Y279205D01*
X572184Y279179D01*
X572228Y279146D01*
X572310Y279115D01*
X572388Y279075D01*
X572435Y279067D01*
X572494Y279045D01*
X572642Y279033D01*
X572719Y279020D01*
X587289Y279020D01*
X590650Y277628D01*
X593223Y275055D01*
X594615Y271694D01*
X594615Y268056D01*
X593223Y264695D01*
X590650Y262122D01*
X587289Y260730D01*
X571050Y260730D01*
X571021Y260726D01*
X570992Y260729D01*
X570881Y260706D01*
X570769Y260690D01*
X570742Y260678D01*
X570713Y260673D01*
X570613Y260621D01*
X570510Y260574D01*
X570487Y260555D01*
X570461Y260542D01*
X570379Y260464D01*
X570293Y260391D01*
X570276Y260366D01*
X570255Y260346D01*
X570198Y260248D01*
X570135Y260154D01*
X570126Y260126D01*
X570111Y260101D01*
X570083Y259991D01*
X570049Y259883D01*
X570048Y259853D01*
X570041Y259825D01*
X570045Y259712D01*
X570042Y259599D01*
X570049Y259570D01*
X570050Y259541D01*
X570085Y259433D01*
X570114Y259324D01*
X570129Y259298D01*
X570138Y259270D01*
X570183Y259207D01*
X570259Y259079D01*
X570305Y259036D01*
X570333Y258997D01*
X575413Y253917D01*
X575482Y253865D01*
X575546Y253805D01*
X575596Y253779D01*
X575640Y253746D01*
X575722Y253715D01*
X575799Y253675D01*
X575847Y253667D01*
X575905Y253645D01*
X576053Y253633D01*
X576131Y253620D01*
X587289Y253620D01*
X590650Y252228D01*
X593223Y249655D01*
X594615Y246294D01*
X594615Y242656D01*
X593223Y239295D01*
X590650Y236722D01*
X587289Y235330D01*
X571050Y235330D01*
X571021Y235326D01*
X570992Y235329D01*
X570881Y235306D01*
X570769Y235290D01*
X570742Y235278D01*
X570713Y235273D01*
X570613Y235221D01*
X570510Y235174D01*
X570487Y235155D01*
X570461Y235142D01*
X570379Y235064D01*
X570293Y234991D01*
X570276Y234966D01*
X570255Y234946D01*
X570198Y234848D01*
X570135Y234754D01*
X570126Y234726D01*
X570111Y234701D01*
X570083Y234591D01*
X570049Y234483D01*
X570048Y234453D01*
X570041Y234425D01*
X570045Y234312D01*
X570042Y234199D01*
X570049Y234170D01*
X570050Y234141D01*
X570085Y234033D01*
X570114Y233924D01*
X570129Y233898D01*
X570138Y233870D01*
X570183Y233807D01*
X570259Y233679D01*
X570305Y233636D01*
X570333Y233597D01*
X575413Y228517D01*
X575482Y228465D01*
X575546Y228405D01*
X575596Y228379D01*
X575640Y228346D01*
X575721Y228315D01*
X575799Y228275D01*
X575847Y228267D01*
X575905Y228245D01*
X576053Y228233D01*
X576130Y228220D01*
X587289Y228220D01*
X590650Y226828D01*
X593223Y224255D01*
X594615Y220894D01*
X594615Y217256D01*
X593223Y213895D01*
X590650Y211322D01*
X587289Y209930D01*
X568411Y209930D01*
X565050Y211322D01*
X562477Y213895D01*
X561085Y217256D01*
X561085Y220894D01*
X562477Y224255D01*
X565050Y226828D01*
X567087Y227671D01*
X567186Y227730D01*
X567288Y227783D01*
X567308Y227802D01*
X567332Y227816D01*
X567411Y227899D01*
X567494Y227978D01*
X567508Y228002D01*
X567527Y228022D01*
X567579Y228124D01*
X567638Y228224D01*
X567644Y228250D01*
X567657Y228275D01*
X567679Y228388D01*
X567708Y228499D01*
X567707Y228527D01*
X567712Y228554D01*
X567702Y228669D01*
X567699Y228783D01*
X567690Y228810D01*
X567688Y228837D01*
X567646Y228945D01*
X567611Y229054D01*
X567597Y229074D01*
X567586Y229103D01*
X567424Y229316D01*
X567416Y229327D01*
X567414Y229329D01*
X507565Y289178D01*
X507565Y289179D01*
X505779Y290964D01*
X505779Y328407D01*
X505767Y328494D01*
X505764Y328581D01*
X505747Y328634D01*
X505739Y328689D01*
X505704Y328768D01*
X505677Y328852D01*
X505649Y328891D01*
X505623Y328948D01*
X505527Y329061D01*
X505524Y329066D01*
X505512Y329087D01*
X505504Y329094D01*
X505482Y329125D01*
X423977Y410630D01*
X423976Y410631D01*
X423975Y410632D01*
X423859Y410718D01*
X423750Y410801D01*
X423748Y410801D01*
X423747Y410802D01*
X423613Y410853D01*
X423484Y410902D01*
X423482Y410902D01*
X423481Y410903D01*
X423336Y410914D01*
X423201Y410926D01*
X423199Y410925D01*
X423197Y410926D01*
X423182Y410922D01*
X422922Y410870D01*
X422895Y410856D01*
X422870Y410850D01*
X420903Y410035D01*
X417297Y410035D01*
X414731Y411098D01*
X414701Y411106D01*
X414674Y411120D01*
X414596Y411133D01*
X414456Y411169D01*
X414392Y411167D01*
X414343Y411175D01*
X409968Y411175D01*
X409014Y412130D01*
X408990Y412147D01*
X408971Y412170D01*
X408877Y412233D01*
X408787Y412301D01*
X408759Y412311D01*
X408735Y412327D01*
X408627Y412362D01*
X408521Y412402D01*
X408492Y412404D01*
X408464Y412413D01*
X408350Y412416D01*
X408238Y412426D01*
X408209Y412420D01*
X408180Y412421D01*
X408070Y412392D01*
X407959Y412370D01*
X407933Y412356D01*
X407905Y412349D01*
X407807Y412291D01*
X407707Y412239D01*
X407685Y412218D01*
X407660Y412203D01*
X407583Y412121D01*
X407501Y412043D01*
X407486Y412018D01*
X407466Y411996D01*
X407414Y411895D01*
X407357Y411798D01*
X407350Y411769D01*
X407336Y411743D01*
X407323Y411666D01*
X407287Y411522D01*
X407289Y411460D01*
X407281Y411412D01*
X407281Y377225D01*
X407293Y377138D01*
X407296Y377051D01*
X407313Y376998D01*
X407321Y376944D01*
X407356Y376864D01*
X407383Y376781D01*
X407411Y376741D01*
X407437Y376684D01*
X407532Y376572D01*
X407547Y376547D01*
X407556Y376539D01*
X407578Y376507D01*
X534281Y249805D01*
X534281Y210595D01*
X531305Y207619D01*
X510095Y207619D01*
X508905Y208810D01*
X507119Y210595D01*
X507119Y211412D01*
X507115Y211441D01*
X507118Y211470D01*
X507095Y211581D01*
X507079Y211693D01*
X507067Y211720D01*
X507062Y211749D01*
X507009Y211850D01*
X506963Y211953D01*
X506944Y211975D01*
X506931Y212001D01*
X506853Y212083D01*
X506780Y212170D01*
X506755Y212186D01*
X506735Y212207D01*
X506637Y212265D01*
X506543Y212327D01*
X506515Y212336D01*
X506490Y212351D01*
X506380Y212379D01*
X506272Y212413D01*
X506242Y212414D01*
X506214Y212421D01*
X506101Y212418D01*
X505988Y212421D01*
X505959Y212413D01*
X505930Y212412D01*
X505822Y212377D01*
X505713Y212349D01*
X505687Y212334D01*
X505659Y212325D01*
X505595Y212279D01*
X505468Y212203D01*
X505425Y212158D01*
X505386Y212130D01*
X504432Y211175D01*
X486168Y211175D01*
X485214Y212130D01*
X485190Y212147D01*
X485171Y212170D01*
X485077Y212233D01*
X484987Y212301D01*
X484959Y212311D01*
X484935Y212327D01*
X484827Y212362D01*
X484721Y212402D01*
X484692Y212404D01*
X484664Y212413D01*
X484550Y212416D01*
X484438Y212426D01*
X484409Y212420D01*
X484380Y212421D01*
X484270Y212392D01*
X484159Y212370D01*
X484133Y212356D01*
X484105Y212349D01*
X484007Y212291D01*
X483907Y212239D01*
X483885Y212218D01*
X483860Y212203D01*
X483783Y212121D01*
X483701Y212043D01*
X483686Y212018D01*
X483666Y211996D01*
X483614Y211895D01*
X483557Y211798D01*
X483550Y211769D01*
X483536Y211743D01*
X483523Y211666D01*
X483487Y211522D01*
X483489Y211460D01*
X483481Y211412D01*
X483481Y155533D01*
X483493Y155446D01*
X483496Y155359D01*
X483513Y155306D01*
X483521Y155251D01*
X483556Y155172D01*
X483583Y155088D01*
X483611Y155049D01*
X483637Y154992D01*
X483733Y154879D01*
X483778Y154815D01*
X587702Y50891D01*
X587749Y50856D01*
X587789Y50813D01*
X587862Y50771D01*
X587930Y50720D01*
X587984Y50699D01*
X588035Y50669D01*
X588116Y50649D01*
X588195Y50619D01*
X588254Y50614D01*
X588310Y50599D01*
X588394Y50602D01*
X588479Y50595D01*
X588536Y50607D01*
X588594Y50608D01*
X588675Y50634D01*
X588757Y50651D01*
X588809Y50678D01*
X588865Y50696D01*
X588921Y50736D01*
X589010Y50782D01*
X589082Y50851D01*
X589138Y50891D01*
X591720Y53473D01*
X595081Y54865D01*
X598719Y54865D01*
X602080Y53473D01*
X604653Y50900D01*
X606045Y47539D01*
X606045Y28661D01*
X604653Y25300D01*
X603946Y24594D01*
X603929Y24570D01*
X603906Y24551D01*
X603844Y24457D01*
X603776Y24367D01*
X603765Y24339D01*
X603749Y24315D01*
X603715Y24207D01*
X603674Y24101D01*
X603672Y24072D01*
X603663Y24044D01*
X603660Y23930D01*
X603651Y23818D01*
X603657Y23789D01*
X603656Y23760D01*
X603684Y23650D01*
X603707Y23539D01*
X603720Y23513D01*
X603728Y23485D01*
X603785Y23387D01*
X603838Y23287D01*
X603858Y23265D01*
X603873Y23240D01*
X603955Y23163D01*
X604033Y23081D01*
X604059Y23066D01*
X604080Y23046D01*
X604181Y22994D01*
X604279Y22937D01*
X604307Y22930D01*
X604333Y22916D01*
X604411Y22903D01*
X604554Y22867D01*
X604617Y22869D01*
X604664Y22861D01*
X614536Y22861D01*
X614565Y22865D01*
G37*
G36*
X230499Y361519D02*
X230499Y361519D01*
X230612Y361516D01*
X230641Y361524D01*
X230670Y361525D01*
X230778Y361560D01*
X230887Y361588D01*
X230913Y361603D01*
X230941Y361612D01*
X231004Y361658D01*
X231132Y361733D01*
X231175Y361779D01*
X231214Y361807D01*
X281778Y412371D01*
X281830Y412441D01*
X281890Y412505D01*
X281916Y412554D01*
X281949Y412598D01*
X281980Y412680D01*
X282020Y412758D01*
X282028Y412805D01*
X282050Y412864D01*
X282062Y413012D01*
X282075Y413089D01*
X282075Y443723D01*
X282071Y443752D01*
X282074Y443782D01*
X282051Y443893D01*
X282035Y444005D01*
X282023Y444031D01*
X282018Y444060D01*
X281966Y444161D01*
X281919Y444264D01*
X281900Y444287D01*
X281887Y444313D01*
X281809Y444395D01*
X281736Y444481D01*
X281711Y444497D01*
X281691Y444519D01*
X281593Y444576D01*
X281499Y444639D01*
X281471Y444648D01*
X281446Y444662D01*
X281336Y444690D01*
X281228Y444725D01*
X281198Y444725D01*
X281170Y444732D01*
X281057Y444729D01*
X280944Y444732D01*
X280915Y444724D01*
X280886Y444723D01*
X280778Y444689D01*
X280669Y444660D01*
X280643Y444645D01*
X280615Y444636D01*
X280552Y444590D01*
X280424Y444515D01*
X280381Y444469D01*
X280342Y444441D01*
X277022Y441121D01*
X276970Y441051D01*
X276910Y440987D01*
X276884Y440938D01*
X276851Y440894D01*
X276820Y440812D01*
X276780Y440734D01*
X276772Y440687D01*
X276750Y440628D01*
X276738Y440481D01*
X276725Y440403D01*
X276725Y412068D01*
X275832Y411175D01*
X271457Y411175D01*
X271427Y411171D01*
X271396Y411173D01*
X271319Y411156D01*
X271176Y411135D01*
X271117Y411109D01*
X271069Y411098D01*
X268503Y410035D01*
X264897Y410035D01*
X262331Y411098D01*
X262301Y411106D01*
X262274Y411120D01*
X262196Y411133D01*
X262056Y411169D01*
X261992Y411167D01*
X261943Y411175D01*
X257568Y411175D01*
X256675Y412068D01*
X256675Y443723D01*
X256671Y443752D01*
X256674Y443782D01*
X256651Y443893D01*
X256635Y444005D01*
X256623Y444031D01*
X256618Y444060D01*
X256566Y444161D01*
X256519Y444264D01*
X256500Y444287D01*
X256487Y444313D01*
X256409Y444395D01*
X256336Y444481D01*
X256311Y444497D01*
X256291Y444519D01*
X256193Y444576D01*
X256099Y444639D01*
X256071Y444648D01*
X256046Y444662D01*
X255936Y444690D01*
X255828Y444725D01*
X255798Y444725D01*
X255770Y444732D01*
X255657Y444729D01*
X255544Y444732D01*
X255515Y444724D01*
X255486Y444723D01*
X255378Y444689D01*
X255269Y444660D01*
X255243Y444645D01*
X255215Y444636D01*
X255152Y444590D01*
X255024Y444515D01*
X254981Y444469D01*
X254942Y444441D01*
X251622Y441121D01*
X251570Y441051D01*
X251510Y440987D01*
X251484Y440938D01*
X251451Y440894D01*
X251420Y440812D01*
X251380Y440734D01*
X251372Y440687D01*
X251350Y440628D01*
X251338Y440481D01*
X251325Y440403D01*
X251325Y412068D01*
X250432Y411175D01*
X246057Y411175D01*
X246027Y411171D01*
X245996Y411173D01*
X245919Y411156D01*
X245776Y411135D01*
X245717Y411109D01*
X245669Y411098D01*
X243103Y410035D01*
X239497Y410035D01*
X236931Y411098D01*
X236901Y411106D01*
X236874Y411120D01*
X236796Y411133D01*
X236656Y411169D01*
X236592Y411167D01*
X236543Y411175D01*
X232168Y411175D01*
X231275Y412068D01*
X231275Y448332D01*
X232168Y449225D01*
X250432Y449225D01*
X250768Y448889D01*
X250814Y448854D01*
X250855Y448811D01*
X250927Y448768D01*
X250995Y448718D01*
X251049Y448697D01*
X251100Y448667D01*
X251181Y448647D01*
X251260Y448617D01*
X251319Y448612D01*
X251375Y448597D01*
X251460Y448600D01*
X251544Y448593D01*
X251601Y448604D01*
X251660Y448606D01*
X251740Y448632D01*
X251823Y448649D01*
X251874Y448676D01*
X251930Y448694D01*
X251986Y448734D01*
X252075Y448780D01*
X252147Y448849D01*
X252203Y448889D01*
X256393Y453078D01*
X256410Y453102D01*
X256433Y453121D01*
X256496Y453215D01*
X256564Y453305D01*
X256574Y453333D01*
X256590Y453357D01*
X256625Y453465D01*
X256665Y453571D01*
X256667Y453600D01*
X256676Y453628D01*
X256679Y453742D01*
X256689Y453854D01*
X256683Y453883D01*
X256684Y453912D01*
X256655Y454022D01*
X256633Y454133D01*
X256619Y454159D01*
X256612Y454187D01*
X256554Y454285D01*
X256502Y454385D01*
X256481Y454407D01*
X256466Y454432D01*
X256384Y454509D01*
X256306Y454591D01*
X256281Y454606D01*
X256259Y454626D01*
X256158Y454678D01*
X256061Y454735D01*
X256032Y454742D01*
X256006Y454756D01*
X255929Y454769D01*
X255785Y454805D01*
X255723Y454803D01*
X255675Y454811D01*
X214350Y454811D01*
X214263Y454799D01*
X214176Y454796D01*
X214123Y454779D01*
X214068Y454771D01*
X213989Y454736D01*
X213905Y454709D01*
X213866Y454681D01*
X213809Y454655D01*
X213696Y454559D01*
X213632Y454514D01*
X211092Y451974D01*
X211074Y451950D01*
X211052Y451931D01*
X210989Y451837D01*
X210921Y451747D01*
X210911Y451719D01*
X210894Y451695D01*
X210860Y451587D01*
X210820Y451481D01*
X210817Y451452D01*
X210809Y451424D01*
X210806Y451310D01*
X210796Y451198D01*
X210802Y451169D01*
X210801Y451140D01*
X210830Y451030D01*
X210852Y450919D01*
X210866Y450893D01*
X210873Y450865D01*
X210931Y450767D01*
X210983Y450667D01*
X211003Y450645D01*
X211018Y450620D01*
X211101Y450543D01*
X211179Y450461D01*
X211204Y450446D01*
X211226Y450426D01*
X211327Y450374D01*
X211424Y450317D01*
X211453Y450310D01*
X211479Y450296D01*
X211556Y450283D01*
X211700Y450247D01*
X211762Y450249D01*
X211810Y450241D01*
X213869Y450241D01*
X213869Y432231D01*
X204859Y432231D01*
X204859Y443290D01*
X204855Y443319D01*
X204858Y443348D01*
X204835Y443459D01*
X204819Y443572D01*
X204807Y443598D01*
X204802Y443627D01*
X204749Y443728D01*
X204703Y443831D01*
X204684Y443853D01*
X204671Y443879D01*
X204593Y443962D01*
X204520Y444048D01*
X204495Y444064D01*
X204475Y444086D01*
X204377Y444143D01*
X204283Y444206D01*
X204255Y444214D01*
X204230Y444229D01*
X204120Y444257D01*
X204012Y444291D01*
X203982Y444292D01*
X203954Y444299D01*
X203841Y444296D01*
X203728Y444299D01*
X203699Y444291D01*
X203670Y444290D01*
X203562Y444255D01*
X203453Y444227D01*
X203427Y444212D01*
X203399Y444203D01*
X203336Y444157D01*
X203208Y444082D01*
X203165Y444036D01*
X203126Y444008D01*
X200822Y441704D01*
X200770Y441634D01*
X200710Y441570D01*
X200684Y441521D01*
X200651Y441477D01*
X200620Y441395D01*
X200580Y441317D01*
X200572Y441270D01*
X200550Y441211D01*
X200538Y441063D01*
X200525Y440986D01*
X200525Y412068D01*
X199632Y411175D01*
X195257Y411175D01*
X195227Y411171D01*
X195196Y411173D01*
X195119Y411156D01*
X194976Y411135D01*
X194917Y411109D01*
X194869Y411098D01*
X192303Y410035D01*
X188697Y410035D01*
X186531Y410933D01*
X186448Y410954D01*
X186367Y410985D01*
X186310Y410989D01*
X186255Y411003D01*
X186170Y411001D01*
X186084Y411008D01*
X186028Y410997D01*
X185971Y410995D01*
X185889Y410969D01*
X185805Y410952D01*
X185755Y410926D01*
X185700Y410909D01*
X185629Y410861D01*
X185553Y410821D01*
X185512Y410782D01*
X185464Y410750D01*
X185409Y410685D01*
X185347Y410625D01*
X185318Y410576D01*
X185281Y410533D01*
X185247Y410454D01*
X185203Y410380D01*
X185189Y410325D01*
X185166Y410273D01*
X185154Y410188D01*
X185133Y410105D01*
X185135Y410048D01*
X185127Y409991D01*
X185139Y409906D01*
X185142Y409821D01*
X185159Y409766D01*
X185168Y409710D01*
X185203Y409632D01*
X185229Y409550D01*
X185258Y409510D01*
X185285Y409451D01*
X185379Y409340D01*
X185424Y409277D01*
X227695Y367006D01*
X229481Y365220D01*
X229481Y362525D01*
X229485Y362496D01*
X229482Y362467D01*
X229505Y362356D01*
X229521Y362243D01*
X229533Y362217D01*
X229538Y362188D01*
X229590Y362087D01*
X229637Y361984D01*
X229656Y361962D01*
X229669Y361936D01*
X229747Y361853D01*
X229820Y361767D01*
X229845Y361751D01*
X229865Y361729D01*
X229963Y361672D01*
X230057Y361609D01*
X230085Y361601D01*
X230110Y361586D01*
X230220Y361558D01*
X230328Y361524D01*
X230358Y361523D01*
X230386Y361516D01*
X230499Y361519D01*
G37*
G36*
X382899Y247982D02*
X382899Y247982D01*
X383012Y247979D01*
X383041Y247987D01*
X383070Y247988D01*
X383178Y248023D01*
X383287Y248051D01*
X383313Y248066D01*
X383341Y248075D01*
X383405Y248121D01*
X383532Y248197D01*
X383575Y248242D01*
X383614Y248270D01*
X384568Y249225D01*
X388943Y249225D01*
X388973Y249229D01*
X389004Y249227D01*
X389081Y249244D01*
X389224Y249265D01*
X389283Y249291D01*
X389331Y249302D01*
X391897Y250365D01*
X395503Y250365D01*
X398069Y249302D01*
X398099Y249294D01*
X398126Y249280D01*
X398204Y249267D01*
X398344Y249231D01*
X398408Y249233D01*
X398457Y249225D01*
X401168Y249225D01*
X401197Y249229D01*
X401226Y249226D01*
X401337Y249249D01*
X401450Y249265D01*
X401476Y249277D01*
X401505Y249282D01*
X401606Y249334D01*
X401709Y249381D01*
X401731Y249400D01*
X401757Y249413D01*
X401840Y249491D01*
X401926Y249564D01*
X401942Y249589D01*
X401964Y249609D01*
X402021Y249707D01*
X402084Y249801D01*
X402092Y249829D01*
X402107Y249854D01*
X402135Y249964D01*
X402169Y250072D01*
X402170Y250102D01*
X402177Y250130D01*
X402174Y250243D01*
X402177Y250356D01*
X402169Y250385D01*
X402168Y250414D01*
X402133Y250522D01*
X402105Y250631D01*
X402090Y250657D01*
X402081Y250685D01*
X402035Y250748D01*
X401960Y250876D01*
X401926Y250907D01*
X401923Y250913D01*
X401909Y250925D01*
X401886Y250958D01*
X351399Y301445D01*
X351399Y409144D01*
X351391Y409202D01*
X351393Y409260D01*
X351371Y409342D01*
X351359Y409426D01*
X351336Y409479D01*
X351321Y409535D01*
X351278Y409608D01*
X351243Y409685D01*
X351205Y409730D01*
X351176Y409780D01*
X351114Y409838D01*
X351060Y409902D01*
X351011Y409934D01*
X350968Y409974D01*
X350893Y410013D01*
X350823Y410060D01*
X350767Y410077D01*
X350715Y410104D01*
X350647Y410115D01*
X350552Y410145D01*
X350452Y410148D01*
X350384Y410159D01*
X347801Y410159D01*
X347731Y410149D01*
X347661Y410149D01*
X347602Y410131D01*
X347520Y410119D01*
X347412Y410071D01*
X347340Y410049D01*
X346770Y409758D01*
X345261Y409267D01*
X344931Y409215D01*
X344931Y418084D01*
X344923Y418142D01*
X344924Y418200D01*
X344903Y418282D01*
X344891Y418365D01*
X344867Y418419D01*
X344853Y418475D01*
X344810Y418548D01*
X344775Y418625D01*
X344737Y418669D01*
X344707Y418720D01*
X344646Y418777D01*
X344591Y418842D01*
X344543Y418874D01*
X344500Y418914D01*
X344425Y418953D01*
X344355Y418999D01*
X344299Y419017D01*
X344247Y419044D01*
X344179Y419055D01*
X344084Y419085D01*
X343984Y419088D01*
X343916Y419099D01*
X341884Y419099D01*
X341826Y419091D01*
X341768Y419092D01*
X341686Y419071D01*
X341603Y419059D01*
X341549Y419035D01*
X341493Y419021D01*
X341420Y418978D01*
X341343Y418943D01*
X341298Y418905D01*
X341248Y418875D01*
X341190Y418814D01*
X341126Y418759D01*
X341094Y418711D01*
X341054Y418668D01*
X341015Y418593D01*
X340969Y418523D01*
X340951Y418467D01*
X340924Y418415D01*
X340913Y418347D01*
X340883Y418252D01*
X340880Y418152D01*
X340869Y418084D01*
X340869Y409215D01*
X340539Y409267D01*
X339030Y409758D01*
X338460Y410049D01*
X338393Y410072D01*
X338330Y410104D01*
X338270Y410114D01*
X338191Y410141D01*
X338073Y410147D01*
X337999Y410159D01*
X334066Y410159D01*
X333419Y410332D01*
X332840Y410667D01*
X332814Y410693D01*
X332790Y410711D01*
X332771Y410733D01*
X332677Y410796D01*
X332587Y410864D01*
X332559Y410874D01*
X332535Y410891D01*
X332427Y410925D01*
X332321Y410965D01*
X332292Y410968D01*
X332264Y410976D01*
X332151Y410979D01*
X332038Y410989D01*
X332009Y410983D01*
X331980Y410984D01*
X331870Y410955D01*
X331759Y410933D01*
X331733Y410919D01*
X331705Y410912D01*
X331607Y410854D01*
X331507Y410802D01*
X331485Y410782D01*
X331460Y410767D01*
X331383Y410684D01*
X331301Y410606D01*
X331286Y410581D01*
X331266Y410559D01*
X331214Y410459D01*
X331157Y410361D01*
X331150Y410332D01*
X331136Y410306D01*
X331123Y410229D01*
X331087Y410085D01*
X331089Y410023D01*
X331081Y409975D01*
X331081Y302116D01*
X331093Y302029D01*
X331096Y301942D01*
X331113Y301889D01*
X331121Y301834D01*
X331156Y301755D01*
X331183Y301671D01*
X331211Y301632D01*
X331237Y301575D01*
X331333Y301462D01*
X331378Y301398D01*
X381881Y250895D01*
X381881Y248988D01*
X381885Y248959D01*
X381882Y248930D01*
X381905Y248819D01*
X381921Y248707D01*
X381933Y248680D01*
X381938Y248651D01*
X381991Y248550D01*
X382037Y248447D01*
X382056Y248425D01*
X382069Y248399D01*
X382147Y248317D01*
X382220Y248230D01*
X382245Y248214D01*
X382265Y248193D01*
X382363Y248135D01*
X382457Y248073D01*
X382485Y248064D01*
X382510Y248049D01*
X382620Y248021D01*
X382728Y247987D01*
X382758Y247986D01*
X382786Y247979D01*
X382899Y247982D01*
G37*
G36*
X563136Y50607D02*
X563136Y50607D01*
X563194Y50608D01*
X563275Y50634D01*
X563357Y50651D01*
X563409Y50678D01*
X563465Y50696D01*
X563521Y50736D01*
X563610Y50782D01*
X563682Y50851D01*
X563738Y50891D01*
X566320Y53473D01*
X569681Y54865D01*
X573319Y54865D01*
X574106Y54539D01*
X574189Y54517D01*
X574269Y54487D01*
X574326Y54482D01*
X574381Y54468D01*
X574467Y54470D01*
X574553Y54463D01*
X574608Y54474D01*
X574665Y54476D01*
X574747Y54502D01*
X574831Y54519D01*
X574882Y54545D01*
X574936Y54563D01*
X575007Y54611D01*
X575084Y54650D01*
X575125Y54689D01*
X575172Y54721D01*
X575227Y54787D01*
X575290Y54846D01*
X575318Y54895D01*
X575355Y54939D01*
X575390Y55017D01*
X575433Y55091D01*
X575447Y55146D01*
X575471Y55198D01*
X575482Y55284D01*
X575504Y55367D01*
X575502Y55423D01*
X575510Y55480D01*
X575497Y55565D01*
X575494Y55651D01*
X575477Y55705D01*
X575469Y55761D01*
X575433Y55840D01*
X575407Y55921D01*
X575378Y55962D01*
X575352Y56020D01*
X575258Y56131D01*
X575212Y56195D01*
X478399Y153008D01*
X478399Y209144D01*
X478391Y209202D01*
X478393Y209260D01*
X478371Y209342D01*
X478359Y209426D01*
X478336Y209479D01*
X478321Y209535D01*
X478278Y209608D01*
X478243Y209685D01*
X478205Y209730D01*
X478176Y209780D01*
X478114Y209838D01*
X478060Y209902D01*
X478011Y209934D01*
X477968Y209974D01*
X477893Y210013D01*
X477823Y210060D01*
X477767Y210077D01*
X477715Y210104D01*
X477647Y210115D01*
X477552Y210145D01*
X477452Y210148D01*
X477384Y210159D01*
X471931Y210159D01*
X471931Y229184D01*
X471923Y229242D01*
X471924Y229300D01*
X471903Y229382D01*
X471891Y229465D01*
X471867Y229519D01*
X471853Y229575D01*
X471810Y229648D01*
X471775Y229725D01*
X471737Y229769D01*
X471707Y229820D01*
X471646Y229877D01*
X471591Y229942D01*
X471543Y229974D01*
X471500Y230014D01*
X471425Y230053D01*
X471355Y230099D01*
X471299Y230117D01*
X471247Y230144D01*
X471179Y230155D01*
X471084Y230185D01*
X470984Y230188D01*
X470916Y230199D01*
X468884Y230199D01*
X468826Y230191D01*
X468768Y230192D01*
X468686Y230171D01*
X468603Y230159D01*
X468549Y230135D01*
X468493Y230121D01*
X468420Y230078D01*
X468343Y230043D01*
X468298Y230005D01*
X468248Y229975D01*
X468190Y229914D01*
X468126Y229859D01*
X468094Y229811D01*
X468054Y229768D01*
X468015Y229693D01*
X467969Y229623D01*
X467951Y229567D01*
X467924Y229515D01*
X467913Y229447D01*
X467883Y229352D01*
X467880Y229252D01*
X467869Y229184D01*
X467869Y210159D01*
X461066Y210159D01*
X460419Y210332D01*
X459840Y210667D01*
X459814Y210693D01*
X459790Y210711D01*
X459771Y210733D01*
X459677Y210796D01*
X459587Y210864D01*
X459559Y210874D01*
X459535Y210891D01*
X459427Y210925D01*
X459321Y210965D01*
X459292Y210968D01*
X459264Y210976D01*
X459151Y210979D01*
X459038Y210989D01*
X459009Y210983D01*
X458980Y210984D01*
X458870Y210955D01*
X458759Y210933D01*
X458733Y210919D01*
X458705Y210912D01*
X458607Y210854D01*
X458507Y210802D01*
X458485Y210782D01*
X458460Y210767D01*
X458383Y210684D01*
X458301Y210606D01*
X458286Y210581D01*
X458266Y210559D01*
X458214Y210459D01*
X458157Y210361D01*
X458150Y210332D01*
X458136Y210306D01*
X458123Y210229D01*
X458087Y210085D01*
X458089Y210023D01*
X458081Y209975D01*
X458081Y190458D01*
X458093Y190371D01*
X458096Y190284D01*
X458113Y190231D01*
X458121Y190176D01*
X458156Y190097D01*
X458183Y190013D01*
X458211Y189974D01*
X458237Y189917D01*
X458333Y189804D01*
X458378Y189740D01*
X467899Y180219D01*
X467901Y180218D01*
X467902Y180216D01*
X468020Y180128D01*
X468127Y180048D01*
X468128Y180047D01*
X468130Y180046D01*
X468263Y179996D01*
X468392Y179947D01*
X468394Y179946D01*
X468396Y179946D01*
X468539Y179934D01*
X468676Y179923D01*
X468677Y179923D01*
X468679Y179923D01*
X468696Y179927D01*
X468719Y179932D01*
X470956Y179932D01*
X472906Y179124D01*
X474399Y177631D01*
X475207Y175681D01*
X475207Y173569D01*
X474399Y171619D01*
X472906Y170126D01*
X470956Y169318D01*
X469066Y169318D01*
X468952Y169302D01*
X468838Y169292D01*
X468812Y169282D01*
X468785Y169278D01*
X468680Y169231D01*
X468573Y169190D01*
X468551Y169174D01*
X468525Y169162D01*
X468438Y169088D01*
X468346Y169019D01*
X468329Y168996D01*
X468308Y168979D01*
X468245Y168883D01*
X468176Y168791D01*
X468166Y168765D01*
X468151Y168742D01*
X468116Y168632D01*
X468075Y168525D01*
X468073Y168497D01*
X468065Y168471D01*
X468062Y168356D01*
X468053Y168242D01*
X468058Y168217D01*
X468058Y168187D01*
X468125Y167930D01*
X468128Y167914D01*
X468857Y166156D01*
X468857Y164044D01*
X468049Y162094D01*
X466556Y160601D01*
X464606Y159793D01*
X462494Y159793D01*
X460544Y160601D01*
X458982Y162163D01*
X458974Y162177D01*
X458972Y162178D01*
X458972Y162180D01*
X458867Y162278D01*
X458767Y162373D01*
X458765Y162373D01*
X458764Y162374D01*
X458639Y162439D01*
X458514Y162503D01*
X458513Y162503D01*
X458511Y162504D01*
X458496Y162506D01*
X458235Y162558D01*
X458205Y162555D01*
X458180Y162559D01*
X456148Y162559D01*
X427599Y191108D01*
X427599Y210160D01*
X427591Y210218D01*
X427593Y210276D01*
X427571Y210358D01*
X427559Y210442D01*
X427536Y210495D01*
X427521Y210551D01*
X427478Y210624D01*
X427443Y210701D01*
X427405Y210746D01*
X427376Y210796D01*
X427314Y210854D01*
X427260Y210918D01*
X427211Y210950D01*
X427168Y210990D01*
X427093Y211029D01*
X427023Y211076D01*
X426967Y211093D01*
X426915Y211120D01*
X426847Y211131D01*
X426752Y211161D01*
X426652Y211164D01*
X426584Y211175D01*
X409968Y211175D01*
X409014Y212130D01*
X408990Y212147D01*
X408971Y212170D01*
X408877Y212233D01*
X408787Y212301D01*
X408759Y212311D01*
X408735Y212327D01*
X408627Y212362D01*
X408521Y212402D01*
X408492Y212404D01*
X408464Y212413D01*
X408350Y212416D01*
X408238Y212426D01*
X408209Y212420D01*
X408180Y212421D01*
X408070Y212392D01*
X407959Y212370D01*
X407933Y212356D01*
X407905Y212349D01*
X407807Y212291D01*
X407707Y212239D01*
X407685Y212218D01*
X407660Y212203D01*
X407583Y212121D01*
X407501Y212043D01*
X407486Y212018D01*
X407466Y211996D01*
X407414Y211895D01*
X407357Y211798D01*
X407350Y211769D01*
X407336Y211743D01*
X407323Y211666D01*
X407287Y211522D01*
X407289Y211460D01*
X407281Y211412D01*
X407281Y206333D01*
X407293Y206246D01*
X407296Y206159D01*
X407313Y206106D01*
X407321Y206051D01*
X407356Y205972D01*
X407383Y205888D01*
X407411Y205849D01*
X407437Y205792D01*
X407533Y205679D01*
X407578Y205615D01*
X562302Y50891D01*
X562349Y50856D01*
X562389Y50813D01*
X562462Y50771D01*
X562530Y50720D01*
X562584Y50699D01*
X562635Y50669D01*
X562716Y50649D01*
X562795Y50619D01*
X562854Y50614D01*
X562910Y50599D01*
X562994Y50602D01*
X563079Y50595D01*
X563136Y50607D01*
G37*
G36*
X470974Y241309D02*
X470974Y241309D01*
X471032Y241308D01*
X471114Y241329D01*
X471197Y241341D01*
X471251Y241365D01*
X471307Y241379D01*
X471380Y241422D01*
X471457Y241457D01*
X471501Y241495D01*
X471552Y241525D01*
X471609Y241586D01*
X471674Y241641D01*
X471706Y241689D01*
X471746Y241732D01*
X471785Y241807D01*
X471831Y241877D01*
X471849Y241933D01*
X471876Y241985D01*
X471887Y242053D01*
X471917Y242148D01*
X471920Y242248D01*
X471931Y242316D01*
X471931Y251185D01*
X472261Y251133D01*
X473770Y250642D01*
X474340Y250351D01*
X474407Y250328D01*
X474470Y250296D01*
X474530Y250286D01*
X474609Y250259D01*
X474727Y250253D01*
X474801Y250241D01*
X477384Y250241D01*
X477442Y250249D01*
X477500Y250247D01*
X477582Y250269D01*
X477666Y250281D01*
X477719Y250304D01*
X477775Y250319D01*
X477848Y250362D01*
X477925Y250397D01*
X477970Y250435D01*
X478020Y250464D01*
X478078Y250526D01*
X478142Y250580D01*
X478174Y250629D01*
X478214Y250672D01*
X478253Y250747D01*
X478300Y250817D01*
X478317Y250873D01*
X478344Y250925D01*
X478355Y250993D01*
X478385Y251088D01*
X478388Y251188D01*
X478399Y251256D01*
X478399Y271332D01*
X478387Y271418D01*
X478384Y271506D01*
X478367Y271558D01*
X478359Y271613D01*
X478324Y271693D01*
X478297Y271776D01*
X478269Y271816D01*
X478243Y271873D01*
X478147Y271986D01*
X478102Y272050D01*
X404296Y345856D01*
X404272Y345873D01*
X404253Y345896D01*
X404159Y345959D01*
X404069Y346027D01*
X404041Y346037D01*
X404017Y346053D01*
X403909Y346088D01*
X403803Y346128D01*
X403774Y346130D01*
X403746Y346139D01*
X403632Y346142D01*
X403520Y346151D01*
X403491Y346146D01*
X403462Y346146D01*
X403352Y346118D01*
X403241Y346095D01*
X403215Y346082D01*
X403187Y346075D01*
X403089Y346017D01*
X402989Y345964D01*
X402967Y345944D01*
X402942Y345929D01*
X402865Y345847D01*
X402783Y345769D01*
X402768Y345743D01*
X402748Y345722D01*
X402696Y345621D01*
X402639Y345523D01*
X402632Y345495D01*
X402618Y345469D01*
X402605Y345391D01*
X402569Y345248D01*
X402571Y345185D01*
X402563Y345138D01*
X402563Y305743D01*
X402575Y305656D01*
X402578Y305569D01*
X402595Y305516D01*
X402603Y305462D01*
X402638Y305382D01*
X402665Y305299D01*
X402693Y305259D01*
X402719Y305202D01*
X402815Y305089D01*
X402860Y305025D01*
X456295Y251590D01*
X458278Y249607D01*
X458325Y249572D01*
X458365Y249529D01*
X458438Y249487D01*
X458505Y249436D01*
X458560Y249415D01*
X458611Y249386D01*
X458692Y249365D01*
X458771Y249335D01*
X458829Y249330D01*
X458886Y249316D01*
X458970Y249318D01*
X459054Y249311D01*
X459112Y249323D01*
X459170Y249325D01*
X459251Y249351D01*
X459333Y249367D01*
X459385Y249394D01*
X459441Y249412D01*
X459497Y249452D01*
X459585Y249498D01*
X459658Y249567D01*
X459714Y249607D01*
X459840Y249733D01*
X460419Y250068D01*
X461066Y250241D01*
X464999Y250241D01*
X465069Y250251D01*
X465139Y250251D01*
X465198Y250269D01*
X465280Y250281D01*
X465388Y250329D01*
X465460Y250351D01*
X466030Y250642D01*
X467539Y251133D01*
X467869Y251185D01*
X467869Y242316D01*
X467877Y242258D01*
X467875Y242200D01*
X467897Y242118D01*
X467909Y242035D01*
X467933Y241981D01*
X467947Y241925D01*
X467990Y241852D01*
X468025Y241775D01*
X468063Y241731D01*
X468093Y241680D01*
X468154Y241623D01*
X468209Y241558D01*
X468257Y241526D01*
X468300Y241486D01*
X468375Y241447D01*
X468445Y241401D01*
X468501Y241383D01*
X468553Y241356D01*
X468621Y241345D01*
X468716Y241315D01*
X468816Y241312D01*
X468884Y241301D01*
X470916Y241301D01*
X470974Y241309D01*
G37*
%LPC*%
G36*
X308368Y211175D02*
X308368Y211175D01*
X307475Y212068D01*
X307475Y248332D01*
X308368Y249225D01*
X312743Y249225D01*
X312773Y249229D01*
X312804Y249227D01*
X312881Y249244D01*
X313024Y249265D01*
X313083Y249291D01*
X313131Y249302D01*
X315697Y250365D01*
X319303Y250365D01*
X321869Y249302D01*
X321899Y249294D01*
X321926Y249280D01*
X322004Y249267D01*
X322144Y249231D01*
X322208Y249233D01*
X322257Y249225D01*
X326632Y249225D01*
X327525Y248332D01*
X327525Y212068D01*
X326632Y211175D01*
X308368Y211175D01*
G37*
%LPD*%
%LPC*%
G36*
X105168Y211175D02*
X105168Y211175D01*
X104275Y212068D01*
X104275Y248332D01*
X105168Y249225D01*
X109543Y249225D01*
X109573Y249229D01*
X109604Y249227D01*
X109681Y249244D01*
X109824Y249265D01*
X109883Y249291D01*
X109931Y249302D01*
X112497Y250365D01*
X116103Y250365D01*
X118669Y249302D01*
X118699Y249294D01*
X118726Y249280D01*
X118804Y249267D01*
X118944Y249231D01*
X119008Y249233D01*
X119057Y249225D01*
X123432Y249225D01*
X124325Y248332D01*
X124325Y212068D01*
X123432Y211175D01*
X105168Y211175D01*
G37*
%LPD*%
%LPC*%
G36*
X257568Y211175D02*
X257568Y211175D01*
X256675Y212068D01*
X256675Y248332D01*
X257568Y249225D01*
X261943Y249225D01*
X261973Y249229D01*
X262004Y249227D01*
X262081Y249244D01*
X262224Y249265D01*
X262283Y249291D01*
X262331Y249302D01*
X264897Y250365D01*
X268503Y250365D01*
X271069Y249302D01*
X271099Y249294D01*
X271126Y249280D01*
X271204Y249267D01*
X271344Y249231D01*
X271408Y249233D01*
X271457Y249225D01*
X275832Y249225D01*
X276725Y248332D01*
X276725Y212068D01*
X275832Y211175D01*
X257568Y211175D01*
G37*
%LPD*%
%LPC*%
G36*
X282968Y211175D02*
X282968Y211175D01*
X282075Y212068D01*
X282075Y248332D01*
X282968Y249225D01*
X287343Y249225D01*
X287373Y249229D01*
X287404Y249227D01*
X287481Y249244D01*
X287624Y249265D01*
X287683Y249291D01*
X287731Y249302D01*
X290297Y250365D01*
X293903Y250365D01*
X296469Y249302D01*
X296499Y249294D01*
X296526Y249280D01*
X296604Y249267D01*
X296744Y249231D01*
X296808Y249233D01*
X296857Y249225D01*
X301232Y249225D01*
X302125Y248332D01*
X302125Y212068D01*
X301232Y211175D01*
X282968Y211175D01*
G37*
%LPD*%
%LPC*%
G36*
X155968Y211175D02*
X155968Y211175D01*
X155075Y212068D01*
X155075Y248332D01*
X155968Y249225D01*
X160343Y249225D01*
X160373Y249229D01*
X160404Y249227D01*
X160481Y249244D01*
X160624Y249265D01*
X160683Y249291D01*
X160731Y249302D01*
X163297Y250365D01*
X166903Y250365D01*
X169469Y249302D01*
X169499Y249294D01*
X169526Y249280D01*
X169604Y249267D01*
X169744Y249231D01*
X169808Y249233D01*
X169857Y249225D01*
X174232Y249225D01*
X175125Y248332D01*
X175125Y212068D01*
X174232Y211175D01*
X155968Y211175D01*
G37*
%LPD*%
%LPC*%
G36*
X130568Y211175D02*
X130568Y211175D01*
X129675Y212068D01*
X129675Y248332D01*
X130568Y249225D01*
X134943Y249225D01*
X134973Y249229D01*
X135004Y249227D01*
X135081Y249244D01*
X135224Y249265D01*
X135283Y249291D01*
X135331Y249302D01*
X137897Y250365D01*
X141503Y250365D01*
X144069Y249302D01*
X144099Y249294D01*
X144126Y249280D01*
X144204Y249267D01*
X144344Y249231D01*
X144408Y249233D01*
X144457Y249225D01*
X148832Y249225D01*
X149725Y248332D01*
X149725Y212068D01*
X148832Y211175D01*
X130568Y211175D01*
G37*
%LPD*%
%LPC*%
G36*
X181368Y211175D02*
X181368Y211175D01*
X180475Y212068D01*
X180475Y248332D01*
X181368Y249225D01*
X185743Y249225D01*
X185773Y249229D01*
X185804Y249227D01*
X185881Y249244D01*
X186024Y249265D01*
X186083Y249291D01*
X186131Y249302D01*
X188697Y250365D01*
X192303Y250365D01*
X194869Y249302D01*
X194899Y249294D01*
X194926Y249280D01*
X195004Y249267D01*
X195144Y249231D01*
X195208Y249233D01*
X195257Y249225D01*
X199632Y249225D01*
X200525Y248332D01*
X200525Y212068D01*
X199632Y211175D01*
X181368Y211175D01*
G37*
%LPD*%
%LPC*%
G36*
X36297Y410035D02*
X36297Y410035D01*
X33731Y411098D01*
X33701Y411106D01*
X33674Y411120D01*
X33596Y411133D01*
X33456Y411169D01*
X33392Y411167D01*
X33343Y411175D01*
X28968Y411175D01*
X28075Y412068D01*
X28075Y448332D01*
X28968Y449225D01*
X47232Y449225D01*
X48125Y448332D01*
X48125Y412068D01*
X47232Y411175D01*
X42857Y411175D01*
X42827Y411171D01*
X42796Y411173D01*
X42719Y411156D01*
X42576Y411135D01*
X42517Y411109D01*
X42469Y411098D01*
X39903Y410035D01*
X36297Y410035D01*
G37*
%LPD*%
%LPC*%
G36*
X137897Y410035D02*
X137897Y410035D01*
X135331Y411098D01*
X135301Y411106D01*
X135274Y411120D01*
X135196Y411133D01*
X135056Y411169D01*
X134992Y411167D01*
X134943Y411175D01*
X130568Y411175D01*
X129675Y412068D01*
X129675Y448332D01*
X130568Y449225D01*
X148832Y449225D01*
X149725Y448332D01*
X149725Y412068D01*
X148832Y411175D01*
X144457Y411175D01*
X144427Y411171D01*
X144396Y411173D01*
X144319Y411156D01*
X144176Y411135D01*
X144117Y411109D01*
X144069Y411098D01*
X141503Y410035D01*
X137897Y410035D01*
G37*
%LPD*%
%LPC*%
G36*
X28968Y211175D02*
X28968Y211175D01*
X28075Y212068D01*
X28075Y248332D01*
X28968Y249225D01*
X33343Y249225D01*
X33373Y249229D01*
X33404Y249227D01*
X33481Y249244D01*
X33624Y249265D01*
X33683Y249291D01*
X33731Y249302D01*
X36297Y250365D01*
X39903Y250365D01*
X42469Y249302D01*
X42499Y249294D01*
X42526Y249280D01*
X42604Y249267D01*
X42744Y249231D01*
X42808Y249233D01*
X42857Y249225D01*
X47232Y249225D01*
X48125Y248332D01*
X48125Y212068D01*
X47232Y211175D01*
X28968Y211175D01*
G37*
%LPD*%
%LPC*%
G36*
X54368Y211175D02*
X54368Y211175D01*
X53475Y212068D01*
X53475Y248332D01*
X54368Y249225D01*
X58743Y249225D01*
X58773Y249229D01*
X58804Y249227D01*
X58881Y249244D01*
X59024Y249265D01*
X59083Y249291D01*
X59131Y249302D01*
X61697Y250365D01*
X65303Y250365D01*
X67869Y249302D01*
X67899Y249294D01*
X67926Y249280D01*
X68004Y249267D01*
X68144Y249231D01*
X68208Y249233D01*
X68257Y249225D01*
X72632Y249225D01*
X73525Y248332D01*
X73525Y212068D01*
X72632Y211175D01*
X54368Y211175D01*
G37*
%LPD*%
%LPC*%
G36*
X61697Y410035D02*
X61697Y410035D01*
X59131Y411098D01*
X59101Y411106D01*
X59074Y411120D01*
X58996Y411133D01*
X58856Y411169D01*
X58792Y411167D01*
X58743Y411175D01*
X54368Y411175D01*
X53475Y412068D01*
X53475Y448332D01*
X54368Y449225D01*
X72632Y449225D01*
X73525Y448332D01*
X73525Y412068D01*
X72632Y411175D01*
X68257Y411175D01*
X68227Y411171D01*
X68196Y411173D01*
X68119Y411156D01*
X67976Y411135D01*
X67917Y411109D01*
X67869Y411098D01*
X65303Y410035D01*
X61697Y410035D01*
G37*
%LPD*%
%LPC*%
G36*
X112497Y410035D02*
X112497Y410035D01*
X109931Y411098D01*
X109901Y411106D01*
X109874Y411120D01*
X109796Y411133D01*
X109656Y411169D01*
X109592Y411167D01*
X109543Y411175D01*
X105168Y411175D01*
X104275Y412068D01*
X104275Y448332D01*
X105168Y449225D01*
X123432Y449225D01*
X124325Y448332D01*
X124325Y412068D01*
X123432Y411175D01*
X119057Y411175D01*
X119027Y411171D01*
X118996Y411173D01*
X118919Y411156D01*
X118776Y411135D01*
X118717Y411109D01*
X118669Y411098D01*
X116103Y410035D01*
X112497Y410035D01*
G37*
%LPD*%
%LPC*%
G36*
X144137Y294564D02*
X144137Y294564D01*
X143764Y294937D01*
X143764Y315463D01*
X144137Y315836D01*
X164663Y315836D01*
X165036Y315463D01*
X165036Y294937D01*
X164663Y294564D01*
X144137Y294564D01*
G37*
%LPD*%
%LPC*%
G36*
X94137Y294564D02*
X94137Y294564D01*
X93764Y294937D01*
X93764Y315463D01*
X94137Y315836D01*
X114663Y315836D01*
X115036Y315463D01*
X115036Y294937D01*
X114663Y294564D01*
X94137Y294564D01*
G37*
%LPD*%
%LPC*%
G36*
X119137Y294564D02*
X119137Y294564D01*
X118764Y294937D01*
X118764Y315463D01*
X119137Y315836D01*
X139663Y315836D01*
X140036Y315463D01*
X140036Y294937D01*
X139663Y294564D01*
X119137Y294564D01*
G37*
%LPD*%
%LPC*%
G36*
X313269Y470943D02*
X313269Y470943D01*
X311319Y471751D01*
X309826Y473244D01*
X309018Y475194D01*
X309018Y477306D01*
X309826Y479256D01*
X311319Y480749D01*
X313269Y481557D01*
X315381Y481557D01*
X317331Y480749D01*
X318893Y479187D01*
X318901Y479173D01*
X318903Y479172D01*
X318903Y479170D01*
X319008Y479072D01*
X319108Y478977D01*
X319110Y478977D01*
X319111Y478976D01*
X319236Y478911D01*
X319361Y478847D01*
X319362Y478847D01*
X319364Y478846D01*
X319379Y478844D01*
X319640Y478792D01*
X319670Y478795D01*
X319695Y478791D01*
X356580Y478791D01*
X356582Y478791D01*
X356583Y478791D01*
X356724Y478811D01*
X356862Y478831D01*
X356863Y478831D01*
X356865Y478831D01*
X356994Y478890D01*
X357121Y478947D01*
X357122Y478948D01*
X357124Y478949D01*
X357230Y479039D01*
X357338Y479130D01*
X357339Y479132D01*
X357340Y479133D01*
X357348Y479145D01*
X357363Y479168D01*
X358944Y480749D01*
X360894Y481557D01*
X363006Y481557D01*
X364956Y480749D01*
X366449Y479256D01*
X367257Y477306D01*
X367257Y475194D01*
X366449Y473244D01*
X364956Y471751D01*
X363006Y470943D01*
X360894Y470943D01*
X358944Y471751D01*
X357382Y473313D01*
X357374Y473327D01*
X357372Y473328D01*
X357372Y473330D01*
X357267Y473428D01*
X357167Y473523D01*
X357165Y473523D01*
X357164Y473524D01*
X357039Y473589D01*
X356914Y473653D01*
X356913Y473653D01*
X356911Y473654D01*
X356896Y473656D01*
X356635Y473708D01*
X356605Y473705D01*
X356580Y473709D01*
X319695Y473709D01*
X319693Y473709D01*
X319692Y473709D01*
X319551Y473689D01*
X319413Y473669D01*
X319412Y473669D01*
X319410Y473669D01*
X319281Y473610D01*
X319154Y473553D01*
X319153Y473552D01*
X319151Y473551D01*
X319045Y473461D01*
X318937Y473370D01*
X318936Y473368D01*
X318935Y473367D01*
X318927Y473355D01*
X318912Y473332D01*
X317331Y471751D01*
X315381Y470943D01*
X313269Y470943D01*
G37*
%LPD*%
%LPC*%
G36*
X90931Y240284D02*
X90931Y240284D01*
X90923Y240342D01*
X90924Y240400D01*
X90903Y240482D01*
X90891Y240565D01*
X90867Y240619D01*
X90853Y240675D01*
X90810Y240748D01*
X90775Y240825D01*
X90737Y240869D01*
X90707Y240920D01*
X90646Y240977D01*
X90591Y241042D01*
X90543Y241074D01*
X90500Y241114D01*
X90425Y241153D01*
X90355Y241199D01*
X90299Y241217D01*
X90247Y241244D01*
X90179Y241255D01*
X90084Y241285D01*
X89984Y241288D01*
X89916Y241299D01*
X87884Y241299D01*
X87826Y241291D01*
X87768Y241292D01*
X87686Y241271D01*
X87603Y241259D01*
X87549Y241235D01*
X87493Y241221D01*
X87420Y241178D01*
X87343Y241143D01*
X87298Y241105D01*
X87248Y241075D01*
X87190Y241014D01*
X87126Y240959D01*
X87094Y240911D01*
X87054Y240868D01*
X87015Y240793D01*
X86969Y240723D01*
X86951Y240667D01*
X86924Y240615D01*
X86913Y240547D01*
X86883Y240452D01*
X86880Y240352D01*
X86869Y240284D01*
X86869Y231415D01*
X86539Y231467D01*
X85030Y231958D01*
X84711Y232121D01*
X84644Y232143D01*
X84581Y232176D01*
X84521Y232186D01*
X84442Y232213D01*
X84324Y232219D01*
X84250Y232231D01*
X77859Y232231D01*
X77859Y248034D01*
X78032Y248681D01*
X78367Y249260D01*
X78840Y249733D01*
X79419Y250068D01*
X80066Y250241D01*
X83999Y250241D01*
X84069Y250251D01*
X84139Y250251D01*
X84198Y250269D01*
X84280Y250281D01*
X84388Y250329D01*
X84460Y250351D01*
X85030Y250642D01*
X86539Y251133D01*
X86869Y251185D01*
X86869Y242316D01*
X86877Y242258D01*
X86875Y242200D01*
X86897Y242118D01*
X86909Y242035D01*
X86933Y241981D01*
X86947Y241925D01*
X86990Y241852D01*
X87025Y241775D01*
X87063Y241731D01*
X87093Y241680D01*
X87154Y241623D01*
X87209Y241558D01*
X87257Y241526D01*
X87300Y241486D01*
X87375Y241447D01*
X87445Y241401D01*
X87501Y241383D01*
X87553Y241356D01*
X87621Y241345D01*
X87716Y241315D01*
X87816Y241312D01*
X87884Y241301D01*
X89916Y241301D01*
X89974Y241309D01*
X90032Y241308D01*
X90114Y241329D01*
X90197Y241341D01*
X90251Y241365D01*
X90307Y241379D01*
X90380Y241422D01*
X90457Y241457D01*
X90501Y241495D01*
X90552Y241525D01*
X90609Y241586D01*
X90674Y241641D01*
X90706Y241689D01*
X90746Y241732D01*
X90785Y241807D01*
X90831Y241877D01*
X90849Y241933D01*
X90876Y241985D01*
X90887Y242053D01*
X90917Y242148D01*
X90920Y242248D01*
X90931Y242316D01*
X90931Y251185D01*
X91261Y251133D01*
X92770Y250642D01*
X93340Y250351D01*
X93407Y250328D01*
X93470Y250296D01*
X93530Y250286D01*
X93609Y250259D01*
X93727Y250253D01*
X93801Y250241D01*
X97734Y250241D01*
X98381Y250068D01*
X98960Y249733D01*
X99433Y249260D01*
X99768Y248681D01*
X99941Y248034D01*
X99941Y232231D01*
X93550Y232231D01*
X93480Y232221D01*
X93409Y232221D01*
X93351Y232203D01*
X93268Y232191D01*
X93161Y232143D01*
X93089Y232121D01*
X92770Y231958D01*
X91261Y231467D01*
X90931Y231415D01*
X90931Y240284D01*
G37*
%LPD*%
%LPC*%
G36*
X90931Y418084D02*
X90931Y418084D01*
X90923Y418142D01*
X90924Y418200D01*
X90903Y418282D01*
X90891Y418365D01*
X90867Y418419D01*
X90853Y418475D01*
X90810Y418548D01*
X90775Y418625D01*
X90737Y418669D01*
X90707Y418720D01*
X90646Y418777D01*
X90591Y418842D01*
X90543Y418874D01*
X90500Y418914D01*
X90425Y418953D01*
X90355Y418999D01*
X90299Y419017D01*
X90247Y419044D01*
X90179Y419055D01*
X90084Y419085D01*
X89984Y419088D01*
X89916Y419099D01*
X87884Y419099D01*
X87826Y419091D01*
X87768Y419092D01*
X87686Y419071D01*
X87603Y419059D01*
X87549Y419035D01*
X87493Y419021D01*
X87420Y418978D01*
X87343Y418943D01*
X87298Y418905D01*
X87248Y418875D01*
X87190Y418814D01*
X87126Y418759D01*
X87094Y418711D01*
X87054Y418668D01*
X87015Y418593D01*
X86969Y418523D01*
X86951Y418467D01*
X86924Y418415D01*
X86913Y418347D01*
X86883Y418252D01*
X86880Y418152D01*
X86869Y418084D01*
X86869Y409215D01*
X86539Y409267D01*
X85030Y409758D01*
X84460Y410049D01*
X84393Y410072D01*
X84330Y410104D01*
X84270Y410114D01*
X84191Y410141D01*
X84073Y410147D01*
X83999Y410159D01*
X80066Y410159D01*
X79419Y410332D01*
X78840Y410667D01*
X78367Y411140D01*
X78032Y411719D01*
X77859Y412366D01*
X77859Y428169D01*
X84250Y428169D01*
X84320Y428179D01*
X84391Y428179D01*
X84449Y428197D01*
X84532Y428209D01*
X84639Y428257D01*
X84711Y428279D01*
X85030Y428442D01*
X86539Y428933D01*
X86869Y428985D01*
X86869Y420116D01*
X86877Y420058D01*
X86875Y420000D01*
X86897Y419918D01*
X86909Y419835D01*
X86933Y419781D01*
X86947Y419725D01*
X86990Y419652D01*
X87025Y419575D01*
X87063Y419531D01*
X87093Y419480D01*
X87154Y419423D01*
X87209Y419358D01*
X87257Y419326D01*
X87300Y419286D01*
X87375Y419247D01*
X87445Y419201D01*
X87501Y419183D01*
X87553Y419156D01*
X87621Y419145D01*
X87716Y419115D01*
X87816Y419112D01*
X87884Y419101D01*
X89916Y419101D01*
X89974Y419109D01*
X90032Y419108D01*
X90114Y419129D01*
X90197Y419141D01*
X90251Y419165D01*
X90307Y419179D01*
X90380Y419222D01*
X90457Y419257D01*
X90501Y419295D01*
X90552Y419325D01*
X90609Y419386D01*
X90674Y419441D01*
X90706Y419489D01*
X90746Y419532D01*
X90785Y419607D01*
X90831Y419677D01*
X90849Y419733D01*
X90876Y419785D01*
X90887Y419853D01*
X90917Y419948D01*
X90920Y420048D01*
X90931Y420116D01*
X90931Y428985D01*
X91261Y428933D01*
X92770Y428442D01*
X93089Y428279D01*
X93156Y428256D01*
X93219Y428224D01*
X93279Y428214D01*
X93358Y428187D01*
X93476Y428181D01*
X93550Y428169D01*
X99941Y428169D01*
X99941Y412366D01*
X99768Y411719D01*
X99433Y411140D01*
X98960Y410667D01*
X98381Y410332D01*
X97734Y410159D01*
X93801Y410159D01*
X93731Y410149D01*
X93661Y410149D01*
X93602Y410131D01*
X93520Y410119D01*
X93412Y410071D01*
X93340Y410049D01*
X92770Y409758D01*
X91261Y409267D01*
X90931Y409215D01*
X90931Y418084D01*
G37*
%LPD*%
%LPC*%
G36*
X217931Y418084D02*
X217931Y418084D01*
X217923Y418142D01*
X217924Y418200D01*
X217903Y418282D01*
X217891Y418365D01*
X217867Y418419D01*
X217853Y418475D01*
X217810Y418548D01*
X217775Y418625D01*
X217737Y418669D01*
X217707Y418720D01*
X217646Y418777D01*
X217591Y418842D01*
X217543Y418874D01*
X217500Y418914D01*
X217425Y418953D01*
X217355Y418999D01*
X217299Y419017D01*
X217247Y419044D01*
X217179Y419055D01*
X217084Y419085D01*
X216984Y419088D01*
X216916Y419099D01*
X214884Y419099D01*
X214826Y419091D01*
X214768Y419092D01*
X214686Y419071D01*
X214603Y419059D01*
X214549Y419035D01*
X214493Y419021D01*
X214420Y418978D01*
X214343Y418943D01*
X214298Y418905D01*
X214248Y418875D01*
X214190Y418814D01*
X214126Y418759D01*
X214094Y418711D01*
X214054Y418668D01*
X214015Y418593D01*
X213969Y418523D01*
X213951Y418467D01*
X213924Y418415D01*
X213913Y418347D01*
X213883Y418252D01*
X213880Y418152D01*
X213869Y418084D01*
X213869Y409215D01*
X213539Y409267D01*
X212030Y409758D01*
X211460Y410049D01*
X211393Y410072D01*
X211330Y410104D01*
X211270Y410114D01*
X211191Y410141D01*
X211073Y410147D01*
X210999Y410159D01*
X207066Y410159D01*
X206419Y410332D01*
X205840Y410667D01*
X205367Y411140D01*
X205032Y411719D01*
X204859Y412366D01*
X204859Y428169D01*
X211250Y428169D01*
X211320Y428179D01*
X211391Y428179D01*
X211449Y428197D01*
X211532Y428209D01*
X211639Y428257D01*
X211711Y428279D01*
X212030Y428442D01*
X213539Y428933D01*
X213869Y428985D01*
X213869Y420116D01*
X213877Y420058D01*
X213875Y420000D01*
X213897Y419918D01*
X213909Y419835D01*
X213933Y419781D01*
X213947Y419725D01*
X213990Y419652D01*
X214025Y419575D01*
X214063Y419531D01*
X214093Y419480D01*
X214154Y419423D01*
X214209Y419358D01*
X214257Y419326D01*
X214300Y419286D01*
X214375Y419247D01*
X214445Y419201D01*
X214501Y419183D01*
X214553Y419156D01*
X214621Y419145D01*
X214716Y419115D01*
X214816Y419112D01*
X214884Y419101D01*
X216916Y419101D01*
X216974Y419109D01*
X217032Y419108D01*
X217114Y419129D01*
X217197Y419141D01*
X217251Y419165D01*
X217307Y419179D01*
X217380Y419222D01*
X217457Y419257D01*
X217501Y419295D01*
X217552Y419325D01*
X217609Y419386D01*
X217674Y419441D01*
X217706Y419489D01*
X217746Y419532D01*
X217785Y419607D01*
X217831Y419677D01*
X217849Y419733D01*
X217876Y419785D01*
X217887Y419853D01*
X217917Y419948D01*
X217920Y420048D01*
X217931Y420116D01*
X217931Y428985D01*
X218261Y428933D01*
X219770Y428442D01*
X220089Y428279D01*
X220156Y428256D01*
X220219Y428224D01*
X220279Y428214D01*
X220358Y428187D01*
X220476Y428181D01*
X220550Y428169D01*
X226941Y428169D01*
X226941Y412366D01*
X226768Y411719D01*
X226433Y411140D01*
X225960Y410667D01*
X225381Y410332D01*
X224734Y410159D01*
X220801Y410159D01*
X220731Y410149D01*
X220661Y410149D01*
X220602Y410131D01*
X220520Y410119D01*
X220412Y410071D01*
X220340Y410049D01*
X219770Y409758D01*
X218261Y409267D01*
X217931Y409215D01*
X217931Y418084D01*
G37*
%LPD*%
G36*
X343974Y430209D02*
X343974Y430209D01*
X344032Y430208D01*
X344114Y430229D01*
X344197Y430241D01*
X344251Y430265D01*
X344307Y430279D01*
X344380Y430322D01*
X344457Y430357D01*
X344501Y430395D01*
X344552Y430425D01*
X344609Y430486D01*
X344674Y430541D01*
X344706Y430589D01*
X344746Y430632D01*
X344785Y430707D01*
X344831Y430777D01*
X344849Y430833D01*
X344876Y430885D01*
X344887Y430953D01*
X344917Y431048D01*
X344920Y431148D01*
X344931Y431216D01*
X344931Y450241D01*
X346407Y450241D01*
X346436Y450245D01*
X346466Y450242D01*
X346577Y450265D01*
X346689Y450281D01*
X346715Y450292D01*
X346744Y450298D01*
X346845Y450350D01*
X346948Y450397D01*
X346971Y450416D01*
X346997Y450429D01*
X347079Y450507D01*
X347165Y450580D01*
X347181Y450605D01*
X347203Y450625D01*
X347260Y450723D01*
X347323Y450817D01*
X347332Y450845D01*
X347346Y450870D01*
X347374Y450980D01*
X347409Y451088D01*
X347409Y451117D01*
X347417Y451146D01*
X347413Y451259D01*
X347416Y451372D01*
X347408Y451401D01*
X347407Y451430D01*
X347373Y451538D01*
X347344Y451647D01*
X347329Y451673D01*
X347320Y451700D01*
X347274Y451764D01*
X347199Y451892D01*
X347162Y451926D01*
X347158Y451932D01*
X347148Y451942D01*
X347125Y451974D01*
X344585Y454514D01*
X344515Y454566D01*
X344451Y454626D01*
X344402Y454652D01*
X344358Y454685D01*
X344276Y454716D01*
X344198Y454756D01*
X344151Y454764D01*
X344092Y454786D01*
X343945Y454798D01*
X343867Y454811D01*
X328525Y454811D01*
X328496Y454807D01*
X328467Y454810D01*
X328356Y454787D01*
X328244Y454771D01*
X328217Y454759D01*
X328188Y454754D01*
X328088Y454702D01*
X327984Y454655D01*
X327962Y454636D01*
X327936Y454623D01*
X327854Y454545D01*
X327767Y454472D01*
X327751Y454447D01*
X327730Y454427D01*
X327672Y454329D01*
X327610Y454235D01*
X327601Y454207D01*
X327586Y454182D01*
X327558Y454072D01*
X327524Y453964D01*
X327523Y453934D01*
X327516Y453906D01*
X327519Y453793D01*
X327516Y453680D01*
X327524Y453651D01*
X327525Y453622D01*
X327560Y453514D01*
X327588Y453405D01*
X327603Y453379D01*
X327612Y453351D01*
X327658Y453288D01*
X327734Y453160D01*
X327779Y453117D01*
X327807Y453078D01*
X331278Y449607D01*
X331325Y449572D01*
X331365Y449529D01*
X331438Y449487D01*
X331505Y449436D01*
X331560Y449415D01*
X331611Y449386D01*
X331692Y449365D01*
X331771Y449335D01*
X331829Y449330D01*
X331886Y449316D01*
X331970Y449318D01*
X332054Y449311D01*
X332112Y449323D01*
X332170Y449325D01*
X332250Y449351D01*
X332333Y449367D01*
X332385Y449394D01*
X332441Y449412D01*
X332497Y449452D01*
X332585Y449498D01*
X332658Y449567D01*
X332714Y449607D01*
X332840Y449733D01*
X333419Y450068D01*
X334066Y450241D01*
X340869Y450241D01*
X340869Y431216D01*
X340877Y431158D01*
X340875Y431100D01*
X340897Y431018D01*
X340909Y430935D01*
X340933Y430881D01*
X340947Y430825D01*
X340990Y430752D01*
X341025Y430675D01*
X341063Y430631D01*
X341093Y430580D01*
X341154Y430523D01*
X341209Y430458D01*
X341257Y430426D01*
X341300Y430386D01*
X341375Y430347D01*
X341445Y430301D01*
X341501Y430283D01*
X341553Y430256D01*
X341621Y430245D01*
X341716Y430215D01*
X341816Y430212D01*
X341884Y430201D01*
X343916Y430201D01*
X343974Y430209D01*
G37*
%LPC*%
G36*
X90931Y432231D02*
X90931Y432231D01*
X90931Y450241D01*
X97734Y450241D01*
X98381Y450068D01*
X98960Y449733D01*
X99433Y449260D01*
X99768Y448681D01*
X99941Y448034D01*
X99941Y432231D01*
X90931Y432231D01*
G37*
%LPD*%
%LPC*%
G36*
X471931Y432231D02*
X471931Y432231D01*
X471931Y450241D01*
X478734Y450241D01*
X479381Y450068D01*
X479960Y449733D01*
X480433Y449260D01*
X480768Y448681D01*
X480941Y448034D01*
X480941Y432231D01*
X471931Y432231D01*
G37*
%LPD*%
%LPC*%
G36*
X217931Y432231D02*
X217931Y432231D01*
X217931Y450241D01*
X224734Y450241D01*
X225381Y450068D01*
X225960Y449733D01*
X226433Y449260D01*
X226768Y448681D01*
X226941Y448034D01*
X226941Y432231D01*
X217931Y432231D01*
G37*
%LPD*%
%LPC*%
G36*
X90931Y210159D02*
X90931Y210159D01*
X90931Y228169D01*
X99941Y228169D01*
X99941Y212366D01*
X99768Y211719D01*
X99433Y211140D01*
X98960Y210667D01*
X98381Y210332D01*
X97734Y210159D01*
X90931Y210159D01*
G37*
%LPD*%
%LPC*%
G36*
X458859Y432231D02*
X458859Y432231D01*
X458859Y448034D01*
X459032Y448681D01*
X459367Y449260D01*
X459840Y449733D01*
X460419Y450068D01*
X461066Y450241D01*
X467869Y450241D01*
X467869Y432231D01*
X458859Y432231D01*
G37*
%LPD*%
%LPC*%
G36*
X77859Y432231D02*
X77859Y432231D01*
X77859Y448034D01*
X78032Y448681D01*
X78367Y449260D01*
X78840Y449733D01*
X79419Y450068D01*
X80066Y450241D01*
X86869Y450241D01*
X86869Y432231D01*
X77859Y432231D01*
G37*
%LPD*%
%LPC*%
G36*
X80066Y210159D02*
X80066Y210159D01*
X79419Y210332D01*
X78840Y210667D01*
X78367Y211140D01*
X78032Y211719D01*
X77859Y212366D01*
X77859Y228169D01*
X86869Y228169D01*
X86869Y210159D01*
X80066Y210159D01*
G37*
%LPD*%
%LPC*%
G36*
X207066Y210159D02*
X207066Y210159D01*
X206419Y210332D01*
X205840Y210667D01*
X205367Y211140D01*
X205032Y211719D01*
X204859Y212366D01*
X204859Y228169D01*
X213869Y228169D01*
X213869Y210159D01*
X207066Y210159D01*
G37*
%LPD*%
%LPC*%
G36*
X334066Y210159D02*
X334066Y210159D01*
X333419Y210332D01*
X332840Y210667D01*
X332367Y211140D01*
X332032Y211719D01*
X331859Y212366D01*
X331859Y228169D01*
X340869Y228169D01*
X340869Y210159D01*
X334066Y210159D01*
G37*
%LPD*%
%LPC*%
G36*
X110743Y477900D02*
X110743Y477900D01*
X110743Y486030D01*
X117132Y486030D01*
X118711Y485780D01*
X120232Y485285D01*
X121657Y484559D01*
X122951Y483619D01*
X124082Y482488D01*
X125022Y481194D01*
X125748Y479769D01*
X126243Y478248D01*
X126298Y477900D01*
X110743Y477900D01*
G37*
%LPD*%
%LPC*%
G36*
X45719Y477900D02*
X45719Y477900D01*
X45719Y486030D01*
X52108Y486030D01*
X53687Y485780D01*
X55208Y485285D01*
X56633Y484559D01*
X57927Y483619D01*
X59058Y482488D01*
X59998Y481194D01*
X60724Y479769D01*
X61219Y478248D01*
X61274Y477900D01*
X45719Y477900D01*
G37*
%LPD*%
%LPC*%
G36*
X579881Y322706D02*
X579881Y322706D01*
X579881Y330836D01*
X586270Y330836D01*
X587849Y330586D01*
X589370Y330091D01*
X590795Y329365D01*
X592089Y328425D01*
X593220Y327294D01*
X594160Y326000D01*
X594886Y324575D01*
X595381Y323054D01*
X595436Y322706D01*
X579881Y322706D01*
G37*
%LPD*%
%LPC*%
G36*
X576706Y417956D02*
X576706Y417956D01*
X576706Y426086D01*
X583095Y426086D01*
X584674Y425836D01*
X586195Y425341D01*
X587620Y424615D01*
X588914Y423675D01*
X590045Y422544D01*
X590985Y421250D01*
X591711Y419825D01*
X592206Y418304D01*
X592261Y417956D01*
X576706Y417956D01*
G37*
%LPD*%
%LPC*%
G36*
X446531Y40131D02*
X446531Y40131D01*
X446531Y55686D01*
X446879Y55631D01*
X448400Y55136D01*
X449825Y54410D01*
X451119Y53470D01*
X452250Y52339D01*
X453190Y51045D01*
X453916Y49620D01*
X454411Y48099D01*
X454661Y46520D01*
X454661Y40131D01*
X446531Y40131D01*
G37*
%LPD*%
%LPC*%
G36*
X421131Y40131D02*
X421131Y40131D01*
X421131Y55686D01*
X421479Y55631D01*
X423000Y55136D01*
X424425Y54410D01*
X425719Y53470D01*
X426850Y52339D01*
X427790Y51045D01*
X428516Y49620D01*
X429011Y48099D01*
X429261Y46520D01*
X429261Y40131D01*
X421131Y40131D01*
G37*
%LPD*%
%LPC*%
G36*
X557089Y417956D02*
X557089Y417956D01*
X557144Y418304D01*
X557639Y419825D01*
X558365Y421250D01*
X559305Y422544D01*
X560436Y423675D01*
X561730Y424615D01*
X563155Y425341D01*
X564676Y425836D01*
X566255Y426086D01*
X572644Y426086D01*
X572644Y417956D01*
X557089Y417956D01*
G37*
%LPD*%
%LPC*%
G36*
X26102Y477900D02*
X26102Y477900D01*
X26157Y478248D01*
X26652Y479769D01*
X27378Y481194D01*
X28318Y482488D01*
X29449Y483619D01*
X30743Y484559D01*
X32168Y485285D01*
X33689Y485780D01*
X35268Y486030D01*
X41657Y486030D01*
X41657Y477900D01*
X26102Y477900D01*
G37*
%LPD*%
%LPC*%
G36*
X91126Y477900D02*
X91126Y477900D01*
X91181Y478248D01*
X91676Y479769D01*
X92402Y481194D01*
X93342Y482488D01*
X94473Y483619D01*
X95767Y484559D01*
X97192Y485285D01*
X98713Y485780D01*
X100292Y486030D01*
X106681Y486030D01*
X106681Y477900D01*
X91126Y477900D01*
G37*
%LPD*%
%LPC*%
G36*
X278891Y518669D02*
X278891Y518669D01*
X287021Y518669D01*
X287021Y512280D01*
X286771Y510701D01*
X286276Y509180D01*
X285550Y507755D01*
X284610Y506461D01*
X283479Y505330D01*
X282185Y504390D01*
X280760Y503664D01*
X279239Y503169D01*
X278891Y503114D01*
X278891Y518669D01*
G37*
%LPD*%
%LPC*%
G36*
X408939Y40131D02*
X408939Y40131D01*
X408939Y46520D01*
X409189Y48099D01*
X409684Y49620D01*
X410410Y51045D01*
X411350Y52339D01*
X412481Y53470D01*
X413775Y54410D01*
X415200Y55136D01*
X416721Y55631D01*
X417069Y55686D01*
X417069Y40131D01*
X408939Y40131D01*
G37*
%LPD*%
%LPC*%
G36*
X434339Y40131D02*
X434339Y40131D01*
X434339Y46520D01*
X434589Y48099D01*
X435084Y49620D01*
X435810Y51045D01*
X436750Y52339D01*
X437881Y53470D01*
X439175Y54410D01*
X440600Y55136D01*
X442121Y55631D01*
X442469Y55686D01*
X442469Y40131D01*
X434339Y40131D01*
G37*
%LPD*%
%LPC*%
G36*
X45719Y465708D02*
X45719Y465708D01*
X45719Y473838D01*
X61274Y473838D01*
X61219Y473490D01*
X60724Y471969D01*
X59998Y470544D01*
X59058Y469250D01*
X57927Y468119D01*
X56633Y467179D01*
X55208Y466453D01*
X53687Y465958D01*
X52108Y465708D01*
X45719Y465708D01*
G37*
%LPD*%
%LPC*%
G36*
X110743Y465708D02*
X110743Y465708D01*
X110743Y473838D01*
X126298Y473838D01*
X126243Y473490D01*
X125748Y471969D01*
X125022Y470544D01*
X124082Y469250D01*
X122951Y468119D01*
X121657Y467179D01*
X120232Y466453D01*
X118711Y465958D01*
X117132Y465708D01*
X110743Y465708D01*
G37*
%LPD*%
%LPC*%
G36*
X579881Y310514D02*
X579881Y310514D01*
X579881Y318644D01*
X595436Y318644D01*
X595381Y318296D01*
X594886Y316775D01*
X594160Y315350D01*
X593220Y314056D01*
X592089Y312925D01*
X590795Y311985D01*
X589370Y311259D01*
X587849Y310764D01*
X586270Y310514D01*
X579881Y310514D01*
G37*
%LPD*%
%LPC*%
G36*
X576706Y405764D02*
X576706Y405764D01*
X576706Y413894D01*
X592261Y413894D01*
X592206Y413546D01*
X591711Y412025D01*
X590985Y410600D01*
X590045Y409306D01*
X588914Y408175D01*
X587620Y407235D01*
X586195Y406509D01*
X584674Y406014D01*
X583095Y405764D01*
X576706Y405764D01*
G37*
%LPD*%
%LPC*%
G36*
X35268Y465708D02*
X35268Y465708D01*
X33689Y465958D01*
X32168Y466453D01*
X30743Y467179D01*
X29449Y468119D01*
X28318Y469250D01*
X27378Y470544D01*
X26652Y471969D01*
X26157Y473490D01*
X26102Y473838D01*
X41657Y473838D01*
X41657Y465708D01*
X35268Y465708D01*
G37*
%LPD*%
%LPC*%
G36*
X566255Y405764D02*
X566255Y405764D01*
X564676Y406014D01*
X563155Y406509D01*
X561730Y407235D01*
X560436Y408175D01*
X559305Y409306D01*
X558365Y410600D01*
X557639Y412025D01*
X557144Y413546D01*
X557089Y413894D01*
X572644Y413894D01*
X572644Y405764D01*
X566255Y405764D01*
G37*
%LPD*%
%LPC*%
G36*
X100292Y465708D02*
X100292Y465708D01*
X98713Y465958D01*
X97192Y466453D01*
X95767Y467179D01*
X94473Y468119D01*
X93342Y469250D01*
X92402Y470544D01*
X91676Y471969D01*
X91181Y473490D01*
X91126Y473838D01*
X106681Y473838D01*
X106681Y465708D01*
X100292Y465708D01*
G37*
%LPD*%
%LPC*%
G36*
X274481Y503169D02*
X274481Y503169D01*
X272960Y503664D01*
X271535Y504390D01*
X270241Y505330D01*
X269110Y506461D01*
X268170Y507755D01*
X267444Y509180D01*
X266949Y510701D01*
X266699Y512280D01*
X266699Y518669D01*
X274829Y518669D01*
X274829Y503114D01*
X274481Y503169D01*
G37*
%LPD*%
G36*
X470974Y230209D02*
X470974Y230209D01*
X471032Y230208D01*
X471114Y230229D01*
X471197Y230241D01*
X471251Y230265D01*
X471307Y230279D01*
X471380Y230322D01*
X471457Y230357D01*
X471501Y230395D01*
X471552Y230425D01*
X471609Y230486D01*
X471674Y230541D01*
X471706Y230589D01*
X471746Y230632D01*
X471785Y230707D01*
X471831Y230777D01*
X471849Y230833D01*
X471876Y230885D01*
X471887Y230953D01*
X471917Y231048D01*
X471920Y231148D01*
X471931Y231216D01*
X471931Y240284D01*
X471923Y240342D01*
X471924Y240400D01*
X471903Y240482D01*
X471891Y240565D01*
X471867Y240619D01*
X471853Y240675D01*
X471810Y240748D01*
X471775Y240825D01*
X471737Y240869D01*
X471707Y240920D01*
X471646Y240977D01*
X471591Y241042D01*
X471543Y241074D01*
X471500Y241114D01*
X471425Y241153D01*
X471355Y241199D01*
X471299Y241217D01*
X471247Y241244D01*
X471179Y241255D01*
X471084Y241285D01*
X470984Y241288D01*
X470916Y241299D01*
X468884Y241299D01*
X468826Y241291D01*
X468768Y241292D01*
X468686Y241271D01*
X468603Y241259D01*
X468549Y241235D01*
X468493Y241221D01*
X468420Y241178D01*
X468343Y241143D01*
X468298Y241105D01*
X468248Y241075D01*
X468190Y241014D01*
X468126Y240959D01*
X468094Y240911D01*
X468054Y240868D01*
X468015Y240793D01*
X467969Y240723D01*
X467951Y240667D01*
X467924Y240615D01*
X467913Y240547D01*
X467883Y240452D01*
X467880Y240352D01*
X467869Y240284D01*
X467869Y231216D01*
X467877Y231158D01*
X467875Y231100D01*
X467897Y231018D01*
X467909Y230935D01*
X467933Y230881D01*
X467947Y230825D01*
X467990Y230752D01*
X468025Y230675D01*
X468063Y230631D01*
X468093Y230580D01*
X468154Y230523D01*
X468209Y230458D01*
X468257Y230426D01*
X468300Y230386D01*
X468375Y230347D01*
X468445Y230301D01*
X468501Y230283D01*
X468553Y230256D01*
X468621Y230245D01*
X468716Y230215D01*
X468816Y230212D01*
X468884Y230201D01*
X470916Y230201D01*
X470974Y230209D01*
G37*
G36*
X343974Y419109D02*
X343974Y419109D01*
X344032Y419108D01*
X344114Y419129D01*
X344197Y419141D01*
X344251Y419165D01*
X344307Y419179D01*
X344380Y419222D01*
X344457Y419257D01*
X344501Y419295D01*
X344552Y419325D01*
X344609Y419386D01*
X344674Y419441D01*
X344706Y419489D01*
X344746Y419532D01*
X344785Y419607D01*
X344831Y419677D01*
X344849Y419733D01*
X344876Y419785D01*
X344887Y419853D01*
X344917Y419948D01*
X344920Y420048D01*
X344931Y420116D01*
X344931Y429184D01*
X344923Y429242D01*
X344924Y429300D01*
X344903Y429382D01*
X344891Y429465D01*
X344867Y429519D01*
X344853Y429575D01*
X344810Y429648D01*
X344775Y429725D01*
X344737Y429769D01*
X344707Y429820D01*
X344646Y429877D01*
X344591Y429942D01*
X344543Y429974D01*
X344500Y430014D01*
X344425Y430053D01*
X344355Y430099D01*
X344299Y430117D01*
X344247Y430144D01*
X344179Y430155D01*
X344084Y430185D01*
X343984Y430188D01*
X343916Y430199D01*
X341884Y430199D01*
X341826Y430191D01*
X341768Y430192D01*
X341686Y430171D01*
X341603Y430159D01*
X341549Y430135D01*
X341493Y430121D01*
X341420Y430078D01*
X341343Y430043D01*
X341298Y430005D01*
X341248Y429975D01*
X341190Y429914D01*
X341126Y429859D01*
X341094Y429811D01*
X341054Y429768D01*
X341015Y429693D01*
X340969Y429623D01*
X340951Y429567D01*
X340924Y429515D01*
X340913Y429447D01*
X340883Y429352D01*
X340880Y429252D01*
X340869Y429184D01*
X340869Y420116D01*
X340877Y420058D01*
X340875Y420000D01*
X340897Y419918D01*
X340909Y419835D01*
X340933Y419781D01*
X340947Y419725D01*
X340990Y419652D01*
X341025Y419575D01*
X341063Y419531D01*
X341093Y419480D01*
X341154Y419423D01*
X341209Y419358D01*
X341257Y419326D01*
X341300Y419286D01*
X341375Y419247D01*
X341445Y419201D01*
X341501Y419183D01*
X341553Y419156D01*
X341621Y419145D01*
X341716Y419115D01*
X341816Y419112D01*
X341884Y419101D01*
X343916Y419101D01*
X343974Y419109D01*
G37*
G36*
X470974Y411569D02*
X470974Y411569D01*
X471032Y411567D01*
X471114Y411589D01*
X471197Y411601D01*
X471251Y411624D01*
X471307Y411639D01*
X471380Y411682D01*
X471457Y411717D01*
X471501Y411755D01*
X471552Y411784D01*
X471609Y411846D01*
X471674Y411900D01*
X471706Y411949D01*
X471746Y411992D01*
X471785Y412067D01*
X471831Y412137D01*
X471849Y412193D01*
X471876Y412245D01*
X471887Y412313D01*
X471917Y412408D01*
X471920Y412508D01*
X471931Y412576D01*
X471931Y418084D01*
X471923Y418142D01*
X471924Y418200D01*
X471903Y418282D01*
X471891Y418365D01*
X471867Y418419D01*
X471853Y418475D01*
X471810Y418548D01*
X471775Y418625D01*
X471737Y418669D01*
X471707Y418720D01*
X471646Y418777D01*
X471591Y418842D01*
X471543Y418874D01*
X471500Y418914D01*
X471425Y418953D01*
X471355Y418999D01*
X471299Y419017D01*
X471247Y419044D01*
X471179Y419055D01*
X471084Y419085D01*
X470984Y419088D01*
X470916Y419099D01*
X468884Y419099D01*
X468826Y419091D01*
X468768Y419092D01*
X468686Y419071D01*
X468603Y419059D01*
X468549Y419035D01*
X468493Y419021D01*
X468420Y418978D01*
X468343Y418943D01*
X468298Y418905D01*
X468248Y418875D01*
X468190Y418814D01*
X468126Y418759D01*
X468094Y418711D01*
X468054Y418668D01*
X468015Y418593D01*
X467969Y418523D01*
X467951Y418467D01*
X467924Y418415D01*
X467913Y418347D01*
X467883Y418252D01*
X467880Y418152D01*
X467869Y418084D01*
X467869Y412576D01*
X467877Y412518D01*
X467875Y412460D01*
X467897Y412378D01*
X467909Y412294D01*
X467933Y412241D01*
X467947Y412185D01*
X467990Y412112D01*
X468025Y412035D01*
X468063Y411990D01*
X468093Y411940D01*
X468154Y411882D01*
X468209Y411818D01*
X468257Y411786D01*
X468300Y411746D01*
X468375Y411707D01*
X468445Y411660D01*
X468501Y411643D01*
X468553Y411616D01*
X468621Y411605D01*
X468716Y411575D01*
X468816Y411572D01*
X468884Y411561D01*
X470916Y411561D01*
X470974Y411569D01*
G37*
%LPC*%
G36*
X574674Y415924D02*
X574674Y415924D01*
X574674Y415926D01*
X574676Y415926D01*
X574676Y415924D01*
X574674Y415924D01*
G37*
%LPD*%
%LPC*%
G36*
X108711Y475868D02*
X108711Y475868D01*
X108711Y475870D01*
X108713Y475870D01*
X108713Y475868D01*
X108711Y475868D01*
G37*
%LPD*%
%LPC*%
G36*
X43687Y475868D02*
X43687Y475868D01*
X43687Y475870D01*
X43689Y475870D01*
X43689Y475868D01*
X43687Y475868D01*
G37*
%LPD*%
%LPC*%
G36*
X88899Y230199D02*
X88899Y230199D01*
X88899Y230201D01*
X88901Y230201D01*
X88901Y230199D01*
X88899Y230199D01*
G37*
%LPD*%
%LPC*%
G36*
X88899Y430199D02*
X88899Y430199D01*
X88899Y430201D01*
X88901Y430201D01*
X88901Y430199D01*
X88899Y430199D01*
G37*
%LPD*%
%LPC*%
G36*
X215899Y430199D02*
X215899Y430199D01*
X215899Y430201D01*
X215901Y430201D01*
X215901Y430199D01*
X215899Y430199D01*
G37*
%LPD*%
%LPC*%
G36*
X469899Y430199D02*
X469899Y430199D01*
X469899Y430201D01*
X469901Y430201D01*
X469901Y430199D01*
X469899Y430199D01*
G37*
%LPD*%
D10*
X251460Y513080D02*
X251460Y528320D01*
X276860Y528320D02*
X276860Y513080D01*
X302260Y513080D02*
X302260Y528320D01*
X327660Y528320D02*
X327660Y513080D01*
X353060Y513080D02*
X353060Y528320D01*
X378460Y528320D02*
X378460Y513080D01*
X403860Y513080D02*
X403860Y528320D01*
X429260Y528320D02*
X429260Y513080D01*
X469900Y513080D02*
X469900Y528320D01*
X495300Y528320D02*
X495300Y513080D01*
X520700Y513080D02*
X520700Y528320D01*
X546100Y528320D02*
X546100Y513080D01*
X571500Y513080D02*
X571500Y528320D01*
X596900Y528320D02*
X596900Y513080D01*
X622300Y513080D02*
X622300Y528320D01*
X647700Y528320D02*
X647700Y513080D01*
X342900Y45720D02*
X342900Y30480D01*
X368300Y30480D02*
X368300Y45720D01*
X393700Y45720D02*
X393700Y30480D01*
X419100Y30480D02*
X419100Y45720D01*
X444500Y45720D02*
X444500Y30480D01*
X469900Y30480D02*
X469900Y45720D01*
X520700Y45720D02*
X520700Y30480D01*
X546100Y30480D02*
X546100Y45720D01*
X571500Y45720D02*
X571500Y30480D01*
X596900Y30480D02*
X596900Y45720D01*
X622300Y45720D02*
X622300Y30480D01*
X647700Y30480D02*
X647700Y45720D01*
D11*
X38100Y241300D03*
X63500Y241300D03*
X190500Y241300D03*
X215900Y241300D03*
X88900Y241300D03*
X114300Y241300D03*
X165100Y241300D03*
X139700Y241300D03*
X241300Y241300D03*
X266700Y241300D03*
X292100Y241300D03*
X317500Y241300D03*
X342900Y241300D03*
X368300Y241300D03*
X393700Y241300D03*
X419100Y241300D03*
X444500Y241300D03*
X469900Y241300D03*
X495300Y241300D03*
X520700Y241300D03*
X520700Y419100D03*
X495300Y419100D03*
X469900Y419100D03*
X444500Y419100D03*
X419100Y419100D03*
X393700Y419100D03*
X368300Y419100D03*
X342900Y419100D03*
X317500Y419100D03*
X292100Y419100D03*
X266700Y419100D03*
X241300Y419100D03*
X215900Y419100D03*
X190500Y419100D03*
X165100Y419100D03*
X139700Y419100D03*
X114300Y419100D03*
X88900Y419100D03*
X63500Y419100D03*
X38100Y419100D03*
D12*
X38100Y230200D03*
X63500Y230200D03*
X88900Y230200D03*
X114300Y230200D03*
X139700Y230200D03*
X165100Y230200D03*
X190500Y230200D03*
X215900Y230200D03*
X241300Y230200D03*
X266700Y230200D03*
X292100Y230200D03*
X317500Y230200D03*
X342900Y230200D03*
X368300Y230200D03*
X393700Y230200D03*
X419100Y230200D03*
X444500Y230200D03*
X469900Y230200D03*
X495300Y230200D03*
X520700Y230200D03*
X520700Y430200D03*
X495300Y430200D03*
X469900Y430200D03*
X444500Y430200D03*
X419100Y430200D03*
X393700Y430200D03*
X368300Y430200D03*
X342900Y430200D03*
X317500Y430200D03*
X292100Y430200D03*
X266700Y430200D03*
X241300Y430200D03*
X215900Y430200D03*
X190500Y430200D03*
X165100Y430200D03*
X139700Y430200D03*
X114300Y430200D03*
X88900Y430200D03*
X63500Y430200D03*
X38100Y430200D03*
D11*
X518400Y304800D03*
X518400Y330200D03*
X518400Y355600D03*
D13*
X528650Y304800D03*
X528650Y330200D03*
X528650Y355600D03*
D14*
X200025Y513160D02*
X200025Y528240D01*
X225425Y528240D02*
X225425Y513160D01*
D10*
X567055Y365125D02*
X582295Y365125D01*
X582295Y390525D02*
X567055Y390525D01*
X567055Y415925D02*
X582295Y415925D01*
X585470Y219075D02*
X570230Y219075D01*
X570230Y244475D02*
X585470Y244475D01*
X585470Y269875D02*
X570230Y269875D01*
X570230Y295275D02*
X585470Y295275D01*
X585470Y320675D02*
X570230Y320675D01*
X51308Y521081D02*
X36068Y521081D01*
X36068Y475869D02*
X51308Y475869D01*
X101092Y521081D02*
X116332Y521081D01*
X116332Y475869D02*
X101092Y475869D01*
D15*
X303140Y448752D02*
X303140Y301964D01*
X303140Y448752D02*
X301652Y450240D01*
X282548Y450240D01*
X353940Y204860D02*
X520700Y38100D01*
X270458Y438150D02*
X266700Y438150D01*
X270458Y438150D02*
X282548Y450240D01*
X353940Y251164D02*
X353940Y204860D01*
X353940Y251164D02*
X303140Y301964D01*
X266700Y419100D02*
X266700Y438150D01*
X379340Y204860D02*
X546100Y38100D01*
X328540Y300643D02*
X328540Y448752D01*
X323496Y453796D01*
X260704Y453796D01*
X379340Y249843D02*
X379340Y204860D01*
X379340Y249843D02*
X328540Y300643D01*
X241883Y434975D02*
X260704Y453796D01*
X241883Y434975D02*
X238125Y434975D01*
X238125Y422275D01*
X241300Y419100D01*
X404740Y204860D02*
X571500Y38100D01*
X353940Y302497D02*
X353940Y448752D01*
X345340Y457352D01*
X404740Y251697D02*
X404740Y204860D01*
X404740Y251697D02*
X353940Y302497D01*
X190500Y419100D02*
X190500Y434975D01*
X212877Y457352D02*
X345340Y457352D01*
X212877Y457352D02*
X190500Y434975D01*
D16*
X324100Y107700D02*
X393700Y38100D01*
D15*
X259817Y460908D02*
X200025Y520700D01*
X259817Y460908D02*
X367184Y460908D01*
X379121Y448971D01*
X520700Y241300D02*
X520700Y222250D01*
X379340Y448752D02*
X379121Y448971D01*
X379340Y382660D02*
X520700Y241300D01*
X379340Y382660D02*
X379340Y448752D01*
X281661Y464464D02*
X225425Y520700D01*
X404521Y448971D02*
X404740Y448752D01*
X404521Y448971D02*
X389028Y464464D01*
X281661Y464464D01*
X509660Y211648D02*
X511148Y210160D01*
X530252Y210160D01*
X531740Y211648D01*
X531740Y248752D01*
X404740Y375752D02*
X404740Y448752D01*
X404740Y375752D02*
X531740Y248752D01*
X509660Y215840D02*
X495300Y230200D01*
X509660Y215840D02*
X509660Y211648D01*
X549275Y390525D02*
X574675Y390525D01*
X549275Y390525D02*
X520700Y419100D01*
X577850Y298687D02*
X577850Y295275D01*
X577850Y298687D02*
X560070Y316467D01*
X560070Y328532D01*
X592455Y360917D01*
X592455Y372745D01*
X574675Y390525D01*
X552831Y386969D02*
X574675Y365125D01*
X502208Y419100D02*
X495300Y419100D01*
X534339Y386969D02*
X552831Y386969D01*
X534339Y386969D02*
X502208Y419100D01*
X574675Y348166D02*
X556514Y330005D01*
X574675Y348166D02*
X574675Y365125D01*
X556514Y291211D02*
X577850Y269875D01*
X556514Y291211D02*
X556514Y330005D01*
X577850Y247887D02*
X577850Y244475D01*
X577850Y247887D02*
X552958Y272779D01*
X552958Y355092D01*
X548690Y359360D02*
X548690Y365152D01*
X451408Y419100D02*
X444500Y419100D01*
X504822Y409020D02*
X548690Y365152D01*
X461488Y409020D02*
X451408Y419100D01*
X461488Y409020D02*
X504822Y409020D01*
X548690Y359360D02*
X552958Y355092D01*
X508320Y329880D02*
X419100Y419100D01*
X577850Y222487D02*
X577850Y219075D01*
X577850Y222487D02*
X508320Y292017D01*
X508320Y329880D01*
X393700Y346075D02*
X393700Y285192D01*
X430140Y248752D01*
D17*
X393700Y346075D03*
D15*
X457200Y165100D02*
X463550Y165100D01*
D17*
X463550Y165100D03*
D15*
X430140Y192160D02*
X430140Y248752D01*
X430140Y192160D02*
X457200Y165100D01*
X400022Y348694D02*
X396319Y352397D01*
X400022Y348694D02*
X400022Y304270D01*
X455540Y248752D01*
X384203Y352397D02*
X371475Y365125D01*
X384203Y352397D02*
X396319Y352397D01*
D17*
X371475Y365125D03*
D15*
X455540Y188985D02*
X469900Y174625D01*
D17*
X469900Y174625D03*
D15*
X455540Y188985D02*
X455540Y248752D01*
X382298Y371447D02*
X371503Y371447D01*
X361950Y381000D01*
X382298Y371447D02*
X480940Y272805D01*
D17*
X361950Y381000D03*
X361950Y476250D03*
D15*
X314325Y476250D01*
D17*
X314325Y476250D03*
D15*
X480940Y154060D02*
X596900Y38100D01*
X480940Y154060D02*
X480940Y272805D01*
D17*
X219075Y171450D03*
D15*
X219075Y203783D01*
X226940Y211648D01*
X226940Y353940D02*
X292100Y419100D01*
X226940Y353940D02*
X226940Y211648D01*
X179460Y450333D02*
X108712Y521081D01*
X179460Y450333D02*
X179460Y411648D01*
X226940Y364168D02*
X226940Y353940D01*
X226940Y364168D02*
X179460Y411648D01*
X108712Y521081D02*
X43688Y521081D01*
M02*
