G04 EAGLE Gerber RS-274X export*
G75*
%MOMM*%
%FSLAX34Y34*%
%LPD*%
%IN*%
%IPPOS*%
%AMOC8*
5,1,8,0,0,1.08239X$1,22.5*%
G01*
%ADD10C,0.254000*%


D10*
X12700Y12700D02*
X673100Y12700D01*
X673100Y38100D01*
X698375Y63500D01*
X698500Y390525D01*
X672975Y415800D01*
X672975Y530350D01*
X657225Y546100D01*
X12700Y546000D01*
X12700Y12700D01*
X181100Y520176D02*
X181032Y519131D01*
X180895Y518092D01*
X180690Y517065D01*
X180419Y516053D01*
X180083Y515061D01*
X179682Y514093D01*
X179218Y513154D01*
X178695Y512246D01*
X178113Y511375D01*
X177475Y510544D01*
X176784Y509757D01*
X176043Y509016D01*
X175256Y508325D01*
X174425Y507688D01*
X173554Y507106D01*
X172646Y506582D01*
X171707Y506118D01*
X170739Y505717D01*
X169747Y505381D01*
X168735Y505110D01*
X167708Y504905D01*
X166669Y504769D01*
X165624Y504700D01*
X164576Y504700D01*
X163531Y504769D01*
X162492Y504905D01*
X161465Y505110D01*
X160453Y505381D01*
X159461Y505717D01*
X158493Y506118D01*
X157554Y506582D01*
X156646Y507106D01*
X155775Y507688D01*
X154944Y508325D01*
X154157Y509016D01*
X153416Y509757D01*
X152725Y510544D01*
X152088Y511375D01*
X151506Y512246D01*
X150982Y513154D01*
X150518Y514093D01*
X150117Y515061D01*
X149781Y516053D01*
X149510Y517065D01*
X149305Y518092D01*
X149169Y519131D01*
X149100Y520176D01*
X149100Y521224D01*
X149169Y522269D01*
X149305Y523308D01*
X149510Y524335D01*
X149781Y525347D01*
X150117Y526339D01*
X150518Y527307D01*
X150982Y528246D01*
X151506Y529154D01*
X152088Y530025D01*
X152725Y530856D01*
X153416Y531643D01*
X154157Y532384D01*
X154944Y533075D01*
X155775Y533713D01*
X156646Y534295D01*
X157554Y534818D01*
X158493Y535282D01*
X159461Y535683D01*
X160453Y536019D01*
X161465Y536290D01*
X162492Y536495D01*
X163531Y536632D01*
X164576Y536700D01*
X165624Y536700D01*
X166669Y536632D01*
X167708Y536495D01*
X168735Y536290D01*
X169747Y536019D01*
X170739Y535683D01*
X171707Y535282D01*
X172646Y534818D01*
X173554Y534295D01*
X174425Y533713D01*
X175256Y533075D01*
X176043Y532384D01*
X176784Y531643D01*
X177475Y530856D01*
X178113Y530025D01*
X178695Y529154D01*
X179218Y528246D01*
X179682Y527307D01*
X180083Y526339D01*
X180419Y525347D01*
X180690Y524335D01*
X180895Y523308D01*
X181032Y522269D01*
X181100Y521224D01*
X181100Y520176D01*
X689100Y367776D02*
X689032Y366731D01*
X688895Y365692D01*
X688690Y364665D01*
X688419Y363653D01*
X688083Y362661D01*
X687682Y361693D01*
X687218Y360754D01*
X686695Y359846D01*
X686113Y358975D01*
X685475Y358144D01*
X684784Y357357D01*
X684043Y356616D01*
X683256Y355925D01*
X682425Y355288D01*
X681554Y354706D01*
X680646Y354182D01*
X679707Y353718D01*
X678739Y353317D01*
X677747Y352981D01*
X676735Y352710D01*
X675708Y352505D01*
X674669Y352369D01*
X673624Y352300D01*
X672576Y352300D01*
X671531Y352369D01*
X670492Y352505D01*
X669465Y352710D01*
X668453Y352981D01*
X667461Y353317D01*
X666493Y353718D01*
X665554Y354182D01*
X664646Y354706D01*
X663775Y355288D01*
X662944Y355925D01*
X662157Y356616D01*
X661416Y357357D01*
X660725Y358144D01*
X660088Y358975D01*
X659506Y359846D01*
X658982Y360754D01*
X658518Y361693D01*
X658117Y362661D01*
X657781Y363653D01*
X657510Y364665D01*
X657305Y365692D01*
X657169Y366731D01*
X657100Y367776D01*
X657100Y368824D01*
X657169Y369869D01*
X657305Y370908D01*
X657510Y371935D01*
X657781Y372947D01*
X658117Y373939D01*
X658518Y374907D01*
X658982Y375846D01*
X659506Y376754D01*
X660088Y377625D01*
X660725Y378456D01*
X661416Y379243D01*
X662157Y379984D01*
X662944Y380675D01*
X663775Y381313D01*
X664646Y381895D01*
X665554Y382418D01*
X666493Y382882D01*
X667461Y383283D01*
X668453Y383619D01*
X669465Y383890D01*
X670492Y384095D01*
X671531Y384232D01*
X672576Y384300D01*
X673624Y384300D01*
X674669Y384232D01*
X675708Y384095D01*
X676735Y383890D01*
X677747Y383619D01*
X678739Y383283D01*
X679707Y382882D01*
X680646Y382418D01*
X681554Y381895D01*
X682425Y381313D01*
X683256Y380675D01*
X684043Y379984D01*
X684784Y379243D01*
X685475Y378456D01*
X686113Y377625D01*
X686695Y376754D01*
X687218Y375846D01*
X687682Y374907D01*
X688083Y373939D01*
X688419Y372947D01*
X688690Y371935D01*
X688895Y370908D01*
X689032Y369869D01*
X689100Y368824D01*
X689100Y367776D01*
X689100Y88376D02*
X689032Y87331D01*
X688895Y86292D01*
X688690Y85265D01*
X688419Y84253D01*
X688083Y83261D01*
X687682Y82293D01*
X687218Y81354D01*
X686695Y80446D01*
X686113Y79575D01*
X685475Y78744D01*
X684784Y77957D01*
X684043Y77216D01*
X683256Y76525D01*
X682425Y75888D01*
X681554Y75306D01*
X680646Y74782D01*
X679707Y74318D01*
X678739Y73917D01*
X677747Y73581D01*
X676735Y73310D01*
X675708Y73105D01*
X674669Y72969D01*
X673624Y72900D01*
X672576Y72900D01*
X671531Y72969D01*
X670492Y73105D01*
X669465Y73310D01*
X668453Y73581D01*
X667461Y73917D01*
X666493Y74318D01*
X665554Y74782D01*
X664646Y75306D01*
X663775Y75888D01*
X662944Y76525D01*
X662157Y77216D01*
X661416Y77957D01*
X660725Y78744D01*
X660088Y79575D01*
X659506Y80446D01*
X658982Y81354D01*
X658518Y82293D01*
X658117Y83261D01*
X657781Y84253D01*
X657510Y85265D01*
X657305Y86292D01*
X657169Y87331D01*
X657100Y88376D01*
X657100Y89424D01*
X657169Y90469D01*
X657305Y91508D01*
X657510Y92535D01*
X657781Y93547D01*
X658117Y94539D01*
X658518Y95507D01*
X658982Y96446D01*
X659506Y97354D01*
X660088Y98225D01*
X660725Y99056D01*
X661416Y99843D01*
X662157Y100584D01*
X662944Y101275D01*
X663775Y101913D01*
X664646Y102495D01*
X665554Y103018D01*
X666493Y103482D01*
X667461Y103883D01*
X668453Y104219D01*
X669465Y104490D01*
X670492Y104695D01*
X671531Y104832D01*
X672576Y104900D01*
X673624Y104900D01*
X674669Y104832D01*
X675708Y104695D01*
X676735Y104490D01*
X677747Y104219D01*
X678739Y103883D01*
X679707Y103482D01*
X680646Y103018D01*
X681554Y102495D01*
X682425Y101913D01*
X683256Y101275D01*
X684043Y100584D01*
X684784Y99843D01*
X685475Y99056D01*
X686113Y98225D01*
X686695Y97354D01*
X687218Y96446D01*
X687682Y95507D01*
X688083Y94539D01*
X688419Y93547D01*
X688690Y92535D01*
X688895Y91508D01*
X689032Y90469D01*
X689100Y89424D01*
X689100Y88376D01*
X39793Y311950D02*
X40576Y311882D01*
X41350Y311745D01*
X42109Y311542D01*
X42847Y311273D01*
X43560Y310941D01*
X44240Y310548D01*
X44884Y310097D01*
X45486Y309592D01*
X46042Y309036D01*
X46547Y308434D01*
X46998Y307790D01*
X47391Y307110D01*
X47723Y306397D01*
X47992Y305659D01*
X48195Y304900D01*
X48332Y304126D01*
X48400Y303343D01*
X48400Y302557D01*
X48332Y301774D01*
X48195Y301000D01*
X47992Y300241D01*
X47723Y299503D01*
X47391Y298790D01*
X46998Y298110D01*
X46547Y297466D01*
X46042Y296864D01*
X45486Y296308D01*
X44884Y295803D01*
X44240Y295352D01*
X43560Y294959D01*
X42847Y294627D01*
X42109Y294358D01*
X41350Y294155D01*
X40576Y294019D01*
X39793Y293950D01*
X39007Y293950D01*
X38224Y294019D01*
X37450Y294155D01*
X36691Y294358D01*
X35953Y294627D01*
X35240Y294959D01*
X34560Y295352D01*
X33916Y295803D01*
X33314Y296308D01*
X32758Y296864D01*
X32253Y297466D01*
X31802Y298110D01*
X31409Y298790D01*
X31077Y299503D01*
X30808Y300241D01*
X30605Y301000D01*
X30469Y301774D01*
X30400Y302557D01*
X30400Y303343D01*
X30469Y304126D01*
X30605Y304900D01*
X30808Y305659D01*
X31077Y306397D01*
X31409Y307110D01*
X31802Y307790D01*
X32253Y308434D01*
X32758Y309036D01*
X33314Y309592D01*
X33916Y310097D01*
X34560Y310548D01*
X35240Y310941D01*
X35953Y311273D01*
X36691Y311542D01*
X37450Y311745D01*
X38224Y311882D01*
X39007Y311950D01*
X39793Y311950D01*
X39793Y366450D02*
X40576Y366382D01*
X41350Y366245D01*
X42109Y366042D01*
X42847Y365773D01*
X43560Y365441D01*
X44240Y365048D01*
X44884Y364597D01*
X45486Y364092D01*
X46042Y363536D01*
X46547Y362934D01*
X46998Y362290D01*
X47391Y361610D01*
X47723Y360897D01*
X47992Y360159D01*
X48195Y359400D01*
X48332Y358626D01*
X48400Y357843D01*
X48400Y357057D01*
X48332Y356274D01*
X48195Y355500D01*
X47992Y354741D01*
X47723Y354003D01*
X47391Y353290D01*
X46998Y352610D01*
X46547Y351966D01*
X46042Y351364D01*
X45486Y350808D01*
X44884Y350303D01*
X44240Y349852D01*
X43560Y349459D01*
X42847Y349127D01*
X42109Y348858D01*
X41350Y348655D01*
X40576Y348519D01*
X39793Y348450D01*
X39007Y348450D01*
X38224Y348519D01*
X37450Y348655D01*
X36691Y348858D01*
X35953Y349127D01*
X35240Y349459D01*
X34560Y349852D01*
X33916Y350303D01*
X33314Y350808D01*
X32758Y351364D01*
X32253Y351966D01*
X31802Y352610D01*
X31409Y353290D01*
X31077Y354003D01*
X30808Y354741D01*
X30605Y355500D01*
X30469Y356274D01*
X30400Y357057D01*
X30400Y357843D01*
X30469Y358626D01*
X30605Y359400D01*
X30808Y360159D01*
X31077Y360897D01*
X31409Y361610D01*
X31802Y362290D01*
X32253Y362934D01*
X32758Y363536D01*
X33314Y364092D01*
X33916Y364597D01*
X34560Y365048D01*
X35240Y365441D01*
X35953Y365773D01*
X36691Y366042D01*
X37450Y366245D01*
X38224Y366382D01*
X39007Y366450D01*
X39793Y366450D01*
X70068Y313450D02*
X70802Y313378D01*
X71525Y313234D01*
X72230Y313020D01*
X72911Y312738D01*
X73560Y312391D01*
X74173Y311981D01*
X74743Y311514D01*
X75264Y310993D01*
X75731Y310423D01*
X76141Y309810D01*
X76488Y309161D01*
X76770Y308480D01*
X76984Y307775D01*
X77128Y307052D01*
X77200Y306318D01*
X77200Y305582D01*
X77128Y304848D01*
X76984Y304125D01*
X76770Y303420D01*
X76488Y302739D01*
X76141Y302090D01*
X75731Y301477D01*
X75264Y300907D01*
X74743Y300386D01*
X74173Y299919D01*
X73560Y299509D01*
X72911Y299162D01*
X72230Y298880D01*
X71525Y298666D01*
X70802Y298522D01*
X70068Y298450D01*
X69332Y298450D01*
X68598Y298522D01*
X67875Y298666D01*
X67170Y298880D01*
X66489Y299162D01*
X65840Y299509D01*
X65227Y299919D01*
X64657Y300386D01*
X64136Y300907D01*
X63669Y301477D01*
X63259Y302090D01*
X62912Y302739D01*
X62630Y303420D01*
X62416Y304125D01*
X62272Y304848D01*
X62200Y305582D01*
X62200Y306318D01*
X62272Y307052D01*
X62416Y307775D01*
X62630Y308480D01*
X62912Y309161D01*
X63259Y309810D01*
X63669Y310423D01*
X64136Y310993D01*
X64657Y311514D01*
X65227Y311981D01*
X65840Y312391D01*
X66489Y312738D01*
X67170Y313020D01*
X67875Y313234D01*
X68598Y313378D01*
X69332Y313450D01*
X70068Y313450D01*
X70068Y361950D02*
X70802Y361878D01*
X71525Y361734D01*
X72230Y361520D01*
X72911Y361238D01*
X73560Y360891D01*
X74173Y360481D01*
X74743Y360014D01*
X75264Y359493D01*
X75731Y358923D01*
X76141Y358310D01*
X76488Y357661D01*
X76770Y356980D01*
X76984Y356275D01*
X77128Y355552D01*
X77200Y354818D01*
X77200Y354082D01*
X77128Y353348D01*
X76984Y352625D01*
X76770Y351920D01*
X76488Y351239D01*
X76141Y350590D01*
X75731Y349977D01*
X75264Y349407D01*
X74743Y348886D01*
X74173Y348419D01*
X73560Y348009D01*
X72911Y347662D01*
X72230Y347380D01*
X71525Y347166D01*
X70802Y347022D01*
X70068Y346950D01*
X69332Y346950D01*
X68598Y347022D01*
X67875Y347166D01*
X67170Y347380D01*
X66489Y347662D01*
X65840Y348009D01*
X65227Y348419D01*
X64657Y348886D01*
X64136Y349407D01*
X63669Y349977D01*
X63259Y350590D01*
X62912Y351239D01*
X62630Y351920D01*
X62416Y352625D01*
X62272Y353348D01*
X62200Y354082D01*
X62200Y354818D01*
X62272Y355552D01*
X62416Y356275D01*
X62630Y356980D01*
X62912Y357661D01*
X63259Y358310D01*
X63669Y358923D01*
X64136Y359493D01*
X64657Y360014D01*
X65227Y360481D01*
X65840Y360891D01*
X66489Y361238D01*
X67170Y361520D01*
X67875Y361734D01*
X68598Y361878D01*
X69332Y361950D01*
X70068Y361950D01*
M02*
