G04 EAGLE Gerber RS-274X export*
G75*
%MOMM*%
%FSLAX34Y34*%
%LPD*%
%INSoldermask Top*%
%IPPOS*%
%AMOC8*
5,1,8,0,0,1.08239X$1,22.5*%
G01*
%ADD10C,1.727200*%
%ADD11C,3.403200*%
%ADD12C,1.711200*%
%ADD13R,1.903200X3.703200*%
%ADD14C,2.003200*%
%ADD15C,1.703200*%
%ADD16R,3.703200X1.903200*%
%ADD17C,1.711200*%
%ADD18C,0.959600*%


D10*
X251460Y513080D02*
X251460Y528320D01*
X276860Y528320D02*
X276860Y513080D01*
X302260Y513080D02*
X302260Y528320D01*
X327660Y528320D02*
X327660Y513080D01*
X353060Y513080D02*
X353060Y528320D01*
X378460Y528320D02*
X378460Y513080D01*
X403860Y513080D02*
X403860Y528320D01*
X429260Y528320D02*
X429260Y513080D01*
X469900Y513080D02*
X469900Y528320D01*
X495300Y528320D02*
X495300Y513080D01*
X520700Y513080D02*
X520700Y528320D01*
X546100Y528320D02*
X546100Y513080D01*
X571500Y513080D02*
X571500Y528320D01*
X596900Y528320D02*
X596900Y513080D01*
X622300Y513080D02*
X622300Y528320D01*
X647700Y528320D02*
X647700Y513080D01*
X342900Y45720D02*
X342900Y30480D01*
X368300Y30480D02*
X368300Y45720D01*
X393700Y45720D02*
X393700Y30480D01*
X419100Y30480D02*
X419100Y45720D01*
X444500Y45720D02*
X444500Y30480D01*
X469900Y30480D02*
X469900Y45720D01*
X520700Y45720D02*
X520700Y30480D01*
X546100Y30480D02*
X546100Y45720D01*
X571500Y45720D02*
X571500Y30480D01*
X596900Y30480D02*
X596900Y45720D01*
X622300Y45720D02*
X622300Y30480D01*
X647700Y30480D02*
X647700Y45720D01*
D11*
X165100Y520700D03*
X673100Y368300D03*
X673100Y88900D03*
D12*
X38100Y241300D03*
X63500Y241300D03*
X190500Y241300D03*
X215900Y241300D03*
X88900Y241300D03*
X114300Y241300D03*
X165100Y241300D03*
X139700Y241300D03*
X241300Y241300D03*
X266700Y241300D03*
X292100Y241300D03*
X317500Y241300D03*
X342900Y241300D03*
X368300Y241300D03*
X393700Y241300D03*
X419100Y241300D03*
X444500Y241300D03*
X469900Y241300D03*
X495300Y241300D03*
X520700Y241300D03*
X520700Y419100D03*
X495300Y419100D03*
X469900Y419100D03*
X444500Y419100D03*
X419100Y419100D03*
X393700Y419100D03*
X368300Y419100D03*
X342900Y419100D03*
X317500Y419100D03*
X292100Y419100D03*
X266700Y419100D03*
X241300Y419100D03*
X215900Y419100D03*
X190500Y419100D03*
X165100Y419100D03*
X139700Y419100D03*
X114300Y419100D03*
X88900Y419100D03*
X63500Y419100D03*
X38100Y419100D03*
D13*
X38100Y230200D03*
X63500Y230200D03*
X88900Y230200D03*
X114300Y230200D03*
X139700Y230200D03*
X165100Y230200D03*
X190500Y230200D03*
X215900Y230200D03*
X241300Y230200D03*
X266700Y230200D03*
X292100Y230200D03*
X317500Y230200D03*
X342900Y230200D03*
X368300Y230200D03*
X393700Y230200D03*
X419100Y230200D03*
X444500Y230200D03*
X469900Y230200D03*
X495300Y230200D03*
X520700Y230200D03*
X520700Y430200D03*
X495300Y430200D03*
X469900Y430200D03*
X444500Y430200D03*
X419100Y430200D03*
X393700Y430200D03*
X368300Y430200D03*
X342900Y430200D03*
X317500Y430200D03*
X292100Y430200D03*
X266700Y430200D03*
X241300Y430200D03*
X215900Y430200D03*
X190500Y430200D03*
X165100Y430200D03*
X139700Y430200D03*
X114300Y430200D03*
X88900Y430200D03*
X63500Y430200D03*
X38100Y430200D03*
D14*
X39400Y302950D03*
X39400Y357450D03*
D15*
X69700Y305950D03*
X69700Y354450D03*
D12*
X518400Y304800D03*
X518400Y330200D03*
X518400Y355600D03*
D16*
X528650Y304800D03*
X528650Y330200D03*
X528650Y355600D03*
D17*
X200025Y513160D02*
X200025Y528240D01*
X225425Y528240D02*
X225425Y513160D01*
D10*
X567055Y365125D02*
X582295Y365125D01*
X582295Y390525D02*
X567055Y390525D01*
X567055Y415925D02*
X582295Y415925D01*
X585470Y219075D02*
X570230Y219075D01*
X570230Y244475D02*
X585470Y244475D01*
X585470Y269875D02*
X570230Y269875D01*
X570230Y295275D02*
X585470Y295275D01*
X585470Y320675D02*
X570230Y320675D01*
X51308Y521081D02*
X36068Y521081D01*
X36068Y475869D02*
X51308Y475869D01*
X101092Y521081D02*
X116332Y521081D01*
X116332Y475869D02*
X101092Y475869D01*
D18*
X393700Y346075D03*
X463550Y165100D03*
X371475Y365125D03*
X469900Y174625D03*
X361950Y381000D03*
X361950Y476250D03*
X314325Y476250D03*
X219075Y171450D03*
M02*
